<svg id="Layer_1" enable-background="new 0 0 512 512" height="512" viewBox="0 0 512 512" width="512" xmlns="http://www.w3.org/2000/svg" xmlns:xlink="http://www.w3.org/1999/xlink"><linearGradient id="SVGID_1_" gradientUnits="userSpaceOnUse" x1="236.443" x2="285.647" y1="93.332" y2="50.17"><stop offset="0" stop-color="#f46262"/><stop offset="1" stop-color="#ff737d"/></linearGradient><linearGradient id="SVGID_2_" gradientUnits="userSpaceOnUse" x1="75.521" x2="288.789" y1="298.461" y2="296.143"><stop offset="0" stop-color="#ffdb43"/><stop offset="1" stop-color="#ffefae"/></linearGradient><linearGradient id="SVGID_3_" gradientUnits="userSpaceOnUse" x1="43.521" x2="468.48" y1="200.097" y2="200.097"><stop offset="0" stop-color="#b24e2f"/><stop offset="1" stop-color="#dd6642"/></linearGradient><linearGradient id="SVGID_4_" gradientUnits="userSpaceOnUse" x1="29.79" x2="482.21" y1="461.218" y2="461.218"><stop offset="0" stop-color="#3ccbde"/><stop offset="1" stop-color="#81d9e7"/></linearGradient><linearGradient id="SVGID_5_" gradientUnits="userSpaceOnUse" x1="5.301" x2="151.344" y1="411.801" y2="410.641"><stop offset="0" stop-color="#81d9e7"/><stop offset="1" stop-color="#b5e9f1"/></linearGradient><circle cx="267.12" cy="66.422" fill="url(#SVGID_1_)" r="44.901"/><path d="m426.893 190.712h-341.786l-38.199 211.159h418.184z" fill="url(#SVGID_2_)"/><path d="m319.643 293.337c-4.056.992-8.295 1.518-12.657 1.518-13.442 0-25.714-4.996-35.066-13.231-8.888-7.827-22.952-7.827-31.84 0-9.352 8.235-21.624 13.231-35.066 13.231-13.443 0-25.714-4.996-35.066-13.231-8.888-7.826-22.952-7.826-31.84 0-9.352 8.235-21.624 13.231-35.066 13.231-14.947 0-26.515-2.926-35.315-8.065l-6.539 36.145c9.326 6.715 22.871 10.461 41.854 10.461 13.443 0 25.714-4.996 35.066-13.231 8.888-7.827 22.952-7.827 31.84 0 9.352 8.235 21.624 13.231 35.066 13.231s25.714-4.996 35.066-13.231c8.888-7.827 22.952-7.827 31.84 0 9.352 8.235 21.624 13.231 35.066 13.231 9.485 0 18.387-2.487 26.092-6.845 5.603-3.169 8.974-9.201 8.974-15.637 0-11.743-11.002-20.367-22.409-17.577z" fill="#ffc715"/><path d="m374.5 97.252h-237c-30.592 0-58.192 18.464-69.75 46.789-24.768 60.697-51.44 158.902 35.291 158.902 13.443 0 25.714-4.996 35.066-13.231 8.669-7.634 23.171-7.634 31.84 0 9.352 8.235 21.624 13.231 35.066 13.231s25.714-4.996 35.066-13.231c8.669-7.634 23.171-7.634 31.84 0 9.352 8.235 21.624 13.231 35.066 13.231s25.714-4.996 35.066-13.231c8.669-7.634 23.171-7.634 31.84 0 9.352 8.235 21.624 13.231 35.066 13.231 86.731 0 60.059-98.205 35.291-158.902-11.556-28.325-39.156-46.789-69.748-46.789z" fill="url(#SVGID_3_)"/><path d="m399.169 156.729c-4.511-7.07-11.884-11.842-20.227-13.091-5.462-.818-9.226-5.909-8.408-11.371.817-5.461 5.906-9.224 11.371-8.408 14.064 2.107 26.502 10.166 34.124 22.113 2.971 4.656 1.788 11.148-3.051 13.809-6.579 3.618-11.901-.063-13.809-3.052z" fill="#f8cfc5"/><path d="m413.658 194.907c-.553-1.808-1.136-3.654-1.75-5.541-1.71-5.251 1.162-10.895 6.413-12.605 5.252-1.711 10.894 1.162 12.604 6.413.652 2.004 1.272 3.965 1.858 5.885 1.615 5.282-1.277 11.165-6.639 12.487-7.005 1.727-11.169-2.332-12.486-6.639z" fill="#f8cfc5"/><path d="m29.79 417.847 16.5 56.446c5.248 17.955 21.713 30.296 40.419 30.296h338.583c18.707 0 35.171-12.341 40.419-30.296l16.5-56.446z" fill="url(#SVGID_4_)"/><path d="m481.859 439.952h-451.718c-16.646 0-30.141-13.495-30.141-30.141 0-16.647 13.495-30.141 30.141-30.141h451.717c16.647 0 30.141 13.495 30.141 30.141.001 16.646-13.494 30.141-30.14 30.141z" fill="url(#SVGID_5_)"/><path d="m271.877 56.817c-4.134-.27-7.08-4.171-6.62-8.288.126-1.13 3.362-27.81 26.486-40.225 3.648-1.959 8.196-.59 10.156 3.06 1.96 3.649.589 8.196-3.06 10.156-16.266 8.733-18.653 28.479-18.675 28.677-.428 3.834-2.96 6.968-8.287 6.62z" fill="#383842"/><path d="m36.251 439.952h192.541c9.393 0 16.637 8.273 15.397 17.584-1.036 7.782-7.714 13.565-15.565 13.481-41.993-.445-110.306-.26-182.335 3.276z" fill="#00bfd7"/><path d="m475.749 439.952h-122.389c-9.393 0-16.637 8.273-15.397 17.584 1.036 7.782 7.714 13.565 15.565 13.481 28.107-.298 67.272 2.193 112.183 3.276z" fill="#00bfd7"/><ellipse cx="168.114" cy="238.45" fill="#ffb0d0" rx="14.936" ry="12.003"/><ellipse cx="343.886" cy="238.45" fill="#ffb0d0" rx="14.936" ry="12.003"/><circle cx="193.721" cy="208.832" fill="#fff" r="29.618"/><circle cx="318.279" cy="208.832" fill="#fff" r="29.618"/><g fill="#383842"><circle cx="193.721" cy="208.832" r="17.652"/><circle cx="318.279" cy="208.832" r="17.652"/><path d="m256 241.91c-5.851 0-11.702-2.213-16.476-6.638-3.038-2.816-3.217-7.562-.401-10.599 2.817-3.037 7.562-3.217 10.599-.401 3.755 3.481 8.8 3.481 12.555 0 3.038-2.817 7.783-2.637 10.599.401s2.637 7.783-.401 10.599c-4.773 4.425-10.624 6.638-16.475 6.638z"/></g></svg>