<svg id="Layer_1" enable-background="new 0 0 512 512" height="512" viewBox="0 0 512 512" width="512" xmlns="http://www.w3.org/2000/svg" xmlns:xlink="http://www.w3.org/1999/xlink"><linearGradient id="SVGID_1_" gradientUnits="userSpaceOnUse" x1="154.398" x2="357.602" y1="424.205" y2="424.205"><stop offset="0" stop-color="#ff9827"/><stop offset="1" stop-color="#ffac48"/></linearGradient><linearGradient id="SVGID_2_" gradientUnits="userSpaceOnUse" x1="116.026" x2="269.642" y1="326.212" y2="325.152"><stop offset="0" stop-color="#ffac48"/><stop offset="1" stop-color="#ffc477"/></linearGradient><linearGradient id="SVGID_3_" gradientUnits="userSpaceOnUse" x1="63.718" x2="201.442" y1="229.971" y2="232.09"><stop offset="0" stop-color="#ffc477"/><stop offset="1" stop-color="#ffd7a6"/></linearGradient><linearGradient id="SVGID_4_" gradientUnits="userSpaceOnUse" x1="263.237" x2="252.816" y1="24.004" y2="299.414"><stop offset="0" stop-color="#f46285"/><stop offset="1" stop-color="#ff97bd"/></linearGradient><path d="m256 336.409-101.602 41.552 8.448 70.719c4.305 36.038 37.384 63.32 76.773 63.32h32.762c39.389 0 72.468-27.282 76.773-63.32l8.448-70.719z" fill="url(#SVGID_1_)"/><path d="m156.806 398.12 4.912 41.114h84.337c7.859 0 14.23-6.371 14.23-14.23 0-7.859-6.371-14.229-14.229-14.23h-19.632z" fill="#ff8103"/><path d="m256 239.207-153.564 34.037 18.959 91.28c5.575 26.84 31.077 46.251 60.765 46.251h147.68c29.688 0 55.191-19.411 60.765-46.251l18.959-91.28z" fill="url(#SVGID_2_)"/><path d="m109.329 306.431h79.047c9.164 0 16.593-7.429 16.593-16.593 0-9.164-7.429-16.593-16.593-16.593h-85.94z" fill="#ff9827"/><path d="m413.049 273.245h-314.098c-22.266 0-40.315-18.05-40.315-40.315 0-22.266 18.05-40.315 40.315-40.315h314.099c22.266 0 40.315 18.05 40.315 40.315 0 22.265-18.05 40.315-40.316 40.315z" fill="url(#SVGID_3_)"/><circle cx="374.397" cy="49.097" fill="#81d9e7" r="16.167"/><path d="m256.083 0c-88.945-.045-161.064 72.046-161.064 160.981 0 10.828 1.077 21.404 3.115 31.633h91.254c22.687 0 41.078 18.391 41.078 41.078v79.901c0 19.386 15.716 35.102 35.102 35.102 19.386 0 35.102-15.716 35.102-35.102v-70.747c0-12.5 9.72-23.146 22.212-23.59 13.115-.466 23.893 10.027 23.893 23.038v29.691c0 19.386 15.716 35.102 35.102 35.102 19.386 0 35.102-15.716 35.102-35.102v-109.464c.002-89.126-71.771-162.476-160.896-162.521z" fill="url(#SVGID_4_)"/><path d="m288.343 50.762c-7.407-2.207-15.08-3.655-22.806-4.304-5.503-.462-9.59-5.298-9.128-10.802s5.297-9.593 10.802-9.128c9.091.764 18.122 2.468 26.843 5.066 5.293 1.577 8.298 7.144 6.728 12.439-2.785 9.397-11.486 7.013-12.439 6.729z" fill="#ffc7de"/><path d="m323.568 68.385c-1.185-.876-2.409-1.745-3.638-2.583-4.564-3.109-5.744-9.33-2.634-13.895 3.11-4.564 9.331-5.743 13.895-2.634 1.441.982 2.877 2.001 4.269 3.03 4.44 3.284 5.451 9.6 2.095 13.986-5.2 6.797-12.198 3.418-13.987 2.096z" fill="#ffc7de"/><circle cx="107.014" cy="88.523" fill="#ffe780" r="16.167"/><circle cx="412.989" cy="146.477" fill="#ffe780" r="16.167"/><circle cx="204.168" cy="58.276" fill="#b5e9f1" r="16.167"/><ellipse cx="168.115" cy="162.414" fill="#ffb0d0" rx="14.936" ry="12.003"/><ellipse cx="343.886" cy="162.414" fill="#ffb0d0" rx="14.936" ry="12.003"/><circle cx="193.721" cy="132.797" fill="#fff" r="29.618"/><circle cx="205.687" cy="132.797" fill="#383842" r="17.652"/><circle cx="318.279" cy="132.797" fill="#fff" r="29.618"/><g fill="#383842"><circle cx="330.182" cy="132.797" r="17.652"/><ellipse cx="256" cy="155.249" rx="13.252" ry="17.352"/></g></svg>