<svg id="Layer_1" enable-background="new 0 0 512 512" height="512" viewBox="0 0 512 512" width="512" xmlns="http://www.w3.org/2000/svg" xmlns:xlink="http://www.w3.org/1999/xlink"><linearGradient id="SVGID_1_" gradientUnits="userSpaceOnUse" x1="79.136" x2="432.864" y1="285.577" y2="285.577"><stop offset="0" stop-color="#ffc477"/><stop offset="1" stop-color="#ffd7a6"/></linearGradient><linearGradient id="SVGID_2_" gradientUnits="userSpaceOnUse" x1="62.045" x2="449.956" y1="412.4" y2="412.4"><stop offset="0" stop-color="#8ed7e8"/><stop offset="1" stop-color="#abebf4"/></linearGradient><linearGradient id="SVGID_3_" gradientUnits="userSpaceOnUse" x1="203.63" x2="368.25" y1="86.759" y2="84.488"><stop offset="0" stop-color="#f46262"/><stop offset="1" stop-color="#ff737d"/></linearGradient><linearGradient id="SVGID_4_" gradientUnits="userSpaceOnUse" x1="121.178" x2="393.652" y1="177.896" y2="181.302"><stop offset="0" stop-color="#f46262"/><stop offset="1" stop-color="#ff929f"/></linearGradient><path d="m256 178.714c-185.859 0-176.793 158.665-176.793 158.665l176.793 55.061 176.793-55.061s9.066-158.665-176.793-158.665z" fill="url(#SVGID_1_)"/><path d="m307.832 265.729c0-9.728-8.292-17.392-17.991-16.626l-33.758 2.665-101.78-50.706c-21.938 11.93-37.497 27.501-48.521 43.839 0 0 51.76 51.982 187.125 37.419 8.48-.914 14.925-8.061 14.925-16.591z" fill="#ffac48"/><path d="m351.837 336.257-18.339-15.367c-13.039-10.926-32.082-10.767-44.936.376l-15.598 13.521c-9.735 8.439-24.193 8.439-33.929 0l-15.598-13.521c-12.854-11.143-31.897-11.302-44.936-.376l-18.339 15.367c-9.74 8.162-23.154 10.367-34.994 5.752l-34.568-13.474c-15.698-6.118-31.824 7.872-27.981 24.276l30.489 118.05c5.644 24.099 27.137 41.139 51.887 41.139h222.01c24.75 0 46.243-17.04 51.888-41.138l30.489-118.05c3.842-16.404-12.283-30.395-27.981-24.276l-34.569 13.473c-11.841 4.614-25.255 2.409-34.995-5.752z" fill="url(#SVGID_2_)"/><circle cx="222.973" cy="38.836" fill="#9ad880" r="16.167"/><path d="m143.238 137.93s-25.103-88.906 74.263-97.274c50.586-4.26 80.028-19.092 96.744-32.628 15.92-12.892 39.353-9.924 51.581 6.512 20.867 28.047 38.229 72.481.201 123.39-1.047 2.092-101.458 73.217-222.789 0z" fill="url(#SVGID_3_)"/><path d="m388.449 78.828c-.53-.11-14.432-2.939-30.6-1.213-9.388 1.003-16.437 9.058-16.377 18.499.001.159-1.516 16.354 16.14 18.705l20.991 2.703c6.626-13.569 9.54-26.537 9.846-38.694z" fill="#dd4040"/><path d="m294.942 110.276c0-11.323-9.932-20.057-21.168-18.648-22.64 2.839-57.752 5.313-76.073-3.24-28.419-13.267-49.784-8.85-49.784-8.85-7.602 15.317-8.121 31.907-7.125 43.478l112.949 14.237 28.174-9.087c13.027-4.201 13.027-17.89 13.027-17.89z" fill="#dd4040"/><path d="m256.083 251.767c-41.412 0-82.825-7.802-122.239-23.407-31.857-12.613-47.458-48.664-34.845-80.522s48.666-47.459 80.522-34.845c49.374 19.548 103.754 19.547 153.124 0 31.861-12.616 67.909 2.988 80.523 34.845 12.613 31.858-2.988 67.908-34.845 80.522-39.414 15.605-80.827 23.407-122.24 23.407z" fill="url(#SVGID_4_)"/><circle cx="104.694" cy="146.477" fill="#ffe780" r="16.167"/><circle cx="409.618" cy="169.577" fill="#b2e59c" r="16.167"/><circle cx="222.353" cy="201.062" fill="#b2e59c" r="16.167"/><circle cx="320.158" cy="164.026" fill="#ffe780" r="16.167"/><circle cx="378.092" cy="38.836" fill="#ffe780" r="16.167"/><ellipse cx="168.114" cy="433.247" fill="#ffb0d0" rx="14.936" ry="12.003"/><ellipse cx="343.886" cy="433.247" fill="#ffb0d0" rx="14.936" ry="12.003"/><circle cx="193.721" cy="403.629" fill="#fff" r="29.618"/><circle cx="181.756" cy="403.629" fill="#383842" r="17.652"/><circle cx="318.279" cy="403.629" fill="#fff" r="29.618"/><circle cx="306.313" cy="403.629" fill="#383842" r="17.652"/><path d="m263.59 410.823h-15.181c-3.007 0-5.658 1.977-6.506 4.862-2.672 9.09-5.742 27.748 14.097 27.748s16.769-18.659 14.097-27.748c-.849-2.886-3.499-4.862-6.507-4.862z" fill="#383842"/><path d="m243.793 439.233c2.462 2.549 6.32 4.2 12.207 4.2 5.888 0 9.746-1.651 12.208-4.2-1.247-4.845-6.234-8.47-12.208-8.47-5.973 0-10.96 3.625-12.207 8.47z" fill="#ff737d"/></svg>