<svg id="Layer_1" enable-background="new 0 0 512 512" height="512" viewBox="0 0 512 512" width="512" xmlns="http://www.w3.org/2000/svg" xmlns:xlink="http://www.w3.org/1999/xlink"><linearGradient id="SVGID_1_" gradientUnits="userSpaceOnUse" x1="102.727" x2="394.716" y1="261.809" y2="270.552"><stop offset="0" stop-color="#ffc477"/><stop offset="1" stop-color="#ffd7a6"/></linearGradient><linearGradient id="SVGID_2_" gradientUnits="userSpaceOnUse" x1="0" x2="512" y1="128.406" y2="128.406"><stop offset="0" stop-color="#dd6642"/><stop offset="1" stop-color="#e7896e"/></linearGradient><path d="m438.45 118.951c-6.353-6.353-6.353-16.654 0-23.008l20.251-20.252c6.353-6.353 16.654-6.353 23.008 0 6.353 6.353 6.353 16.654 0 23.008l-20.252 20.251c-6.352 6.354-16.653 6.354-23.007.001z" fill="#8ed7e8"/><path d="m256 23.201c-134.314 0-243.197 108.883-243.197 243.197s108.883 243.197 243.197 243.197 243.197-108.883 243.197-243.197-108.883-243.197-243.197-243.197zm0 326.47c-45.99 0-83.272-37.282-83.272-83.272s37.282-83.272 83.272-83.272 83.272 37.282 83.272 83.272c0 45.989-37.282 83.272-83.272 83.272z" fill="url(#SVGID_1_)"/><path d="m294.255 340.369c-11.453 5.942-24.459 9.302-38.254 9.302-45.883.001-83.353-37.538-83.273-83.421.076-43.414 33.38-79.015 75.835-82.775-2.008-24.445-5.309-47.55-10.358-47.55-13.559 0-108.132 0-187.467 0-24.015 37.702-37.935 82.461-37.935 130.474 0 1.635.03 3.263.062 4.89 10.953 4.936 36.227 14.549 66.421 15.165 24.316.497 45.966 15.085 55.975 37.251 14.824 32.829 47.896 73.168 120.739 73.168 23.571 0 43.408-4.676 60.074-12.22 14.431-6.533 19.068-23.885 9.295-37.456-8.152-11.319-20.427-12.373-31.114-6.828z" fill="#ffac48"/><path d="m510.3 195.407c-31.082-111.199-133.318-193.002-254.3-193.003-120.982 0-223.218 81.803-254.3 193.002-11.498 41.135 37.949 71.988 69.678 43.395 3.873-3.49 7.171-7.019 9.956-10.392 6.591-7.984 18.789-7.691 25.105.512 2.014 2.615 4.331 5.317 6.989 8.016 26.653 27.066 71.026 21.756 92.594-9.515 8.727-12.654 23.833-23.5 49.978-23.5s41.251 10.846 49.978 23.5c21.567 31.271 65.94 36.581 92.594 9.515 2.658-2.699 4.976-5.401 6.989-8.016 6.317-8.203 18.514-8.496 25.105-.512 2.785 3.373 6.083 6.902 9.956 10.392 31.729 28.594 81.176-2.259 69.678-43.394z" fill="url(#SVGID_2_)"/><path d="m300.037 52.886c-14.347-2.936-29.163-4.425-44.037-4.425-5.523 0-10-4.477-10-10s4.477-10 10-10c16.219 0 32.384 1.625 48.047 4.831 5.411 1.107 9.196 6.46 7.792 11.802-2.697 10.259-11.125 7.93-11.802 7.792z" fill="#f8cfc5"/><path d="m344.99 67.405c-2.747-1.238-5.565-2.435-8.375-3.559-5.127-2.052-7.621-7.872-5.569-12.999 2.051-5.127 7.866-7.623 12.999-5.57 3.072 1.229 6.154 2.539 9.16 3.893 5.035 2.268 7.13 8.125 5.01 13.225-3.496 8.405-11.891 5.611-13.225 5.01z" fill="#f8cfc5"/><path d="m71.67 156.542c-6.353 6.354-16.654 6.354-23.008 0l-20.251-20.252c-6.353-6.353-6.353-16.654 0-23.008 6.353-6.354 16.654-6.354 23.008 0l20.252 20.251c6.353 6.355 6.353 16.656-.001 23.009z" fill="#ffe780"/><path d="m458.099 179.888c-6.354 6.353-16.655 6.353-23.008 0l-20.251-20.252c-6.354-6.353-6.354-16.654 0-23.008 6.353-6.354 16.654-6.354 23.008 0l20.251 20.251c6.353 6.355 6.353 16.656 0 23.009z" fill="#97f7e5"/><path d="m132.774 72.293c-6.354 6.354-16.655 6.354-23.008 0l-20.252-20.251c-6.354-6.354-6.354-16.654 0-23.008 6.353-6.354 16.654-6.354 23.008 0l20.252 20.251c6.353 6.354 6.353 16.655 0 23.008z" fill="#ff97bd"/><ellipse cx="168.115" cy="159.503" fill="#ffb0d0" rx="14.936" ry="12.003"/><ellipse cx="343.886" cy="159.503" fill="#ffb0d0" rx="14.936" ry="12.003"/><circle cx="193.721" cy="129.922" fill="#ad5847" r="29.58"/><path d="m164.141 131.371c.774 15.667 13.721 28.132 29.58 28.132s28.806-12.465 29.58-28.132z" fill="#fff"/><path d="m176.136 131.371c.755 9.053 8.337 16.166 17.585 16.166s16.83-7.113 17.586-16.166z" fill="#383842"/><circle cx="318.279" cy="129.922" fill="#ad5847" r="29.58"/><path d="m288.698 131.371c.774 15.667 13.721 28.132 29.58 28.132s28.806-12.465 29.58-28.132z" fill="#fff"/><g fill="#383842"><path d="m300.693 131.371c.755 9.053 8.337 16.166 17.585 16.166s16.83-7.113 17.585-16.166z"/><path d="m262.277 160.948c-3.755-3.481-8.8-3.481-12.555 0-3.038 2.816-7.783 2.636-10.599-.401-2.816-3.038-2.637-7.783.401-10.599 9.547-8.851 23.404-8.851 32.951 0 3.038 2.816 3.316 7.657.401 10.599-4.313 4.353-9.155 1.739-10.599.401z"/></g></svg>