<svg id="Layer_1" enable-background="new 0 0 512 512" height="512" viewBox="0 0 512 512" width="512" xmlns="http://www.w3.org/2000/svg" xmlns:xlink="http://www.w3.org/1999/xlink"><linearGradient id="SVGID_1_" gradientUnits="userSpaceOnUse" x1="190.917" x2="321.083" y1="422.484" y2="422.484"><stop offset="0" stop-color="#7ac1dd"/><stop offset="1" stop-color="#8ed7e8"/></linearGradient><linearGradient id="SVGID_2_" gradientUnits="userSpaceOnUse" x1="118.763" x2="393.237" y1="262.07" y2="262.07"><stop offset="0" stop-color="#ffdb43"/><stop offset="1" stop-color="#ffe780"/></linearGradient><linearGradient id="SVGID_3_" gradientUnits="userSpaceOnUse" x1="153.815" x2="358.185" y1="67.242" y2="67.242"><stop offset="0" stop-color="#b24e2f"/><stop offset="1" stop-color="#dd6642"/></linearGradient><linearGradient id="SVGID_4_" gradientUnits="userSpaceOnUse" x1="138.258" x2="373.743" y1="138.805" y2="138.805"><stop offset="0" stop-color="#dd6642"/><stop offset="1" stop-color="#e7896e"/></linearGradient><linearGradient id="SVGID_5_" gradientUnits="userSpaceOnUse" x1="160.815" x2="351.185" y1="480.272" y2="480.272"><stop offset="0" stop-color="#8ed7e8"/><stop offset="1" stop-color="#abebf4"/></linearGradient><path d="m256 383.934h-65.083s28.595 26.134 28.595 77.1h36.488 36.488c0-50.966 28.595-77.1 28.595-77.1z" fill="url(#SVGID_1_)"/><path d="m356.757 128.104h-201.514s-129.977 267.932 100.757 267.932 100.757-267.932 100.757-267.932z" fill="url(#SVGID_2_)"/><path d="m311.376 204.284c-.136-14.005-13.602-24.852-29.008-23.352l-17.096 1.664-118.303-35.361c-5.764 14.375-13.444 35.692-19.336 59.907.001 0 77.887 39.371 162.377 21.292 22.895-4.899 21.368-23.926 21.366-24.15z" fill="#ffc715"/><path d="m353.262 105.894s32.081-77.162-67.54-70.409c-52.492 3.559-82.013-6.834-98.197-17.464-12.08-7.935-28.445-1.199-31.561 12.915-5.376 24.35-3.048 58.646 35.202 88.907-2.533-2.465 162.096-13.949 162.096-13.949z" fill="url(#SVGID_3_)"/><path d="m356.61 67.242s-32.037-7.921-71.374-3.092c-18.154 2.229-35.58.515-49.083-1.977-13.617-2.513-26.169 7.931-26.169 21.778 0 0 0 16.449 14.958 20.949l25.369 8.708c46.321-3.764 102.951-7.714 102.951-7.714s8.278-19.934 3.348-38.652z" fill="#a34325"/><path d="m253.832 109.552 21.15-52.874c8.549-21.375 26.887-37.849 49.052-44.069l42.512-11.929c9.671-2.712 19.7 2.925 22.412 12.59 2.712 9.666-2.925 19.7-12.59 22.412l-42.512 11.929c-11.351 3.185-20.743 11.622-25.121 22.567l-21.15 52.874z" fill="#ffb0d0"/><path d="m256 189.804c-31.335 0-61.901-6.089-90.851-18.097-22.218-9.216-32.769-34.724-23.565-56.973 9.203-22.249 34.673-32.815 56.894-23.599 37.093 15.386 77.951 15.386 115.044 0 22.218-9.216 47.691 1.349 56.894 23.599 9.204 22.249-1.347 47.757-23.565 56.973-28.95 12.009-59.516 18.097-90.851 18.097z" fill="url(#SVGID_4_)"/><path d="m297.125 149.773c-1.398-5.343 1.799-10.808 7.142-12.207 8.426-2.205 16.815-5.031 24.938-8.4 5.103-2.117 10.952.304 13.068 5.406 2.115 5.101-.305 10.952-5.406 13.068-8.964 3.718-18.177 7.04-27.535 9.275-7.284 1.739-11.031-2.648-12.207-7.142z" fill="#f4c0ba"/><path d="m256 163.748c-5.523 0-10-4.477-10-10s4.477-10 10-10c3.623 0 7.282-.103 10.876-.305 5.532-.308 10.237 3.909 10.547 9.422.31 5.514-3.908 10.236-9.422 10.546-3.967.224-8.004.337-12.001.337z" fill="#f4c0ba"/><path d="m319.457 512h-126.914c-17.523 0-31.728-14.205-31.728-31.728 0-17.523 14.205-31.728 31.728-31.728h126.914c17.523 0 31.728 14.205 31.728 31.728 0 17.523-14.205 31.728-31.728 31.728z" fill="url(#SVGID_5_)"/><ellipse cx="168.115" cy="321.94" fill="#ffb0d0" rx="14.936" ry="12.003"/><ellipse cx="343.886" cy="321.94" fill="#ffb0d0" rx="14.936" ry="12.003"/><path d="m256 332.127c-6.447 0-12.894-2.155-18.274-6.465-4.989-3.997-5.794-11.282-1.797-16.271 3.997-4.99 11.282-5.793 16.271-1.797 2.237 1.792 5.361 1.792 7.598 0 4.988-3.997 12.273-3.193 16.271 1.797 3.997 4.989 3.193 12.274-1.797 16.271-5.378 4.31-11.825 6.465-18.272 6.465z" fill="#383842"/><path d="m193.721 296.289c6.756 0 13.023 1.406 18.192 3.806 5.277 2.451 11.371.248 11.371-9.581 0-14.846-12.956-26.887-27.777-27.757-17.168-1.008-31.404 12.616-31.404 29.565 0 9.003 5.961 10.498 10.454 8.242 5.348-2.685 11.979-4.275 19.164-4.275z" fill="#fff"/><path d="m193.721 296.289c5.926 0 11.473 1.082 16.237 2.967.911-2.129 1.415-4.47 1.415-6.933 0-9.749-7.903-17.652-17.652-17.652s-17.652 7.903-17.652 17.652c0 2.463.504 4.803 1.415 6.933 4.764-1.885 10.312-2.967 16.237-2.967z" fill="#383842"/><path d="m318.306 296.289c6.756 0 13.023 1.406 18.192 3.806 5.277 2.451 11.371.248 11.371-9.581 0-14.846-12.956-26.887-27.777-27.757-17.168-1.008-31.404 12.616-31.404 29.565 0 9.003 5.962 10.498 10.454 8.242 5.347-2.685 11.979-4.275 19.164-4.275z" fill="#fff"/><path d="m318.306 296.289c5.926 0 11.473 1.082 16.237 2.967.911-2.129 1.415-4.47 1.415-6.933 0-9.749-7.903-17.652-17.652-17.652s-17.652 7.903-17.652 17.652c0 2.463.504 4.803 1.415 6.933 4.763-1.885 10.311-2.967 16.237-2.967z" fill="#383842"/><path d="m256 317.828c-6.912 0-12.515 4.851-12.515 10.834 0 .207.022.41.036.614 3.956 1.886 8.214 2.85 12.479 2.85s8.523-.964 12.479-2.85c.013-.205.036-.407.036-.614 0-5.983-5.603-10.834-12.515-10.834z" fill="#ff737d"/></svg>