<svg id="Layer_1" enable-background="new 0 0 511.96 511.96" height="512" viewBox="0 0 511.96 511.96" width="512" xmlns="http://www.w3.org/2000/svg" xmlns:xlink="http://www.w3.org/1999/xlink"><linearGradient id="SVGID_1_" gradientUnits="userSpaceOnUse" x1="68.071" x2="405.321" y1="138.496" y2="138.496"><stop offset="0" stop-color="#ff737d"/><stop offset="1" stop-color="#ff929f"/></linearGradient><linearGradient id="SVGID_2_" gradientUnits="userSpaceOnUse" x1="59.509" x2="421.988" y1="423.423" y2="423.423"><stop offset="0" stop-color="#3ccbde"/><stop offset="1" stop-color="#81d9e7"/></linearGradient><linearGradient id="SVGID_3_" gradientUnits="userSpaceOnUse" x1="19.181" x2="454.212" y1="311.698" y2="311.698"><stop offset="0" stop-color="#81d9e7"/><stop offset="1" stop-color="#b5e9f1"/></linearGradient><path d="m374.984 189.564c-10.975-8.025-13.603-23.222-6.385-34.744 8.9-14.207 14.377-31.904 12.973-53.803-3.098-48.33-31.238-79.378-54.907-97.159-11.49-8.632-27.865-1.996-30.47 12.137-4.011 21.765-22.504 48.595-85.525 58.897-69.624 11.381-82.465 48.771-82.033 75.875.216 13.569-7.315 26.225-19.47 32.259-24.355 12.091-41.097 37.206-41.097 66.243v27.723h337.25v-27.722c.001-24.529-11.945-46.26-30.336-59.706z" fill="url(#SVGID_1_)"/><path d="m266.989 206.905c15.588-.897 16.688-15.979 16.688-15.979 1.021-10.516-7.331-19.544-17.896-19.421-71.097.828-137.143-20.738-137.143-20.738.216 13.569-7.315 26.225-19.47 32.259 48.974 24.706 120.024 26.055 157.821 23.879z" fill="#f46262"/><path d="m316.814 185.901c.015.168-.42 17.701 18.207 15.078 12.46-1.754 29.174-4.839 39.963-11.415-10.975-8.025-13.603-23.222-6.385-34.744 0 0-16.826 10.619-37.816 13.569-8.59 1.207-14.762 8.873-13.969 17.512z" fill="#f46262"/><path d="m435.383 208.275 55.047-107.825c5.386-10.551 1.2-23.47-9.351-28.857-10.551-5.386-23.47-1.2-28.857 9.351l-55.666 109.037c-5.156 10.1-14.908 16.756-26.053 18.854-7.036 1.324-13.405 5.777-16.913 12.648l-37.197 72.862 80.858 41.28 37.197-72.862c4.633-9.075 3.593-16.18.803-21.381-5.511-10.278-5.171-22.719.132-33.107z" fill="#ffe888"/><path d="m59.509 334.885 25.641 133.747c4.821 25.147 26.819 43.328 52.424 43.328h206.35c25.605 0 47.603-18.181 52.424-43.328l25.641-133.747z" fill="url(#SVGID_2_)"/><path d="m237.903 352.827h-174.955l6.931 36.155h168.023c9.984 0 18.077-8.094 18.077-18.078.001-9.984-8.092-18.077-18.076-18.077z" fill="#00a8c3"/><path d="m413.083 352.827h-352.773c-22.715 0-41.129-18.414-41.129-41.129 0-22.715 18.414-41.129 41.129-41.129h352.773c22.715 0 41.129 18.414 41.129 41.129 0 22.715-18.414 41.129-41.129 41.129z" fill="url(#SVGID_3_)"/><circle cx="201.255" cy="81.353" fill="#9ad880" r="16.387"/><circle cx="377.243" cy="122.09" fill="#ffc477" r="16.387"/><circle cx="285.52" cy="130.293" fill="#ffe888" r="16.387"/><circle cx="318.294" cy="69.243" fill="#ffc7de" r="16.387"/><ellipse cx="152.863" cy="460.215" fill="#ffb0d0" rx="14.936" ry="12.003"/><ellipse cx="328.634" cy="460.215" fill="#ffb0d0" rx="14.936" ry="12.003"/><circle cx="178.47" cy="430.597" fill="#fff" r="29.618"/><circle cx="303.027" cy="430.597" fill="#fff" r="29.618"/><g fill="#383842"><path d="m165.08 440.099c-3.515-2.192-4.955-6.556-2.959-10.186 3.279-5.963 9.544-9.668 16.349-9.668h.001c6.806 0 13.07 3.705 16.348 9.669 1.996 3.629.67 8.19-2.96 10.185-3.628 1.996-8.19.671-10.185-2.959-.94-1.71-2.554-1.895-3.204-1.895s-2.264.185-3.205 1.895c-1.365 2.483-5.433 5.922-10.185 2.959z"/><path d="m306.231 437.14c-.941-1.71-2.554-1.895-3.205-1.895-.65 0-2.264.185-3.204 1.895-1.996 3.629-6.555 4.956-10.185 2.959-3.63-1.995-4.955-6.556-2.96-10.185 3.278-5.964 9.543-9.669 16.348-9.669 6.806 0 13.07 3.705 16.349 9.668 1.996 3.63.532 7.956-2.959 10.186-4.889 3.124-8.818-.475-10.184-2.959z"/><path d="m252.419 470.402h-23.342c-6.508 0-11.784-5.276-11.784-11.784 0-6.508 5.276-11.784 11.784-11.784h23.342c6.508 0 11.784 5.276 11.784 11.784 0 6.508-5.276 11.784-11.784 11.784z"/></g><path d="m229.078 470.402h23.342s.803-10.834-11.671-10.834c-12.475 0-11.671 10.834-11.671 10.834z" fill="#ff737d"/><path d="m325.437 333.882h-73.007c-5.523 0-10-4.477-10-10s4.477-10 10-10h73.007c5.523 0 10 4.477 10 10s-4.477 10-10 10z" fill="#e6fdff"/><path d="m377.588 333.882h-14.814c-5.523 0-10-4.477-10-10s4.477-10 10-10h14.814c5.523 0 10 4.477 10 10s-4.477 10-10 10z" fill="#e6fdff"/></svg>