<svg id="Layer_1" enable-background="new 0 0 512 512" height="512" viewBox="0 0 512 512" width="512" xmlns="http://www.w3.org/2000/svg" xmlns:xlink="http://www.w3.org/1999/xlink"><linearGradient id="SVGID_1_" gradientUnits="userSpaceOnUse" x1="89.567" x2="422.433" y1="256" y2="256"><stop offset="0" stop-color="#dd6642"/><stop offset="1" stop-color="#e7896e"/></linearGradient><linearGradient id="lg1"><stop offset="0" stop-color="#e7896e"/><stop offset="1" stop-color="#f2ad9a"/></linearGradient><linearGradient id="SVGID_2_" gradientUnits="userSpaceOnUse" x1="119.128" x2="410.717" xlink:href="#lg1" y1="92.225" y2="99.195"/><linearGradient id="SVGID_3_" gradientUnits="userSpaceOnUse" x1="119.207" x2="410.796" xlink:href="#lg1" y1="88.937" y2="95.907"/><linearGradient id="SVGID_4_" gradientUnits="userSpaceOnUse" x1="115.847" x2="407.436" xlink:href="#lg1" y1="229.48" y2="236.45"/><linearGradient id="SVGID_5_" gradientUnits="userSpaceOnUse" x1="115.925" x2="407.514" xlink:href="#lg1" y1="226.191" y2="233.161"/><linearGradient id="SVGID_6_" gradientUnits="userSpaceOnUse" x1="69.117" x2="442.883" y1="382.573" y2="382.573"><stop offset="0" stop-color="#ffcd00"/><stop offset="1" stop-color="#ffde55"/></linearGradient><linearGradient id="SVGID_7_" gradientUnits="userSpaceOnUse" x1="69.117" x2="442.883" y1="401.488" y2="401.488"><stop offset="0" stop-color="#99b2e9"/><stop offset="1" stop-color="#c1cff2"/></linearGradient><linearGradient id="SVGID_8_" gradientUnits="userSpaceOnUse" x1="272.293" x2="285.132" y1="260.655" y2="343.73"><stop offset="0" stop-color="#ffde55"/><stop offset="1" stop-color="#ffefab"/></linearGradient><path d="m381.319 512h-250.637c-22.707 0-41.115-18.408-41.115-41.115v-429.77c0-22.707 18.407-41.115 41.115-41.115h250.637c22.707 0 41.115 18.408 41.115 41.115v429.77c-.001 22.707-18.408 41.115-41.115 41.115z" fill="url(#SVGID_1_)"/><path d="m211.978 147.572h-49.606c-15.97 0-28.917-12.947-28.917-28.917v-49.606c0-15.971 12.947-28.917 28.917-28.917h49.606c15.971 0 28.917 12.947 28.917 28.917v49.606c0 15.97-12.947 28.917-28.917 28.917z" fill="url(#SVGID_2_)"/><path d="m349.629 147.572h-49.606c-15.97 0-28.917-12.947-28.917-28.917v-49.606c0-15.971 12.947-28.917 28.917-28.917h49.606c15.97 0 28.917 12.947 28.917 28.917v49.606c0 15.97-12.947 28.917-28.917 28.917z" fill="url(#SVGID_3_)"/><path d="m355.237 101.641c-5.523 0-10-4.477-10-10v-13.159c0-2.78-2.261-5.041-5.041-5.041h-29.09c-5.523 0-10-4.477-10-10s4.477-10 10-10h29.09c13.808 0 25.041 11.233 25.041 25.041v13.159c0 5.523-4.477 10-10 10z" fill="#f8cfc5"/><path d="m211.978 284.905h-49.606c-15.97 0-28.917-12.947-28.917-28.917v-49.606c0-15.97 12.947-28.917 28.917-28.917h49.606c15.971 0 28.917 12.947 28.917 28.917v49.606c0 15.97-12.947 28.917-28.917 28.917z" fill="url(#SVGID_4_)"/><path d="m349.629 284.905h-49.606c-15.97 0-28.917-12.947-28.917-28.917v-49.606c0-15.97 12.947-28.917 28.917-28.917h49.606c15.97 0 28.917 12.947 28.917 28.917v49.606c0 15.97-12.947 28.917-28.917 28.917z" fill="url(#SVGID_5_)"/><path d="m423.29 253.388c-110.73 18.841-223.85 18.841-334.58 0-10.244-1.743-19.593 6.138-19.593 16.529v200.897c0 22.746 18.44 41.186 41.186 41.186h291.394c22.746 0 41.186-18.44 41.186-41.186v-200.897c0-10.391-9.349-18.272-19.593-16.529z" fill="url(#SVGID_6_)"/><path d="m88.71 253.388c-10.244-1.743-19.593 6.138-19.593 16.529v27.896c43.417 13.604 125.222 41.819 180.995 76.889 20.993 13.2 33.981-8.988 33.981-8.988 5.763-10.547 2.748-23.736-7.025-30.732l-38.421-27.502 30.447-40.048c-60.323.793-120.7-3.889-180.384-14.044z" fill="#ffb000"/><path d="m69.117 332.162h373.766v138.652h-373.766z" fill="url(#SVGID_7_)"/><path d="m250.112 374.702c20.993 13.2 33.981-8.988 33.981-8.988 5.763-10.547 2.748-23.736-7.025-30.732l-3.94-2.82h-108.416c29.827 12.315 60.256 26.729 85.4 42.54z" fill="#7293df"/><path d="m119.789 258.173s92.145 27.442 171.913 90.324c17.297 13.635 42.604 9.38 54.177-9.359 17.197-27.846 44.072-64.222 77.411-85.75-100.39 17.081-202.744 18.676-303.501 4.785z" fill="url(#SVGID_8_)"/><ellipse cx="172.399" cy="436.755" fill="#ffb0d0" rx="14.936" ry="12.003"/><ellipse cx="348.17" cy="436.755" fill="#ffb0d0" rx="14.936" ry="12.003"/><path d="m227.624 407.137c0 16.358-13.26 29.618-29.618 29.618s-29.618-13.26-29.618-29.618c0-16.357 13.26-19.618 29.618-19.618 16.357 0 29.618 3.261 29.618 19.618z" fill="#fff"/><circle cx="209.971" cy="407.137" fill="#383842" r="17.652"/><path d="m352.181 407.137c0 16.358-13.26 29.618-29.618 29.618-16.357 0-29.618-13.26-29.618-29.618 0-16.357 13.26-19.618 29.618-19.618s29.618 3.261 29.618 19.618z" fill="#fff"/><circle cx="334.467" cy="407.137" fill="#383842" r="17.652"/><path d="m168.426 405.651c.774-15.667 13.721-28.132 29.58-28.132s28.806 12.465 29.58 28.132z" fill="#7293df"/><path d="m293.021 405.651c.774-15.667 13.721-28.132 29.58-28.132s28.806 12.465 29.58 28.132z" fill="#7293df"/><path d="m269.965 436.024h-19.323c-4.142 0-7.5-3.358-7.5-7.5s3.358-7.5 7.5-7.5h19.323c4.142 0 7.5 3.358 7.5 7.5s-3.358 7.5-7.5 7.5z" fill="#383842"/><path d="m209.972 75.006h-17.63c-5.523 0-10-4.477-10-10s4.477-10 10-10h17.63c5.523 0 10 4.477 10 10 0 5.522-4.477 10-10 10z" fill="#f8cfc5"/></svg>