<svg id="Layer_1" enable-background="new 0 0 512 512" height="512" viewBox="0 0 512 512" width="512" xmlns="http://www.w3.org/2000/svg" xmlns:xlink="http://www.w3.org/1999/xlink"><linearGradient id="lg1"><stop offset="0" stop-color="#3ccbde"/><stop offset="1" stop-color="#81d9e7"/></linearGradient><linearGradient id="SVGID_1_" gradientUnits="userSpaceOnUse" x1="151.084" x2="23.631" xlink:href="#lg1" y1="278.002" y2="358.083"/><linearGradient id="SVGID_2_" gradientUnits="userSpaceOnUse" x1="390.089" x2="493.856" xlink:href="#lg1" y1="211.411" y2="153.888"/><linearGradient id="SVGID_3_" gradientUnits="userSpaceOnUse" x1="111.569" x2="418.846" y1="332.644" y2="168.764"><stop offset="0" stop-color="#81d9e7"/><stop offset="1" stop-color="#b5e9f1"/></linearGradient><linearGradient id="lg2"><stop offset="0" stop-color="#ff97bd"/><stop offset="1" stop-color="#ffb0d0"/></linearGradient><linearGradient id="SVGID_4_" gradientUnits="userSpaceOnUse" x1="162.531" x2="393.26" xlink:href="#lg2" y1="364.619" y2="214.754"/><linearGradient id="SVGID_5_" gradientUnits="userSpaceOnUse" x1="119.574" x2="350.308" xlink:href="#lg2" y1="298.483" y2="148.614"/><path d="m168.847 290.742c-22.633-56.776-120.807-64.448-141.867-56.053s-32.1 30.332-24.659 48.998c2.622 6.578 7.19 11.869 12.928 15.598 5.346 3.474 6.553 10.689 2.96 15.957-7.207 10.568-9.201 24.411-4.108 37.188s16.064 21.452 28.565 24.163c6.231 1.352 10.319 7.418 8.829 13.617-1.599 6.654-1.274 13.637 1.348 20.215 7.441 18.666 30.545 26.992 51.605 18.596 21.06-8.395 87.032-81.502 64.399-138.279z" fill="url(#SVGID_1_)"/><path d="m343.153 221.258c-22.633-56.776 43.339-129.883 64.399-138.279 21.06-8.395 44.164-.069 51.605 18.597 2.622 6.578 2.947 13.561 1.348 20.215-1.49 6.199 2.598 12.266 8.829 13.617 12.501 2.711 23.471 11.386 28.565 24.163 5.093 12.777 3.1 26.62-4.108 37.188-3.592 5.268-2.386 12.482 2.96 15.956 5.738 3.729 10.306 9.02 12.928 15.598 7.441 18.666-3.599 40.603-24.659 48.998s-119.234.723-141.867-56.053z" fill="url(#SVGID_2_)"/><path d="m57.367 299.125c-1.718 11.642 5.732 17.587 14.044 20.532 7.079 2.509 10.304 10.512 6.914 17.214-4.007 7.922-5.349 17.403 3.852 24.491 8.868 6.833 21.571 5.285 28.445-3.551 6.601-8.483 21.323-41.032 14.665-49.698-1.13-10.87-34.206-24.364-44.833-25.98-11.068-1.683-21.453 5.917-23.087 16.992z" fill="#00bfd7"/><path d="m429.828 150.648c9.256 7.267 7.938 16.707 3.932 24.563-3.412 6.691-.247 14.718 6.824 17.25 8.358 2.993 15.854 8.951 14.054 20.425-1.736 11.06-12.02 18.675-23.087 16.992-10.627-1.616-43.704-15.111-44.833-25.98-6.658-8.666 8.064-41.215 14.665-49.698 6.874-8.836 19.64-10.465 28.445-3.552z" fill="#00bfd7"/><path d="m405.642 196.347c25.129 63.038-22.778 141.359-107.004 174.934-84.226 33.576-172.876 9.692-198.005-53.346s22.778-141.358 107.004-174.934 172.876-9.692 198.005 53.346z" fill="url(#SVGID_3_)"/><path d="m405.642 196.347c-9.432-23.66-27.813-41.805-51.549-53.466-24.283 88.347-104.93 152.46-123.231 243.379 22.026-1.056 45.061-5.924 67.776-14.979 3.435-1.369 6.797-2.807 10.109-4.322 26.041-58.79 96.895-170.612 96.895-170.612z" fill="url(#SVGID_4_)"/><path d="m279.712 127.856c-23.317.595-47.877 5.498-72.075 15.144-10.59 53.946-82.267 112.69-107.004 174.934 9.92 24.885 29.742 43.67 55.281 55.226 23.435-89.428 105.155-153.814 123.798-245.304z" fill="url(#SVGID_5_)"/><ellipse cx="177.174" cy="307.251" fill="#f46285" rx="14.936" ry="12.003" transform="matrix(.896 -.445 .445 .896 -118.243 110.979)"/><ellipse cx="334.572" cy="229.013" fill="#f46285" rx="14.936" ry="12.003" transform="matrix(.896 -.445 .445 .896 -66.965 172.861)"/><path d="m260.408 277.254c-5.773 2.87-12.505 3.81-19.241 2.345-6.247-1.359-10.21-7.524-8.851-13.771 1.358-6.248 7.524-10.209 13.771-8.851 2.801.609 5.599-.782 6.804-3.382 2.687-5.799 9.569-8.322 15.37-5.634 5.8 2.689 8.322 9.57 5.634 15.37-2.901 6.254-7.714 11.053-13.487 13.923z" fill="#383842"/><path d="m188.687 272.883c6.05-3.007 12.287-4.538 17.985-4.689 5.816-.155 10.293-4.839 5.918-13.641-6.608-13.294-23.57-18.309-37.229-12.492-15.822 6.739-22.506 25.276-14.962 40.454 4.007 8.062 10.011 6.747 13.03 2.727 3.593-4.785 8.823-9.161 15.258-12.359z" fill="#fff"/><path d="m188.687 272.883c5.306-2.638 10.756-4.138 15.861-4.571-.132-2.312-.723-4.633-1.819-6.838-4.339-8.73-14.934-12.289-23.664-7.95-8.73 4.34-12.289 14.935-7.95 23.665 1.096 2.205 2.589 4.077 4.353 5.578 3.426-3.808 7.912-7.246 13.219-9.884z" fill="#383842"/><path d="m300.249 217.428c6.05-3.007 12.287-4.538 17.985-4.689 5.816-.155 10.293-4.839 5.918-13.641-6.608-13.294-23.57-18.31-37.229-12.492-15.822 6.739-22.506 25.276-14.962 40.454 4.007 8.062 10.011 6.747 13.03 2.727 3.593-4.785 8.823-9.16 15.258-12.359z" fill="#fff"/><path d="m300.249 217.428c5.306-2.638 10.756-4.138 15.861-4.571-.132-2.312-.723-4.633-1.819-6.838-4.339-8.73-14.934-12.289-23.665-7.95-8.73 4.339-12.289 14.934-7.95 23.665 1.096 2.205 2.589 4.077 4.353 5.578 3.427-3.808 7.913-7.246 13.22-9.884z" fill="#383842"/><path d="m254.043 264.45c-6.19 3.077-9.048 9.914-6.385 15.272.092.186.202.357.306.534 4.382-.072 8.624-1.104 12.444-3.002 3.819-1.898 7.203-4.657 9.906-8.107-.079-.189-.149-.38-.241-.566-2.664-5.358-9.841-7.208-16.03-4.131z" fill="#ff737d"/><path d="m295.689 345.053c-3.765 0-7.369-2.135-9.067-5.77-2.337-5.004-.175-10.955 4.829-13.292 2.855-1.333 5.693-2.756 8.439-4.228 4.866-2.612 10.928-.781 13.539 4.086 2.61 4.867.781 10.929-4.086 13.539-3.07 1.645-12.237 5.665-13.654 5.665z" fill="#ffdeed"/><path d="m200.831 360.12c-5.463-.812-9.233-5.899-8.421-11.361s5.895-9.236 11.361-8.421c4.906.729 30.58 4.024 54.318-2.746 5.308-1.514 10.845 1.563 12.358 6.874 1.515 5.312-1.513 11.032-6.874 12.359-31.525 7.804-59.859 3.724-62.742 3.295z" fill="#e6fdff"/><path d="m263.573 356.825c5.361-1.327 8.389-7.048 6.874-12.359-1.514-5.311-7.051-8.388-12.358-6.874-4.087 1.165-8.239 2.034-12.325 2.667-2.992 6.781-5.707 13.675-8.083 20.721 8.013-.647 16.821-1.909 25.892-4.155z" fill="#ffdeed"/></svg>