<svg id="Layer_1" enable-background="new 0 0 512 512" height="512" viewBox="0 0 512 512" width="512" xmlns="http://www.w3.org/2000/svg" xmlns:xlink="http://www.w3.org/1999/xlink"><linearGradient id="SVGID_1_" gradientUnits="userSpaceOnUse" x1="99.109" x2="280.927" y1="103.479" y2="103.479"><stop offset="0" stop-color="#dd6642"/><stop offset="1" stop-color="#e7896e"/></linearGradient><linearGradient id="SVGID_2_" gradientUnits="userSpaceOnUse" x1="94.221" x2="291.895" y1="56.284" y2="56.284"><stop offset="0" stop-color="#a34325"/><stop offset="1" stop-color="#b24e2f"/></linearGradient><linearGradient id="SVGID_3_" gradientUnits="userSpaceOnUse" x1="231.074" x2="412.891" y1="103.479" y2="103.479"><stop offset="0" stop-color="#ffde55"/><stop offset="1" stop-color="#ffefab"/></linearGradient><linearGradient id="SVGID_4_" gradientUnits="userSpaceOnUse" x1="255.026" x2="256.043" y1="437.603" y2="497.636"><stop offset="0" stop-color="#00bfd7"/><stop offset="1" stop-color="#3ccbde"/></linearGradient><linearGradient id="SVGID_5_" gradientUnits="userSpaceOnUse" x1="99.111" x2="412.887" y1="302.309" y2="302.309"><stop offset="0" stop-color="#3ccbde"/><stop offset="1" stop-color="#81d9e7"/></linearGradient><linearGradient id="SVGID_6_" gradientUnits="userSpaceOnUse" x1="69.644" x2="442.357" y1="181.93" y2="181.93"><stop offset="0" stop-color="#81d9e7"/><stop offset="1" stop-color="#b5e9f1"/></linearGradient><linearGradient id="SVGID_7_" gradientUnits="userSpaceOnUse" x1="226.426" x2="418.709" y1="56.284" y2="56.284"><stop offset="0" stop-color="#ff97bd"/><stop offset="1" stop-color="#ffb0d0"/></linearGradient><circle cx="190.018" cy="103.479" fill="url(#SVGID_1_)" r="90.909"/><path d="m190.018 0c-40.715 0-76.009 23.637-92.889 57.908-6.081 12.347-2.385 27.389 8.839 35.354 13.007 9.229 33.943 19.306 63.357 19.306 45.504 0 45.504-35.116 91.008-35.116 13.905 0 23.558 3.281 31.562 7.835-8.621-48.414-51.024-85.287-101.877-85.287z" fill="url(#SVGID_2_)"/><circle cx="321.982" cy="103.479" fill="url(#SVGID_3_)" r="90.909"/><path d="m293.991 79.153v-62.191c-36.51 11.805-62.918 46.077-62.918 86.517 0 3.976.255 7.892.75 11.734 15.013-5.032 33.671-4.63 53.371 7.261 9.338 5.637 21.483 2.661 27.228-6.611 0 0 10.146-14.421-4.889-26.414z" fill="#ffcd00"/><path d="m298.753 468.896c-10.623-4.829-17.443-15.421-17.443-27.089v-35.201h-50.616v35.201c0 11.669-6.82 22.261-17.443 27.089l-21.085 9.584c-11.547 5.167-10.286 15.974-10.286 15.974 0 9.69 7.856 17.546 17.546 17.546h113.151c9.691 0 17.546-7.856 17.546-17.546 0 0 0-12.036-10.286-15.974z" fill="url(#SVGID_4_)"/><path d="m99.111 179.574c15.564 23.386 30.615 57.459 31.366 102.328 1.578 94.242 38.925 143.143 125.523 143.143s123.946-48.902 125.523-143.143c.751-44.867 15.8-78.938 31.363-102.324z" fill="url(#SVGID_5_)"/><path d="m256 405.045c-5.523 0-10-4.477-10-10s4.477-10 10-10c7.983 0 26.68 0 43.713-7.38 5.066-2.195 10.955.132 13.151 5.2 2.195 5.068-.133 10.956-5.2 13.151-20.838 9.029-42.439 9.029-51.664 9.029z" fill="#e6fdff"/><path d="m215.518 399.989c-5.065-1.161-9.731-3.178-14.076-5.203-5.005-2.333-7.172-8.283-4.838-13.289 2.333-5.006 8.28-7.172 13.289-4.838 3.393 1.582 7.133 2.961 11.119 4.1 5.311 1.517 8.386 7.052 6.868 12.362-1.255 4.392-4.542 8.661-12.362 6.868z" fill="#e6fdff"/><path d="m99.111 179.574c11.252 16.906 22.236 39.403 27.742 67.521 42.276 9.949 101.56 16.649 142.966 14.822 10.487-.463 18.84-8.903 18.84-19.401 0 0 0-19.883-19.462-19.405-13.145.323-33.091-.95-60.222-4.78v-38.756z" fill="#00bfd7"/><path d="m256 227.087c-55.62 0-110.642-8.715-163.539-25.902-17.338-5.634-26.826-24.255-21.193-41.593 5.632-17.337 24.248-26.829 41.593-21.193 46.299 15.044 94.458 22.671 143.139 22.671s96.84-7.628 143.139-22.671c17.343-5.633 35.96 3.856 41.594 21.193 5.632 17.338-3.855 35.959-21.193 41.593-52.898 17.187-107.92 25.902-163.54 25.902z" fill="url(#SVGID_6_)"/><path d="m321.982 0c-41.927 0-78.106 25.066-94.346 60.999-4.626 10.235 4.748 21.16 15.64 18.418 4.927-1.24 10.523-1.964 17.057-1.964 45.506 0 45.506 35.116 91.012 35.116 25.597 0 43.841-8.698 55.486-17.089 11.058-7.968 14.967-22.561 9.291-34.952-16.345-35.682-52.395-60.528-94.14-60.528z" fill="url(#SVGID_7_)"/><circle cx="396.278" cy="39.672" fill="#ff737d" r="16.612"/><circle cx="321.982" cy="56.284" fill="#ffde55" r="16.612"/><circle cx="120.771" cy="31.557" fill="#b2e59c" r="16.612"/><ellipse cx="168.113" cy="336.065" fill="#ffb0d0" rx="14.936" ry="12.003"/><ellipse cx="343.884" cy="336.065" fill="#ffb0d0" rx="14.936" ry="12.003"/><circle cx="193.72" cy="306.447" fill="#fff" r="29.618"/><circle cx="318.277" cy="306.447" fill="#fff" r="29.618"/><g fill="#383842"><circle cx="193.72" cy="306.447" r="17.652"/><circle cx="318.278" cy="306.447" r="17.652"/><path d="m255.999 339.525c-5.851 0-11.702-2.213-16.476-6.638-3.038-2.816-3.217-7.561-.401-10.599 2.817-3.037 7.562-3.217 10.599-.401 3.755 3.481 8.8 3.481 12.555 0 3.038-2.817 7.783-2.637 10.599.401s2.637 7.783-.401 10.599c-4.773 4.425-10.624 6.638-16.475 6.638z"/></g></svg>