<svg id="Layer_1" enable-background="new 0 0 512 512" height="512" viewBox="0 0 512 512" width="512" xmlns="http://www.w3.org/2000/svg" xmlns:xlink="http://www.w3.org/1999/xlink"><linearGradient id="SVGID_1_" gradientUnits="userSpaceOnUse" x1="39.278" x2="471.961" y1="366.391" y2="366.391"><stop offset="0" stop-color="#ffde55"/><stop offset="1" stop-color="#ffefab"/></linearGradient><linearGradient id="SVGID_2_" gradientUnits="userSpaceOnUse" x1="41.896" x2="470.105" y1="150.292" y2="150.292"><stop offset="0" stop-color="#ff9827"/><stop offset="1" stop-color="#ffac48"/></linearGradient><linearGradient id="SVGID_3_" gradientUnits="userSpaceOnUse" x1="0" x2="512" y1="255.71" y2="255.71"><stop offset="0" stop-color="#ffac48"/><stop offset="1" stop-color="#ffc477"/></linearGradient><path d="m39.278 285.845 32.262 110.562c8.588 29.917 35.95 50.53 67.075 50.53h234.77c31.125 0 58.488-20.613 67.075-50.53l31.501-110.561h-432.683z" fill="url(#SVGID_1_)"/><path d="m57.237 347.393c12.236-.317 23.489-4.389 32.527-11.067 9.502-7.021 22.52-7.021 32.023 0 9.416 6.957 21.232 11.098 34.063 11.098s24.647-4.141 34.064-11.098c9.502-7.021 22.326-6.75 32.022 0 21.988 15.306 48.407 9.896 54.745 7.312 13.382-5.455 13.382-20.798 13.382-20.798 0-12.584-10.946-22.323-23.453-20.935l-27.753-16.06h-199.579z" fill="#ffcd00"/><path d="m41.896 235.52h428.209s-23.187-170.456-214.104-170.456-214.105 170.456-214.105 170.456z" fill="url(#SVGID_2_)"/><path d="m456.299 202.562c-12.831 0-24.647 4.141-34.063 11.097-9.25 6.834-22.773 6.834-32.023 0-9.416-6.957-21.232-11.097-34.063-11.097s-24.647 4.141-34.063 11.097c-9.25 6.834-22.773 6.834-32.023 0-9.416-6.957-21.232-11.097-34.063-11.097s-24.647 4.141-34.063 11.097c-9.25 6.834-22.773 6.834-32.023 0-9.416-6.957-21.232-11.097-34.063-11.097s-24.647 4.141-34.063 11.097c-9.25 6.834-22.773 6.834-32.023 0-9.416-6.957-21.232-11.097-34.063-11.097-30.765 0-55.703 23.795-55.703 53.148s24.938 53.148 55.701 53.148c12.831 0 24.647-4.141 34.063-11.098 9.25-6.834 22.773-6.834 32.023 0 9.416 6.957 21.232 11.098 34.063 11.098s24.647-4.141 34.063-11.098c9.25-6.834 22.773-6.834 32.023 0 9.416 6.957 21.232 11.098 34.063 11.098s24.647-4.141 34.063-11.098c9.25-6.834 22.773-6.834 32.023 0 9.416 6.957 21.232 11.098 34.063 11.098s24.647-4.141 34.063-11.098c9.25-6.834 22.773-6.834 32.023 0 9.416 6.957 21.232 11.098 34.063 11.098 30.763 0 55.701-23.795 55.701-53.148.002-29.353-24.936-53.148-55.699-53.148z" fill="url(#SVGID_3_)"/><g fill="#dd6642"><ellipse cx="256" cy="145.097" rx="13.547" ry="20.439"/><ellipse cx="183.433" cy="124.658" rx="13.547" ry="20.439" transform="matrix(.707 .707 -.707 .707 141.873 -93.195)"/><ellipse cx="328.567" cy="124.658" rx="13.547" ry="20.439" transform="matrix(-.707 .707 -.707 -.707 649.045 -19.529)"/></g><ellipse cx="168.115" cy="414.559" fill="#ffb0d0" rx="14.936" ry="12.003"/><ellipse cx="343.886" cy="414.559" fill="#ffb0d0" rx="14.936" ry="12.003"/><circle cx="193.721" cy="384.941" fill="#fff" r="29.618"/><circle cx="205.687" cy="384.941" fill="#383842" r="17.652"/><circle cx="318.279" cy="384.941" fill="#fff" r="29.618"/><circle cx="330.182" cy="384.941" fill="#383842" r="17.652"/><ellipse cx="256" cy="407.394" fill="#383842" rx="13.252" ry="17.352"/></svg>