<svg id="Layer_1" enable-background="new 0 0 512 512" height="512" viewBox="0 0 512 512" width="512" xmlns="http://www.w3.org/2000/svg" xmlns:xlink="http://www.w3.org/1999/xlink"><linearGradient id="SVGID_1_" gradientUnits="userSpaceOnUse" x1="14.56" x2="497.44" y1="269.571" y2="269.571"><stop offset="0" stop-color="#ffac48"/><stop offset="1" stop-color="#ffc477"/></linearGradient><path d="m497.44 269.71c0 128.629-87.702 217.792-239.717 239.717-151.906 21.91-210.484-99.394-239.718-239.717-27.002-129.609 109.559-263.933 239.718-239.717 188.558 35.08 239.717 107.325 239.717 239.717z" fill="url(#SVGID_1_)"/><g fill="#dd6642"><path d="m323.677 53.021c0 28.847-21.202 42.019-52.231 52.231-27.401 9.018-52.231-23.385-52.231-52.231s24.019-58.248 52.231-52.231c41.948 8.947 52.231 23.385 52.231 52.231z"/><path d="m497.44 365.389c0 28.846-25.729 45.004-52.231 52.231-27.83 7.589-52.231-23.385-52.231-52.231s23.935-57.84 52.231-52.231c37.46 7.426 52.231 30.895 52.231 52.231z"/><path d="m145.441 177.511c0 22.538-18.27 40.808-40.808 40.808-22.537 0-46.53-8.196-40.808-40.808 4.736-26.988 18.27-40.808 40.808-40.808 22.537 0 40.808 18.27 40.808 40.808z"/><path d="m451.282 218.186c0 14.12-12.484 23.343-25.568 25.568-13.921 2.367-25.568-11.447-25.568-25.568s11.447-25.567 25.568-25.567c14.121-.001 25.568 5.433 25.568 25.567z"/><path d="m275.047 387.448c0 21.169-5.642 38.331-38.331 38.331-21.169 0-38.331-17.161-38.331-38.331s9.38-42.837 38.331-38.331c20.918 3.256 38.331 17.162 38.331 38.331z"/></g><ellipse cx="168.114" cy="285.966" fill="#ff85ab" rx="14.936" ry="12.003"/><ellipse cx="343.885" cy="285.966" fill="#ff85ab" rx="14.936" ry="12.003"/><circle cx="193.721" cy="256.348" fill="#fff" r="29.618"/><circle cx="181.756" cy="256.348" fill="#383842" r="17.652"/><circle cx="318.279" cy="256.348" fill="#fff" r="29.618"/><circle cx="306.313" cy="256.348" fill="#383842" r="17.652"/><path d="m263.59 263.542h-15.181c-3.007 0-5.658 1.976-6.506 4.862-2.672 9.09-5.742 27.748 14.097 27.748 19.838 0 16.769-18.659 14.097-27.748-.849-2.885-3.499-4.862-6.507-4.862z" fill="#383842"/><path d="m243.793 291.952c2.462 2.549 6.32 4.2 12.207 4.2s9.746-1.651 12.207-4.2c-1.247-4.845-6.234-8.47-12.207-8.47s-10.96 3.625-12.207 8.47z" fill="#ff737d"/></svg>