<svg id="Layer_1" enable-background="new 0 0 512 512" height="512" viewBox="0 0 512 512" width="512" xmlns="http://www.w3.org/2000/svg" xmlns:xlink="http://www.w3.org/1999/xlink"><linearGradient id="SVGID_1_" gradientUnits="userSpaceOnUse" x1="160.719" x2="273.188" y1="90.189" y2="90.189"><stop offset="0" stop-color="#ff737d"/><stop offset="1" stop-color="#ff929f"/></linearGradient><linearGradient id="SVGID_2_" gradientUnits="userSpaceOnUse" x1="72.996" x2="182.899" y1="55.69" y2="55.69"><stop offset="0" stop-color="#3ccbde"/><stop offset="1" stop-color="#81d9e7"/></linearGradient><linearGradient id="SVGID_3_" gradientUnits="userSpaceOnUse" x1="60.799" x2="193.23" y1="111.161" y2="111.161"><stop offset="0" stop-color="#81d9e7"/><stop offset="1" stop-color="#b5e9f1"/></linearGradient><linearGradient id="SVGID_4_" gradientUnits="userSpaceOnUse" x1="79.77" x2="464.883" y1="357.518" y2="357.518"><stop offset="0" stop-color="#ffd097"/><stop offset="1" stop-color="#ffe6ae"/></linearGradient><linearGradient id="SVGID_5_" gradientUnits="userSpaceOnUse" x1="75.959" x2="489.71" y1="407.202" y2="407.202"><stop offset="0" stop-color="#ff97bd"/><stop offset="1" stop-color="#ffb0d0"/></linearGradient><linearGradient id="SVGID_6_" gradientUnits="userSpaceOnUse" x1="78.732" x2="479.039" y1="328.932" y2="325.095"><stop offset="0" stop-color="#dd6642"/><stop offset="1" stop-color="#e7896e"/></linearGradient><path d="m273.188 110.004c0 31.057-25.177 56.234-56.234 56.234s-56.234-25.177-56.234-56.234 25.177-95.866 56.234-95.866c31.057 0 56.234 64.809 56.234 95.866z" fill="url(#SVGID_1_)"/><g fill="#73727c"><circle cx="216.954" cy="66.152" r="14.591"/><circle cx="240.32" cy="113.203" r="14.591"/><circle cx="193.588" cy="113.203" r="14.591"/></g><path d="m173.109 111.161s32.906-43.143-21.937-69.468c-21.781-10.455-33.643-22.294-40.029-32.768-7.635-12.522-26.257-11.755-32.319 1.6-6.805 14.992-9.447 35.452 2.149 61.15-.001-.001 8.043 43.142 92.136 39.486z" fill="url(#SVGID_2_)"/><path d="m75.122 150.648s-35.831-41.681 5.85-78.975c0 1.463 22.669 22.669 73.856 24.862 51.187 2.194 46.068 54.112 14.625 54.112-32.906.001-94.331.001-94.331.001z" fill="url(#SVGID_3_)"/><path d="m464.883 203.037h-385.113v308.963h328.863c31.066 0 56.251-25.184 56.251-56.251v-252.712z" fill="url(#SVGID_4_)"/><path d="m284.733 226.963h-194.672v145.152h45.866v-81.674c0-15.728 12.75-28.478 28.478-28.478h120.328c9.665 0 17.5-7.835 17.5-17.5 0-9.665-7.835-17.5-17.5-17.5z" fill="#ffc477"/><path d="m91.881 512h43.905v-21.674c0-11.587 9.202-21.232 20.788-21.438 7.16-.128 13.931 2.303 17.181 4.895 7.843 6.256 17.781 9.995 28.594 9.995 10.837 0 20.796-3.757 28.647-10.038 6.783-5.427 16.41-5.427 23.192 0 7.851 6.281 17.81 10.038 28.647 10.038 6.035 0 11.797-1.165 17.075-3.282 7.065-2.834 11.572-9.831 11.572-17.443 0 0 1.142-19.225-19.281-18.924-7.993.118-17.435-3.756-26.218-16.916h-174.103z" fill="#ffc477"/><path d="m444.441 361.303c-11.001-.148-21.127 3.575-29.104 9.893-6.821 5.402-16.571 5.582-23.364.145-7.852-6.284-17.812-10.042-28.652-10.042-10.837 0-20.796 3.757-28.647 10.038-6.729 5.384-16.464 5.384-23.193 0-7.851-6.281-17.81-10.038-28.647-10.038s-20.795 3.757-28.647 10.038c-6.729 5.384-16.464 5.384-23.193 0-7.851-6.281-17.809-10.038-28.647-10.038-10.84 0-20.8 3.758-28.652 10.042-6.794 5.437-16.543 5.258-23.364-.145-7.977-6.318-18.102-10.041-29.103-9.893-25.114.339-45.545 21.302-45.267 46.417.278 25.113 20.722 45.386 45.9 45.386 10.837 0 20.796-3.757 28.647-10.038 6.729-5.384 16.464-5.384 23.193 0 7.851 6.281 17.81 10.038 28.647 10.038s20.795-3.757 28.647-10.038c6.729-5.384 16.464-5.384 23.193 0 7.851 6.281 17.809 10.038 28.647 10.038 10.837 0 20.796-3.757 28.647-10.038 6.729-5.384 16.464-5.384 23.193 0 7.851 6.281 17.81 10.038 28.647 10.038s20.795-3.757 28.647-10.038c6.729-5.384 16.464-5.384 23.193 0 7.851 6.281 17.81 10.038 28.647 10.038 25.179 0 45.622-20.272 45.9-45.385.277-25.115-20.154-46.079-45.268-46.418z" fill="url(#SVGID_5_)"/><path d="m448.412 145.663h-370.429c-30.759 0-55.694 24.935-55.694 55.694v264.778c.001 25.33 20.536 45.865 45.867 45.865h32.63v-263.398c0-11.951 9.688-21.639 21.639-21.639h325.987c22.45 0 40.65-18.2 40.65-40.65 0-22.451-18.199-40.65-40.65-40.65z" fill="url(#SVGID_6_)"/><ellipse cx="194.949" cy="319.767" fill="#ffb0d0" rx="14.936" ry="12.003"/><ellipse cx="370.72" cy="319.767" fill="#ffb0d0" rx="14.936" ry="12.003"/><circle cx="220.556" cy="290.15" fill="#fff" r="29.618"/><circle cx="345.113" cy="290.15" fill="#fff" r="29.618"/><path d="m207.166 299.651c-3.515-2.192-4.955-6.556-2.959-10.186 3.279-5.963 9.544-9.668 16.349-9.668 6.806 0 13.07 3.705 16.348 9.669 1.996 3.629.67 8.19-2.96 10.185-3.628 1.996-8.19.67-10.185-2.959-.94-1.71-2.554-1.895-3.204-1.895s-2.264.184-3.204 1.895c-1.365 2.484-5.433 5.922-10.185 2.959z" fill="#383842"/><path d="m348.318 296.692c-.94-1.711-2.554-1.895-3.205-1.895-.65 0-2.264.184-3.204 1.895-1.996 3.629-6.555 4.956-10.185 2.959-3.63-1.995-4.955-6.556-2.96-10.185 3.278-5.964 9.543-9.669 16.348-9.669 6.806 0 13.07 3.704 16.349 9.668 1.996 3.63.532 7.956-2.959 10.186-4.889 3.124-8.819-.475-10.184-2.959z" fill="#383842"/><path d="m294.505 329.954h-23.342c-6.508 0-11.784-5.276-11.784-11.784 0-6.508 5.276-11.784 11.784-11.784h23.342c6.508 0 11.784 5.276 11.784 11.784.001 6.508-5.275 11.784-11.784 11.784z" fill="#383842"/><path d="m271.164 329.954h23.341s.803-10.834-11.671-10.834-11.67 10.834-11.67 10.834z" fill="#ff737d"/><path d="m360.098 185.615h-77.264c-5.523 0-10-4.477-10-10s4.477-10 10-10h77.264c5.523 0 10 4.477 10 10s-4.477 10-10 10z" fill="#f8cfc5"/><path d="m415.132 185.615h-18.557c-5.523 0-10-4.477-10-10s4.477-10 10-10h18.557c5.523 0 10 4.477 10 10s-4.477 10-10 10z" fill="#f8cfc5"/><path d="m100.786 366.486v81.505c6.313 3.27 13.476 5.115 21.076 5.115 4.908 0 9.632-.769 14.065-2.195v-87.417c-4.624-1.488-9.563-2.26-14.698-2.191-7.352.099-14.296 1.963-20.443 5.183z" fill="#ff85ab"/></svg>