<svg id="Layer_1" enable-background="new 0 0 512 512" height="512" viewBox="0 0 512 512" width="512" xmlns="http://www.w3.org/2000/svg" xmlns:xlink="http://www.w3.org/1999/xlink"><linearGradient id="lg1"><stop offset="0" stop-color="#81d9e7"/><stop offset="1" stop-color="#b5e9f1"/></linearGradient><linearGradient id="SVGID_1_" gradientUnits="userSpaceOnUse" x1="187.294" x2="189.439" xlink:href="#lg1" y1="138.601" y2="50.655"/><linearGradient id="SVGID_2_" gradientUnits="userSpaceOnUse" x1="313.034" x2="315.179" xlink:href="#lg1" y1="141.667" y2="53.722"/><linearGradient id="SVGID_3_" gradientUnits="userSpaceOnUse" x1="252.11" x2="254.255" y1="111.219" y2="47.942"><stop offset="0" stop-color="#ff737d"/><stop offset="1" stop-color="#ff929f"/></linearGradient><linearGradient id="SVGID_4_" gradientUnits="userSpaceOnUse" x1="28.024" x2="479.098" y1="361.621" y2="361.621"><stop offset="0" stop-color="#ffd097"/><stop offset="1" stop-color="#ffe6ae"/></linearGradient><linearGradient id="SVGID_5_" gradientUnits="userSpaceOnUse" x1="0" x2="512" y1="377.828" y2="377.828"><stop offset="0" stop-color="#dd6642"/><stop offset="1" stop-color="#e7896e"/></linearGradient><linearGradient id="SVGID_6_" gradientUnits="userSpaceOnUse" x1="0" x2="504.931" y1="269.8" y2="269.8"><stop offset="0" stop-color="#ff97bd"/><stop offset="1" stop-color="#ffb0d0"/></linearGradient><path d="m217.222 106.319c0 16.094-13.047 29.141-29.141 29.141s-29.141-13.047-29.141-29.141 13.047-43.943 29.141-43.943c16.094.001 29.141 27.849 29.141 43.943z" fill="url(#SVGID_1_)"/><path d="m343.038 106.319c0 16.094-13.047 29.141-29.141 29.141s-29.141-13.047-29.141-29.141 13.047-43.943 29.141-43.943c16.094.001 29.141 27.849 29.141 43.943z" fill="url(#SVGID_2_)"/><path d="m297.796 100.769c0 25.035-20.295 45.33-45.331 45.33-25.035 0-45.331-20.295-45.331-45.33s20.295-74.934 45.331-74.934 45.331 49.898 45.331 74.934z" fill="url(#SVGID_3_)"/><path d="m438.399 486.165h-369.677c-22.477 0-40.699-18.221-40.699-40.699v-208.39h451.074v208.391c.001 22.477-18.22 40.698-40.698 40.698z" fill="url(#SVGID_4_)"/><path d="m28.023 272.029v35.735h37.769c25.647 0 29.412 17.795 29.412 17.795l48.481 3.272s6.169-21.068 31.196-21.068 32.89 21.068 32.89 21.068h41.503s3.555-21.068 27.78-21.068h79.277c9.868 0 17.868-7.999 17.868-17.867 0-9.868-8-17.867-17.868-17.867z" fill="#ffc477"/><path d="m28.023 445.467s12.74 7.629 23.974-.443c8.65-6.215 20.183-6.163 28.881-.016 5.065 3.58 10.922 5.624 17.162 5.624s12.096-2.044 17.162-5.624c8.652-6.115 20.208-6.115 28.86 0 5.065 3.58 10.921 5.624 17.162 5.624 6.24 0 12.096-2.044 17.162-5.624 8.652-6.115 20.208-6.115 28.86 0 5.065 3.58 10.921 5.624 17.162 5.624 6.24 0 12.096-2.044 17.162-5.624 8.652-6.115 20.208-6.115 28.86 0 5.065 3.58 10.387 5.624 17.162 5.624 9.979 0 17.163-7.841 17.163-17.158 0 0 .768-17.109-15.977-17.109-7.712 0-17.156-5.195-25.952-21.363h-234.802z" fill="#ffc477"/><path d="m477.143 334.398c-6.241 0-12.097 2.044-17.163 5.625-8.651 6.115-20.207 6.115-28.858 0-5.066-3.58-10.922-5.625-17.163-5.625s-12.097 2.044-17.163 5.625c-8.651 6.115-20.207 6.115-28.858 0-5.066-3.58-10.922-5.625-17.163-5.625s-12.097 2.044-17.163 5.625c-8.651 6.115-20.207 6.115-28.858 0-5.066-3.58-10.922-5.625-17.163-5.625s-12.097 2.044-17.163 5.625c-8.651 6.115-20.207 6.115-28.858 0-5.066-3.58-10.922-5.625-17.163-5.625s-12.097 2.044-17.163 5.625c-8.651 6.115-20.207 6.115-28.858 0-5.066-3.58-10.922-5.625-17.163-5.625s-12.097 2.044-17.163 5.625c-8.651 6.115-20.207 6.115-28.858 0-5.066-3.58-10.922-5.625-17.163-5.625s-12.097 2.044-17.163 5.625c-8.651 6.115-20.207 6.115-28.858 0-5.066-3.58-10.922-5.625-17.163-5.625-19.249 0-34.855 19.444-34.855 43.43s15.606 43.43 34.857 43.43c6.241 0 12.097-2.044 17.163-5.625 8.651-6.115 20.207-6.115 28.858 0 5.066 3.58 10.922 5.625 17.163 5.625s12.097-2.044 17.163-5.625c8.651-6.115 20.207-6.115 28.858 0 5.066 3.58 10.922 5.625 17.163 5.625s12.097-2.044 17.163-5.625c8.651-6.115 20.207-6.115 28.858 0 5.066 3.58 10.922 5.625 17.163 5.625s12.097-2.044 17.163-5.625c8.651-6.115 20.207-6.115 28.858 0 5.066 3.58 10.922 5.625 17.163 5.625s12.097-2.044 17.163-5.625c8.651-6.115 20.207-6.115 28.858 0 5.066 3.58 10.922 5.625 17.163 5.625s12.097-2.044 17.163-5.625c8.651-6.115 20.207-6.115 28.858 0 5.066 3.58 10.922 5.625 17.163 5.625s12.097-2.044 17.163-5.625c8.651-6.115 20.207-6.115 28.858 0 5.066 3.58 10.922 5.625 17.163 5.625 19.251 0 34.857-19.444 34.857-43.43-.002-23.986-15.608-43.43-34.859-43.43z" fill="url(#SVGID_5_)"/><path d="m439.009 120.59h-373.087c-36.408 0-65.922 29.514-65.922 65.921v47.668c0 20.904 16.946 37.85 37.85 37.85h29.213c20.096 0 35.084 18.435 31.066 38.125-6.298 30.864-10.187 63.936-10.187 73.6 0 19.471 15.785 35.256 35.256 35.256s35.256-15.785 35.256-35.256c0-10.098-4.246-45.752-11.049-77.739-3.721-17.493 9.275-33.986 27.419-33.986s30.604 15.742 27.628 32.931c-3.288 18.991-5.231 36.651-5.231 42.614 0 14.835 12.026 26.86 26.86 26.86s26.86-12.026 26.86-26.86c0-5.535-1.674-21.147-4.543-38.546-3.194-19.367 11.653-36.999 31.281-36.999h189.402c20.904 0 37.85-16.946 37.85-37.85v-47.668c0-36.407-29.515-65.921-65.922-65.921z" fill="url(#SVGID_6_)"/><path d="m469.931 240.396c-5.522 0-10-4.477-10-10v-5.799c0-5.523 4.478-10 10-10s10 4.477 10 10v5.799c0 5.523-4.478 10-10 10zm0-43.885c-5.522 0-10-4.477-10-10 0-11.536-9.386-20.922-20.922-20.922h-29.798c-5.522 0-10-4.477-10-10s4.478-10 10-10h29.798c22.564 0 40.922 18.357 40.922 40.922 0 5.523-4.478 10-10 10z" fill="#ffdeed"/><g fill="#f46285"><ellipse cx="164.58" cy="226.615" rx="14.936" ry="12.003"/><ellipse cx="340.351" cy="226.615" rx="14.936" ry="12.003"/><circle cx="190.187" cy="197.035" r="29.58"/></g><path d="m160.606 198.484c.774 15.667 13.721 28.132 29.58 28.132s28.806-12.465 29.58-28.132z" fill="#fff"/><path d="m172.601 198.484c.755 9.053 8.337 16.166 17.586 16.166 9.248 0 16.83-7.113 17.585-16.166z" fill="#383842"/><circle cx="314.744" cy="197.035" fill="#f46285" r="29.58"/><path d="m285.164 198.484c.774 15.667 13.721 28.132 29.58 28.132s28.806-12.465 29.58-28.132z" fill="#fff"/><path d="m297.159 198.484c.755 9.053 8.337 16.166 17.585 16.166s16.83-7.113 17.586-16.166z" fill="#383842"/><path d="m258.743 228.061c-3.755-3.482-8.8-3.482-12.555 0-3.038 2.816-7.783 2.636-10.599-.401-2.816-3.038-2.637-7.783.401-10.599 9.547-8.851 23.404-8.851 32.951 0 3.038 2.816 3.316 7.657.401 10.599-4.314 4.353-9.156 1.739-10.599.401z" fill="#383842"/><circle cx="234.057" cy="96.937" fill="#73727c" r="11.455"/><circle cx="270.873" cy="96.937" fill="#73727c" r="11.455"/><circle cx="252.465" cy="63.627" fill="#73727c" r="11.455"/></svg>