<svg id="Layer_1" enable-background="new 0 0 512 512" height="512" viewBox="0 0 512 512" width="512" xmlns="http://www.w3.org/2000/svg" xmlns:xlink="http://www.w3.org/1999/xlink"><linearGradient id="SVGID_1_" gradientUnits="userSpaceOnUse" x1="128" x2="512" y1="264.866" y2="264.866"><stop offset="0" stop-color="#ffc477"/><stop offset="1" stop-color="#ffd097"/></linearGradient><linearGradient id="SVGID_2_" gradientUnits="userSpaceOnUse" x1="128" x2="508.758" y1="200.699" y2="200.699"><stop offset="0" stop-color="#dd6642"/><stop offset="1" stop-color="#e7896e"/></linearGradient><linearGradient id="SVGID_3_" gradientUnits="userSpaceOnUse" x1="0" x2="256" y1="264.866" y2="264.866"><stop offset="0" stop-color="#ffd097"/><stop offset="1" stop-color="#ffe6ae"/></linearGradient><path d="m368.975 121.679h-240.975l3.738 286.374h315.573c23.895 0 45.41-15.607 54.352-39.456 6.666-17.778 10.337-37.203 10.337-57.553 0-85.016-64.035-189.365-143.025-189.365z" fill="url(#SVGID_1_)"/><path d="m235.568 242.611v12.038c0 30.075 24.589 55.819 54.663 56.16 15.938.181 30.338-6.385 40.536-17.017 5.681-5.923 15.158-5.825 20.852.086 10.055 10.439 24.172 16.934 39.812 16.934 12.258 0 23.697-3.835 32.745-10.742 7.423-5.667 7.419-14.639 7.419-14.639 0-12.367-12.08-21.026-23.842-17.207-9.597 3.116-19.962 3.378-26.686-5.378l-.464-20.236h-145.035z" fill="#ffac48"/><path d="m508.758 276.61c-13.945-76.34-71.232-154.93-139.783-154.93h-240.975l1.282 98.238 106.285.28c0 32.873 24.76 59.522 55.304 59.522 15.683 0 29.834-7.03 39.895-18.319 5.651-6.342 15.118-6.342 20.77 0 10.06 11.289 24.212 18.319 39.895 18.319 15.823 0 30.088-7.156 40.164-18.623 5.567-6.335 14.862-6.211 20.665-.126 11.83 12.404 30.832 20.463 56.498 15.639z" fill="url(#SVGID_2_)"/><path d="m198.107 408.054c21.385 0 40.64-15.607 48.642-39.456 5.966-17.779 9.251-37.204 9.251-57.553 0-85.016-57.308-189.365-128-189.365s-128 104.349-128 189.365c0 20.349 3.285 39.774 9.251 57.553 8.003 23.849 27.257 39.456 48.642 39.456z" fill="url(#SVGID_3_)"/><circle cx="128" cy="273.26" fill="#dd6642" r="59.493"/><ellipse cx="287.018" cy="377.853" fill="#ffb0d0" rx="14.936" ry="12.003"/><ellipse cx="462.789" cy="377.853" fill="#ffb0d0" rx="14.936" ry="12.003"/><circle cx="312.625" cy="348.235" fill="#fff" r="29.618"/><circle cx="324.591" cy="348.235" fill="#383842" r="17.652"/><circle cx="437.183" cy="348.235" fill="#fff" r="29.618"/><circle cx="449.086" cy="348.235" fill="#383842" r="17.652"/><path d="m283.045 346.749c.774-15.667 13.721-28.132 29.58-28.132s28.806 12.465 29.58 28.132z" fill="#ffac48"/><path d="m407.64 346.749c.774-15.667 13.721-28.132 29.58-28.132s28.806 12.465 29.58 28.132z" fill="#ffac48"/><path d="m384.584 377.122h-19.323c-4.142 0-7.5-3.358-7.5-7.5s3.358-7.5 7.5-7.5h19.323c4.142 0 7.5 3.358 7.5 7.5s-3.358 7.5-7.5 7.5z" fill="#383842"/><ellipse cx="347.826" cy="122.999" fill="#b2e59c" rx="17.702" ry="19.052"/><ellipse cx="306.938" cy="183.91" fill="#ffc7de" rx="17.702" ry="19.053"/><ellipse cx="407.565" cy="183.91" fill="#b5e9f1" rx="17.702" ry="19.053"/><ellipse cx="255.982" cy="122.999" fill="#ffde55" rx="17.702" ry="19.052"/></svg>