<svg id="Layer_1" enable-background="new 0 0 512 512" height="512" viewBox="0 0 512 512" width="512" xmlns="http://www.w3.org/2000/svg" xmlns:xlink="http://www.w3.org/1999/xlink"><linearGradient id="lg1"><stop offset="0" stop-color="#ffac48"/><stop offset="1" stop-color="#ffc477"/></linearGradient><linearGradient id="SVGID_1_" gradientUnits="userSpaceOnUse" x1="75.583" x2="44.341" xlink:href="#lg1" y1="331.52" y2="414.831"/><linearGradient id="lg2"><stop offset="0" stop-color="#ffc477"/><stop offset="1" stop-color="#ffd097"/></linearGradient><linearGradient id="SVGID_2_" gradientUnits="userSpaceOnUse" x1="126.012" x2="51.812" xlink:href="#lg2" y1="260.543" y2="329.535"/><linearGradient id="SVGID_3_" gradientUnits="userSpaceOnUse" x1="437.926" x2="462.659" xlink:href="#lg1" y1="337.675" y2="426.193"/><linearGradient id="SVGID_4_" gradientUnits="userSpaceOnUse" x1="372.056" x2="465.782" xlink:href="#lg2" y1="245.908" y2="346.142"/><linearGradient id="SVGID_5_" gradientUnits="userSpaceOnUse" x1="75.655" x2="436.345" y1="214.958" y2="214.958"><stop offset="0" stop-color="#ffd097"/><stop offset="1" stop-color="#ffe6ae"/></linearGradient><path d="m26.762 261.588s-49.689 77.883-13.653 164.641c9.235 22.234 40.436 23.677 51.216 2.15 12.867-25.693 36.148-54.211 78.705-68.958-3.598.633-116.268-97.833-116.268-97.833z" fill="url(#SVGID_1_)"/><path d="m98.411 141.21s-26.164 11.394-56.783 40.597c-31.47 30.015-40.52 76.828-21.871 116.115 11.407 24.031 30.977 50.621 64.416 74.073 18.571 13.025 43.738 10.793 60.218-4.793 16.472-15.578 41.118-32.311 71.334-32.85-.025.299-117.314-193.142-117.314-193.142z" fill="url(#SVGID_2_)"/><path d="m124.117 310.08c9.042-4.041 12.937-14.769 8.596-23.67l-23.5-48.182-10.802-97.018s-24.881 10.838-54.507 38.451c1.775 6.974 4.272 13.818 7.503 20.412l49.833 101.721c4.15 8.472 14.264 12.135 22.877 8.286z" fill="#ffac48"/><path d="m485.238 261.588s49.689 77.883 13.653 164.641c-9.235 22.234-40.436 23.677-51.216 2.15-12.867-25.693-36.148-54.211-78.705-68.958 3.598.633 116.268-97.833 116.268-97.833z" fill="url(#SVGID_3_)"/><path d="m450.168 375.454c6.739 8.128 18.972 8.921 26.638 1.661 13.061-12.368 24.314-25.834 33.702-40.315-5.629-44.421-25.266-75.211-25.266-75.211s-10.436 57.195-35.234 90.691c-8.772 11.848.16 23.174.16 23.174z" fill="#ff9827"/><path d="m413.589 141.21s26.164 11.394 56.783 40.597c31.47 30.015 40.52 76.828 21.871 116.115-11.407 24.031-30.977 50.621-64.416 74.073-18.571 13.025-43.737 10.793-60.218-4.793-16.472-15.578-41.118-32.311-71.334-32.85.026.299 117.314-193.142 117.314-193.142z" fill="url(#SVGID_4_)"/><path d="m294.369 360.331c-25.319-5.528-51.42-5.528-76.737-.001-25.863 5.646-52.23-7.121-63.876-30.893l-70.918-144.762c-19.116-39.02 1.49-86.048 43.253-98.039 42.192-12.113 86.094-18.379 129.909-18.379 43.814 0 87.716 6.266 129.909 18.38 41.763 11.991 62.369 59.019 43.253 98.039l-70.919 144.762c-11.645 23.772-38.012 36.539-63.874 30.893z" fill="url(#SVGID_5_)"/><path d="m324.436 123.921c-22.63-3.722-45.649-5.664-68.436-5.664-5.522 0-10-4.477-10-10s4.478-10 10-10c23.882 0 48.01 1.997 71.714 5.935 5.448.905 9.131 6.055 8.227 11.503-.814 4.894-4.328 9.407-11.505 8.226z" fill="#fff4de"/><path d="m366.622 133.159c-2.099-.543-4.187-1.125-6.285-1.663-5.35-1.372-8.574-6.821-7.202-12.171s6.814-8.577 12.171-7.202c2.196.563 4.391 1.144 6.58 1.741 5.328 1.454 8.469 6.951 7.016 12.279-1.213 4.447-5.125 8.868-12.28 7.016z" fill="#fff4de"/><ellipse cx="168.115" cy="250.231" fill="#ffb0d0" rx="14.936" ry="12.003"/><ellipse cx="343.886" cy="250.231" fill="#ffb0d0" rx="14.936" ry="12.003"/><circle cx="193.721" cy="220.614" fill="#fff" r="29.618"/><circle cx="205.687" cy="220.614" fill="#383842" r="17.652"/><circle cx="318.279" cy="220.614" fill="#fff" r="29.618"/><g fill="#383842"><circle cx="330.182" cy="220.614" r="17.652"/><ellipse cx="256" cy="243.066" rx="13.252" ry="17.352"/></g></svg>