<svg id="Layer_1" enable-background="new 0 0 512 512" height="512" viewBox="0 0 512 512" width="512" xmlns="http://www.w3.org/2000/svg" xmlns:xlink="http://www.w3.org/1999/xlink"><linearGradient id="SVGID_1_" gradientUnits="userSpaceOnUse" x1="270.121" x2="282.014" y1="60.334" y2="12.062"><stop offset="0" stop-color="#8dc971"/><stop offset="1" stop-color="#9ad880"/></linearGradient><linearGradient id="SVGID_2_" gradientUnits="userSpaceOnUse" x1="277.351" x2="327.022" y1="85.198" y2="53.716"><stop offset="0" stop-color="#9ad880"/><stop offset="1" stop-color="#b2e59c"/></linearGradient><linearGradient id="SVGID_3_" gradientUnits="userSpaceOnUse" x1="208.98" x2="275.492" y1="68.547" y2="68.547"><stop offset="0" stop-color="#8049bf"/><stop offset="1" stop-color="#996acc"/></linearGradient><linearGradient id="SVGID_4_" gradientUnits="userSpaceOnUse" x1="164.522" x2="231.035" y1="68.547" y2="68.547"><stop offset="0" stop-color="#996acc"/><stop offset="1" stop-color="#b18cd9"/></linearGradient><linearGradient id="lg1"><stop offset="0" stop-color="#ffd097"/><stop offset="1" stop-color="#ffe6ae"/></linearGradient><linearGradient id="SVGID_5_" gradientUnits="userSpaceOnUse" x1="38.041" x2="473.96" xlink:href="#lg1" y1="255.515" y2="255.515"/><linearGradient id="SVGID_6_" gradientUnits="userSpaceOnUse" x1="38.041" x2="473.96" xlink:href="#lg1" y1="411.745" y2="411.745"/><linearGradient id="lg2"><stop offset="0" stop-color="#ffc477"/><stop offset="1" stop-color="#ffd097"/></linearGradient><linearGradient id="SVGID_7_" gradientUnits="userSpaceOnUse" x1="38.041" x2="473.96" xlink:href="#lg2" y1="332.88" y2="332.88"/><linearGradient id="SVGID_8_" gradientUnits="userSpaceOnUse" x1="38.041" x2="473.96" xlink:href="#lg2" y1="171.15" y2="171.15"/><linearGradient id="SVGID_9_" gradientUnits="userSpaceOnUse" x1="4.625" x2="507.375" y1="481.214" y2="481.214"><stop offset="0" stop-color="#b28476"/><stop offset="1" stop-color="#ccaa97"/></linearGradient><linearGradient id="SVGID_10_" gradientUnits="userSpaceOnUse" x1="77.223" x2="434.777" y1="175.482" y2="175.482"><stop offset="0" stop-color="#dd6642"/><stop offset="1" stop-color="#e7896e"/></linearGradient><path d="m299.224 72.021c-4.839 16.467-22.111 25.893-38.578 21.053s-25.893-22.111-21.053-38.578c2.55-8.677 17.841-30.104 31.738-48.435 8.484-11.191 26.327-5.947 27.407 8.055 1.769 22.934 3.036 49.228.486 57.905z" fill="url(#SVGID_1_)"/><path d="m302.697 105.848c-15.14 8.085-33.967 2.366-42.051-12.774-8.085-15.14-2.366-33.967 12.774-42.052 7.978-4.26 33.98-8.363 56.795-11.291 13.929-1.788 22.69 14.617 13.456 25.199-15.124 17.331-32.996 36.658-40.974 40.918z" fill="url(#SVGID_2_)"/><circle cx="242.236" cy="68.547" fill="url(#SVGID_3_)" r="33.256"/><circle cx="197.778" cy="68.547" fill="url(#SVGID_4_)" r="33.256"/><path d="m434.777 293.697-177.801 12-179.753-12c-21.64 0-39.183-17.543-39.183-39.183 0-21.64 17.543-39.182 39.183-39.182l179.753-10 177.801 10c21.64 0 39.182 17.543 39.182 39.182.001 21.641-17.542 39.183-39.182 39.183z" fill="url(#SVGID_5_)"/><path d="m434.777 450.427-177.801 12-179.753-12c-21.64 0-39.183-17.543-39.183-39.182 0-21.64 17.543-39.182 39.183-39.182l178.777-11 178.777 11c21.64 0 39.182 17.543 39.182 39.182.001 21.64-17.542 39.182-39.182 39.182z" fill="url(#SVGID_6_)"/><path d="m434.777 372.062h-357.554c-21.64 0-39.183-17.543-39.183-39.182 0-21.64 17.543-39.183 39.183-39.183h357.554c21.64 0 39.182 17.543 39.182 39.183.001 21.64-17.542 39.182-39.182 39.182z" fill="url(#SVGID_7_)"/><path d="m434.777 215.332h-357.554c-21.64 0-39.183-17.543-39.183-39.183 0-21.64 17.543-39.182 39.183-39.182l178.777-10 178.777 10c21.64 0 39.182 17.543 39.182 39.182.001 21.641-17.542 39.183-39.182 39.183z" fill="url(#SVGID_8_)"/><path d="m347.478 154.954c0 9.934-8.053 17.987-17.987 17.987h-75.24c-27.041 0-27.96 22.213-27.96 22.213h-65.605s1.719-22.213-22.991-22.213h-30.556c-9.934 0-17.987-8.053-17.987-17.987 0-9.934 8.053-17.987 17.987-17.987h222.352c9.934 0 17.987 8.053 17.987 17.987z" fill="#ffac48"/><path d="m29.685 450.427c-19.391 0-31.494 21.202-21.443 37.785 7.72 12.738 21.114 23.788 44.352 23.788h406.812c23.238 0 36.632-11.05 44.352-23.788 10.051-16.583-2.052-37.785-21.443-37.785z" fill="url(#SVGID_9_)"/><path d="m402.404 90.564h-292.807c-17.879 0-32.373 14.494-32.373 32.373v14.03h72.337c11.769 0 20.526 10.925 17.905 22.398-6.147 26.909-9.922 55.476-9.922 65.089 0 19.852 16.093 35.945 35.945 35.945s35.945-16.093 35.945-35.945c0-9.614-3.774-38.18-9.921-65.089-2.621-11.474 6.135-22.398 17.905-22.398h197.361v-14.03c-.002-17.879-14.496-32.373-32.375-32.373z" fill="url(#SVGID_10_)"/><ellipse cx="168.115" cy="382.674" fill="#ffb0d0" rx="14.936" ry="12.003"/><ellipse cx="343.886" cy="382.674" fill="#ffb0d0" rx="14.936" ry="12.003"/><circle cx="193.721" cy="353.056" fill="#fff" r="29.618"/><circle cx="318.279" cy="353.056" fill="#fff" r="29.618"/><g fill="#383842"><circle cx="193.721" cy="353.056" r="17.652"/><circle cx="318.279" cy="353.056" r="17.652"/><path d="m256 386.134c-5.851 0-11.702-2.213-16.476-6.638-3.038-2.816-3.217-7.561-.401-10.599 2.817-3.037 7.562-3.217 10.599-.401 3.755 3.481 8.8 3.481 12.555 0 3.038-2.817 7.783-2.637 10.599.401s2.637 7.783-.401 10.599c-4.773 4.425-10.624 6.638-16.475 6.638z"/></g></svg>