<svg id="Layer_1" enable-background="new 0 0 512 512" height="512" viewBox="0 0 512 512" width="512" xmlns="http://www.w3.org/2000/svg" xmlns:xlink="http://www.w3.org/1999/xlink"><linearGradient id="SVGID_1_" gradientUnits="userSpaceOnUse" x1="321.558" x2="404.826" y1="321.658" y2="486.893"><stop offset="0" stop-color="#81d9e7"/><stop offset="1" stop-color="#b5e9f1"/></linearGradient><linearGradient id="SVGID_2_" gradientUnits="userSpaceOnUse" x1="142.402" x2="363.677" y1="216.981" y2="108.649"><stop offset="0" stop-color="#ff85ab"/><stop offset="1" stop-color="#ff97bd"/></linearGradient><linearGradient id="SVGID_3_" gradientUnits="userSpaceOnUse" x1="126.646" x2="389.575" y1="229.739" y2="97.188"><stop offset="0" stop-color="#ff97bd"/><stop offset="1" stop-color="#ffb0d0"/></linearGradient><path d="m409.781 508.54c-18.942 8.708-41.357.411-50.065-18.531l-92.52-201.256 68.595-31.534 92.52 201.256c8.709 18.943.412 41.357-18.53 50.065z" fill="url(#SVGID_1_)"/><path d="m281.331 319.499 17.927 38.995c11.225-2.218 18.366-3.268 29.369-8.391 19.08-8.885 9.567-28.772 9.567-28.772-5.106-9.32-16.461-13.303-26.223-9.103-9.838 4.232-18.046 6.458-30.64 7.271z" fill="#3ccbde"/><path d="m320.439 314.196c-72.195 33.189-157.626 1.568-190.814-70.627l-18.19-39.569c-33.189-72.195-1.568-157.625 70.627-190.814 72.195-33.189 157.625-1.568 190.814 70.627l18.19 39.569c33.189 72.195 1.568 157.625-70.627 190.814z" fill="url(#SVGID_2_)"/><path d="m187.594 49.164c-2.307-5.018-.109-10.956 4.909-13.263 15.734-7.234 32.41-10.901 49.563-10.901 5.523 0 10 4.477 10 10s-4.477 10-10 10c-14.249 0-28.005 3.295-41.208 9.073-7.002 3.063-11.579-1.244-13.264-4.909z" fill="#ffc7de"/><path d="m280.593 52.85c-2.178-.972-4.45-1.792-6.699-2.559-5.227-1.784-8.018-7.467-6.235-12.694s7.466-8.02 12.694-6.235c2.703.922 5.41 1.957 8.047 3.075 5.085 2.156 7.458 8.026 5.303 13.11-1.615 3.81-6.677 8.174-13.11 5.303z" fill="#ffc7de"/><path d="m183.66 305.226 139.201-63.99c9.17-4.216 13.108-15.128 8.742-24.228-4.067-8.478-13.958-12.419-22.74-9.06l-163.228 62.415c10.628 14.058 23.569 25.778 38.025 34.863z" fill="#f46285"/><path d="m388.285 172.639-219.462 100.89c-31.353 14.413-68.454.681-82.868-30.672-14.413-31.353-.681-68.454 30.672-82.868l219.462-100.89c31.353-14.413 68.454-.681 82.868 30.672 14.414 31.354.681 68.455-30.672 82.868z" fill="url(#SVGID_3_)"/><ellipse cx="182.399" cy="228.756" fill="#f46285" rx="14.936" ry="12.003" transform="matrix(.91 -.415 .415 .91 -78.483 96.321)"/><ellipse cx="342.32" cy="155.813" fill="#f46285" rx="14.936" ry="12.003" transform="matrix(.91 -.415 .415 .91 -33.792 156.109)"/><path d="m266.587 201.552c-5.866 2.676-12.625 3.39-19.309 1.701-6.198-1.566-9.953-7.86-8.387-14.058 1.566-6.199 7.861-9.953 14.058-8.387 2.779.702 5.622-.594 6.913-3.153 2.879-5.706 9.841-7.998 15.549-5.118 5.707 2.881 7.998 9.842 5.118 15.549-3.106 6.155-8.077 10.791-13.942 13.466z" fill="#383842"/><path d="m195.051 194.79c6.147-2.804 12.432-4.125 18.132-4.086 5.818.04 10.449-4.493 6.37-13.436-6.161-13.508-22.946-19.086-36.791-13.727-16.038 6.207-23.337 24.511-16.303 39.932 3.736 8.191 9.781 7.077 12.932 3.16 3.749-4.662 9.123-8.861 15.66-11.843z" fill="#fff"/><path d="m195.051 194.79c5.391-2.459 10.888-3.777 16.004-4.039-.055-2.315-.568-4.654-1.59-6.895-4.046-8.87-14.516-12.781-23.386-8.735s-12.781 14.516-8.735 23.386c1.022 2.241 2.452 4.161 4.165 5.721 3.552-3.692 8.151-6.978 13.542-9.438z" fill="#383842"/><path d="m308.402 143.089c6.147-2.804 12.432-4.125 18.132-4.086 5.818.04 10.449-4.493 6.37-13.436-6.161-13.508-22.946-19.086-36.791-13.727-16.038 6.207-23.337 24.511-16.303 39.932 3.736 8.191 9.78 7.077 12.932 3.16 3.749-4.662 9.122-8.861 15.66-11.843z" fill="#fff"/><path d="m308.402 143.089c5.391-2.459 10.888-3.777 16.004-4.039-.055-2.315-.568-4.654-1.59-6.895-4.046-8.87-14.516-12.781-23.386-8.735s-12.781 14.516-8.735 23.386c1.022 2.241 2.452 4.161 4.165 5.721 3.552-3.692 8.15-6.979 13.542-9.438z" fill="#383842"/><path d="m260.653 188.543c-6.289 2.868-9.374 9.607-6.891 15.051.086.188.19.363.288.544 4.382.075 8.656-.815 12.537-2.585 3.88-1.77 7.354-4.414 10.171-7.772-.073-.192-.136-.385-.222-.574-2.484-5.445-9.595-7.533-15.883-4.664z" fill="#ff737d"/></svg>