<svg id="Layer_1" enable-background="new 0 0 512 512" height="512" viewBox="0 0 512 512" width="512" xmlns="http://www.w3.org/2000/svg" xmlns:xlink="http://www.w3.org/1999/xlink"><linearGradient id="SVGID_1_" gradientUnits="userSpaceOnUse" x1="256.15" x2="258.29" y1="333.753" y2="493.214"><stop offset="0" stop-color="#81d9e7"/><stop offset="1" stop-color="#b5e9f1"/></linearGradient><linearGradient id="SVGID_2_" gradientUnits="userSpaceOnUse" x1="85.175" x2="426.825" y1="183.068" y2="183.068"><stop offset="0" stop-color="#ffb0d0"/><stop offset="1" stop-color="#ffc7de"/></linearGradient><path d="m221.524 322.611 17.697 174.228c.874 8.61 8.124 15.161 16.779 15.161 8.655 0 15.905-6.551 16.779-15.161l17.697-174.228z" fill="url(#SVGID_1_)"/><path d="m426.825 176.891c0-32.443-23.994-68.115-62.235-74.134-18.247-2.872-32.716-16.933-35.954-35.119-5.392-30.294-22.68-67.638-72.636-67.638-50.489 0-67.609 38.144-72.805 68.603-3.139 18.399-17.586 32.599-36.02 35.529-39.959 6.352-62 39.943-62 72.759 0 20.029 7.858 38.221 20.658 51.665 10.603 11.136 13.694 27.634 7.611 41.756-3.425 7.951-5.307 16.613-5.307 25.677 0 38.741 34.343 70.147 76.707 70.147 19.071 0 36.51-6.367 49.923-16.903 12.445-9.775 30.02-9.775 42.466 0 13.413 10.535 30.852 16.903 49.923 16.903 42.364 0 76.707-31.406 76.707-70.147 0-9.065-1.882-17.726-5.307-25.677-6.083-14.122-2.992-30.62 7.611-41.756 12.801-13.444 20.658-31.637 20.658-51.665z" fill="url(#SVGID_2_)"/><path d="m269.243 116.629s0-20.586-20.512-22.832c-41.876-4.584-65.536-25.195-65.536-25.195-3.12 18.29-17.671 32.618-35.997 35.526 30.382 25.032 71.086 32.941 96.943 35.372 13.472 1.267 25.102-9.341 25.102-22.871z" fill="#ff97bd"/><path d="m192.477 237.456c-43.426 19.555-86.645-8.901-86.645-8.901 10.603 11.136 13.694 27.634 7.611 41.756 0 0 41.633 26.688 90.998 0 .484-.017 34.962-21.998 82.074 5.491 11.179 6.523 25.222-1.423 25.222-14.411.001-22.217-67.383-47.294-119.26-23.935z" fill="#ff97bd"/><g fill="#ff85ab"><ellipse cx="165.675" cy="202.093" rx="14.936" ry="12.003"/><ellipse cx="341.446" cy="202.093" rx="14.936" ry="12.003"/><circle cx="191.282" cy="172.513" r="29.58"/></g><path d="m161.702 173.962c.774 15.667 13.721 28.132 29.58 28.132s28.806-12.465 29.58-28.132z" fill="#fff"/><path d="m173.697 173.962c.755 9.053 8.337 16.166 17.586 16.166 9.248 0 16.83-7.113 17.585-16.166z" fill="#383842"/><circle cx="315.839" cy="172.513" fill="#ff85ab" r="29.58"/><path d="m286.259 173.962c.774 15.667 13.721 28.132 29.58 28.132s28.806-12.465 29.58-28.132z" fill="#fff"/><path d="m298.254 173.962c.755 9.053 8.337 16.166 17.585 16.166s16.83-7.113 17.585-16.166z" fill="#383842"/><path d="m259.838 203.539c-3.755-3.481-8.8-3.481-12.555 0-3.038 2.816-7.783 2.636-10.599-.401-2.816-3.038-2.637-7.783.401-10.599 9.547-8.851 23.404-8.851 32.951 0 3.038 2.816 3.316 7.657.401 10.599-4.313 4.353-9.156 1.739-10.599.401z" fill="#383842"/></svg>