<svg id="Layer_1" enable-background="new 0 0 512 512" height="512" viewBox="0 0 512 512" width="512" xmlns="http://www.w3.org/2000/svg" xmlns:xlink="http://www.w3.org/1999/xlink"><linearGradient id="SVGID_1_" gradientTransform="matrix(.707 .707 -.707 .707 250.833 -127.189)" gradientUnits="userSpaceOnUse" x1="167.031" x2="413.243" y1="142.295" y2="142.295"><stop offset="0" stop-color="#dd6642"/><stop offset="1" stop-color="#e7896e"/></linearGradient><linearGradient id="SVGID_2_" gradientTransform="matrix(.707 .707 -.707 .707 250.833 -127.189)" gradientUnits="userSpaceOnUse" x1="291.529" x2="286.897" y1="250.955" y2="487.214"><stop offset="0" stop-color="#996acc"/><stop offset="1" stop-color="#b18cd9"/></linearGradient><linearGradient id="SVGID_3_" gradientTransform="matrix(.707 .707 -.707 .707 250.833 -127.189)" gradientUnits="userSpaceOnUse" x1="92.48" x2="487.794" y1="218.013" y2="218.013"><stop offset="0" stop-color="#b18cd9"/><stop offset="1" stop-color="#c7aee4"/></linearGradient><path d="m485.003 135.736c-12.771-14.99-17.314-35.531-11.989-54.545 2.105-7.515.199-15.577-5.319-21.095l-43.217-43.217c-22.505-22.505-58.992-22.505-81.497 0l-190.062 190.062 174.096 174.096 150.257-150.257c5.752-5.753 7.665-14.273 5.029-21.969-5.623-16.415-3.75-34.554 5.014-49.442 4.423-7.515 3.343-16.996-2.312-23.633z" fill="url(#SVGID_1_)"/><path d="m319.122 97.305c-3.905-3.905-3.905-10.237 0-14.142l7.132-7.132c3.904-3.905 10.236-3.906 14.143-.001 3.905 3.905 3.905 10.237 0 14.142l-7.132 7.132c-6.563 6.206-12.19 1.954-14.143.001z" fill="#f8cfc5"/><path d="m414.813 77.924-25.69-25.69c-1.436-1.435-3.351-2.226-5.393-2.226-2.043 0-3.959.791-5.393 2.226l-12.117 12.116c-3.906 3.905-10.236 3.905-14.143 0-3.905-3.905-3.905-10.237 0-14.143l12.116-12.116c5.213-5.212 12.151-8.083 19.536-8.083 7.385 0 14.323 2.871 19.535 8.084l25.69 25.689c3.905 3.905 3.905 10.237 0 14.142-1.952 1.953-8.325 5.962-14.141.001z" fill="#f8cfc5"/><path d="m136.124 496.347-98.515-98.515c-20.871-20.871-20.871-54.71 0-75.581l207.748-207.748 174.096 174.096-207.748 207.748c-20.871 20.871-54.71 20.871-75.581 0z" fill="url(#SVGID_2_)"/><path d="m267.835 236.919c-12.367-10.507-27.133-20.427-27.133-20.427l-41.044-56.291-48.648 48.648c38.045 18.349 69.408 37.818 92.265 57.159 13.364 11.308 25.746-1.074 25.746-1.074 7.884-7.884 7.311-20.796-1.186-28.015z" fill="#8049bf"/><path d="m420.698 257.873-144.616-144.616c-19.657-19.657-48.393-27.173-75.158-19.658l-47.088 13.222c-29.992 8.422-33.104 49.688-4.716 62.518 45.022 20.348 96.879 48.832 131.772 83.725s63.376 86.749 83.724 131.772c12.83 28.388 54.096 25.276 62.518-4.716l13.222-47.088c7.515-26.766-.001-55.502-19.658-75.159z" fill="url(#SVGID_3_)"/><ellipse cx="127.37" cy="431.347" fill="#ffb0d0" rx="14.936" ry="12.003" transform="matrix(.707 -.707 .707 .707 -267.702 216.402)"/><ellipse cx="251.659" cy="307.058" fill="#ffb0d0" rx="14.936" ry="12.003" transform="matrix(.707 -.707 .707 .707 -143.414 267.886)"/><circle cx="124.534" cy="392.297" fill="#fff" r="29.618"/><circle cx="212.609" cy="304.222" fill="#fff" r="29.618"/><g fill="#383842"><path d="m121.784 408.484c-4.035.936-8.139-1.132-9.295-5.11-1.898-6.535-.088-13.585 4.724-18.397 4.812-4.812 11.862-6.622 18.397-4.723 3.977 1.155 6.265 5.317 5.109 9.295-1.154 3.977-5.317 6.265-9.295 5.109-1.874-.545-3.145.466-3.605.926s-1.47 1.732-.926 3.606c.792 2.721.347 8.029-5.109 9.294z"/><path d="m219.501 306.583c-1.874-.544-3.146.466-3.606.926s-1.47 1.731-.926 3.605c1.155 3.978-1.131 8.14-5.109 9.295-3.977 1.156-8.139-1.132-9.295-5.109-1.899-6.535-.089-13.585 4.723-18.397s11.862-6.623 18.397-4.724c3.978 1.156 6.002 5.249 5.11 9.295-1.248 5.666-6.572 5.899-9.294 5.109z"/><path d="m204.97 368.153-16.505 16.505c-4.602 4.602-12.064 4.602-16.666 0-4.602-4.602-4.602-12.064 0-16.665l16.505-16.505c4.602-4.602 12.063-4.602 16.666 0 4.602 4.602 4.602 12.063 0 16.665z"/></g><path d="m188.465 384.658 16.505-16.505s-7.093-8.229-15.913.592c-8.821 8.82-.592 15.913-.592 15.913z" fill="#ff737d"/></svg>