<svg id="Layer_1" enable-background="new 0 0 512 512" height="512" viewBox="0 0 512 512" width="512" xmlns="http://www.w3.org/2000/svg" xmlns:xlink="http://www.w3.org/1999/xlink"><linearGradient id="lg1"><stop offset="0" stop-color="#81d9e7"/><stop offset="1" stop-color="#b5e9f1"/></linearGradient><linearGradient id="SVGID_1_" gradientTransform="matrix(.707 .707 -.707 .707 255.403 -104.736)" gradientUnits="userSpaceOnUse" x1="96.874" x2="405.875" xlink:href="#lg1" y1="119.958" y2="119.958"/><linearGradient id="lg2"><stop offset="0" stop-color="#ffb0d0"/><stop offset="1" stop-color="#ffc7de"/></linearGradient><linearGradient id="SVGID_2_" gradientTransform="matrix(.707 .707 -.707 .707 255.403 -104.736)" gradientUnits="userSpaceOnUse" x1="105.131" x2="414.133" xlink:href="#lg2" y1="389.361" y2="389.361"/><linearGradient id="SVGID_3_" gradientTransform="matrix(.707 .707 -.707 .707 255.403 -104.736)" gradientUnits="userSpaceOnUse" x1="92.874" x2="413.733" xlink:href="#lg1" y1="297.229" y2="297.229"/><linearGradient id="SVGID_4_" gradientTransform="matrix(.707 .707 -.707 .707 255.403 -104.736)" gradientUnits="userSpaceOnUse" x1="102.057" x2="409.702" xlink:href="#lg2" y1="193.471" y2="193.471"/><path d="m495.984 228.575s36.036-30.528 0-66.563l-131.412-131.413c-31.245-31.245-82.663-29.514-111.296 4.141-23.779 27.95-46.171 67.768-50.553 120.965.23-.23 216.806 110.728 293.261 72.87z" fill="url(#SVGID_1_)"/><path d="m362.307 175.587c8.898-8.898 7.758-23.647-2.421-31.045-5.882-4.275-11.584-8.916-17.013-13.955-37.554-34.857-78.047-51.122-120.469-48.437-6.216 13.034-11.43 27.45-15.037 43.286 48.534-5.036 87.833 17.448 101.077 30.174 8.963 8.613 19.563 16.212 27.578 22.246 13.7 10.316 26.285-2.269 26.285-2.269z" fill="#3ccbde"/><path d="m16.016 283.425s-36.036 30.528 0 66.563l131.413 131.413c31.245 31.245 82.663 29.514 111.296-4.141 23.779-27.95 46.171-67.767 50.553-120.965-.231.231-216.807-110.728-293.262-72.87z" fill="url(#SVGID_2_)"/><path d="m190.494 359.56c-4.788-4.321-13.309-10.848-20.889-16.645-13.316-10.186-25.276 1.774-25.276 1.774-8.25 8.251-7.359 21.865 1.892 28.975 5.007 3.849 10.205 7.946 15.6 12.309 41.027 33.18 83.516 48.707 126.572 46.359 5.77-11.698 10.736-24.523 14.454-38.531-59.937 6.254-105.284-27.862-112.353-34.241z" fill="#ff97bd"/><path d="m232.53 242.772c70.731 65.652 202.718 45.471 202.718 45.471s-105.711 188.351-251.417 70.516c-130.998-105.94-167.815-75.334-167.815-75.334s21.101-60.318 86.533-86.532c35.408-14.186 83.566 2.797 129.981 45.879z" fill="url(#SVGID_3_)"/><path d="m319.063 156.24c70.731 65.652 176.921 72.336 176.921 72.336s-94.362 149.266-225.621 43.651-167.815-75.334-167.815-75.334 100.088-148.719 216.515-40.653z" fill="url(#SVGID_4_)"/><ellipse cx="203.308" cy="327.596" fill="#ff97bd" rx="14.936" ry="12.003" transform="matrix(.707 -.707 .707 .707 -172.098 239.711)"/><ellipse cx="327.596" cy="203.308" fill="#ff97bd" rx="14.936" ry="12.003" transform="matrix(.707 -.707 .707 .707 -47.809 291.193)"/><circle cx="200.471" cy="288.547" fill="#fff" r="29.618"/><circle cx="208.932" cy="280.086" fill="#383842" r="17.652"/><circle cx="288.547" cy="200.471" fill="#fff" r="29.618"/><g fill="#383842"><circle cx="296.964" cy="192.054" r="17.652"/><ellipse cx="260.385" cy="260.385" rx="13.252" ry="17.352" transform="matrix(.707 -.707 .707 .707 -107.855 260.385)"/></g></svg>