<svg id="Layer_1" enable-background="new 0 0 512 512" height="512" viewBox="0 0 512 512" width="512" xmlns="http://www.w3.org/2000/svg" xmlns:xlink="http://www.w3.org/1999/xlink"><linearGradient id="lg1"><stop offset="0" stop-color="#f46262"/><stop offset="1" stop-color="#ff737d"/></linearGradient><linearGradient id="SVGID_1_" gradientUnits="userSpaceOnUse" x1="118.089" x2="101.676" xlink:href="#lg1" y1="150.715" y2="340.647"/><linearGradient id="SVGID_2_" gradientUnits="userSpaceOnUse" x1="342.424" x2="480.302" y1="234.912" y2="234.912"><stop offset="0" stop-color="#d65b5b"/><stop offset="1" stop-color="#f46262"/></linearGradient><linearGradient id="SVGID_3_" gradientUnits="userSpaceOnUse" x1="194.263" x2="187.229" y1="159.094" y2="331.049"><stop offset="0" stop-color="#ff737d"/><stop offset="1" stop-color="#ff929f"/></linearGradient><linearGradient id="SVGID_4_" gradientUnits="userSpaceOnUse" x1="322.252" x2="325.378" xlink:href="#lg1" y1="127.188" y2="334.317"/><path d="m169.576 115.641s-69.498-43.202-103.207 31.92-34.672 218.984-34.672 218.984h137.878v-250.904z" fill="url(#SVGID_1_)"/><path d="m169.576 115.641s-15.175-9.433-34.781-11.819c-7.734 12.003-14.744 26.067-20.944 42.092-9.601 24.816-17.153 54.011-22.548 86.814-2.004 12.188 7.404 23.272 19.755 23.272h.075c9.872 0 18.253-7.2 19.78-16.952 2.641-16.871 7.728-42.887 16.076-61.669.202.202 10.083.257 22.587.246z" fill="#d65b5b"/><path d="m342.424 115.641s69.498-43.202 103.207 31.92 34.672 218.984 34.672 218.984h-137.879z" fill="url(#SVGID_2_)"/><path d="m407.776 264.156c-11.348 0-20.248 9.789-19.104 21.078.973 9.599 1.594 22.02.84 36.297 0 .315-24.184.298-47.088.212v44.802h88.188c0-29.915-1.257-58.357-3.723-85.021-.912-9.853-9.218-17.368-19.113-17.368z" fill="#bf4c4c"/><path d="m256 366.545v-242.434s-.163-34.903-45.442-34.903-94.169 92.446-94.169 277.337z" fill="url(#SVGID_3_)"/><path d="m256 366.545v-242.434s.163-34.903 45.442-34.903 94.169 92.446 94.169 277.337z" fill="url(#SVGID_4_)"/><path d="m23.436 355.457c-19.077 0-30.253 21.783-18.838 37.069 11.67 15.627 31.596 30.266 65.301 30.266h372.203c33.704 0 53.631-14.639 65.301-30.266 11.415-15.286.239-37.069-18.838-37.069z" fill="#b5e9f1"/><ellipse cx="168.114" cy="281.107" fill="#ffc7de" rx="14.936" ry="12.003"/><ellipse cx="343.886" cy="281.107" fill="#ffc7de" rx="14.936" ry="12.003"/><circle cx="193.721" cy="251.489" fill="#fff" r="29.618"/><circle cx="181.756" cy="251.489" fill="#383842" r="17.652"/><circle cx="318.279" cy="251.489" fill="#fff" r="29.618"/><circle cx="306.313" cy="251.489" fill="#383842" r="17.652"/><path d="m263.59 258.683h-15.18c-3.007 0-5.658 1.976-6.506 4.862-2.672 9.09-5.742 27.748 14.097 27.748 19.838 0 16.769-18.659 14.097-27.748-.85-2.885-3.5-4.862-6.508-4.862z" fill="#383842"/><path d="m243.793 287.093c2.462 2.549 6.32 4.2 12.207 4.2 5.888 0 9.746-1.651 12.208-4.2-1.247-4.845-6.234-8.47-12.208-8.47-5.973 0-10.96 3.625-12.207 8.47z" fill="#ffc7de"/><g fill="#e6fdff"><path d="m342.424 392.697h-74.216c-5.523 0-10-4.477-10-10 0-5.522 4.477-10 10-10h74.216c5.523 0 10 4.478 10 10s-4.477 10-10 10z"/><path d="m392.802 392.697h-11.575c-5.523 0-10-4.477-10-10 0-5.522 4.477-10 10-10h11.575c5.523 0 10 4.478 10 10s-4.477 10-10 10z"/></g></svg>