<svg id="Layer_1" enable-background="new 0 0 512 512" height="512" viewBox="0 0 512 512" width="512" xmlns="http://www.w3.org/2000/svg" xmlns:xlink="http://www.w3.org/1999/xlink"><linearGradient id="SVGID_1_" gradientUnits="userSpaceOnUse" x1="76.573" x2="435.428" y1="354.66" y2="354.66"><stop offset="0" stop-color="#81d9e7"/><stop offset="1" stop-color="#b5e9f1"/></linearGradient><linearGradient id="lg1"><stop offset="0" stop-color="#ffd097"/><stop offset="1" stop-color="#ffe6ae"/></linearGradient><linearGradient id="SVGID_2_" gradientUnits="userSpaceOnUse" x1="46.517" x2="465.483" xlink:href="#lg1" y1="197.32" y2="197.32"/><linearGradient id="SVGID_3_" gradientUnits="userSpaceOnUse" x1="70.686" x2="441.314" xlink:href="#lg1" y1="59.609" y2="59.609"/><linearGradient id="SVGID_4_" gradientUnits="userSpaceOnUse" x1="59.815" x2="452.184" y1="129.741" y2="129.741"><stop offset="0" stop-color="#dd6642"/><stop offset="1" stop-color="#e7896e"/></linearGradient><linearGradient id="SVGID_5_" gradientUnits="userSpaceOnUse" x1="76.573" x2="435.428" y1="413.675" y2="413.675"><stop offset="0" stop-color="#ff737d"/><stop offset="1" stop-color="#ff929f"/></linearGradient><path d="m380.871 512h-249.742c-30.131 0-54.557-24.426-54.557-54.557v-260.123h358.855v260.123c0 30.131-24.425 54.557-54.556 54.557z" fill="url(#SVGID_1_)"/><path d="m76.572 286.777c7.896 4.193 16.903 6.572 26.466 6.572 14.445 0 27.624-5.419 37.615-14.335 7.614-6.795 19.129-6.795 26.743 0 9.992 8.916 23.17 14.335 37.615 14.335s27.624-5.419 37.615-14.335c7.614-6.795 19.129-6.795 26.743 0 9.991 8.916 23.17 14.335 37.615 14.335 10.13 0 19.609-2.715 27.86-7.333 8.163-4.568 9.755-17.089 9.755-17.089 0-12.807-11.933-22.195-24.409-19.305-14.906 3.454-34.713.727-53.799-24.487h-189.819z" fill="#3ccbde"/><path d="m408.961 140.798h-304.806c-31.693 0-58.234 25.937-57.628 57.624.587 30.707 25.663 55.419 56.511 55.419 14.445 0 27.624-5.419 37.615-14.335 7.676-6.85 19.067-6.85 26.744 0 9.991 8.916 23.17 14.335 37.615 14.335s27.624-5.419 37.615-14.335c7.676-6.85 19.067-6.85 26.744 0 9.991 8.916 23.17 14.335 37.615 14.335s27.624-5.419 37.615-14.335c7.628-6.807 19.008-6.945 26.615-.115 10.924 9.809 25.69 15.423 41.766 14.311 27.851-1.927 50.4-24.449 52.356-52.298 2.324-33.063-23.81-60.606-56.377-60.606z" fill="url(#SVGID_2_)"/><path d="m71.488 59.777 10.585 59.44h347.854l10.585-59.44c5.55-31.167-18.415-59.777-50.073-59.777h-268.879c-31.657 0-55.623 28.61-50.072 59.777z" fill="url(#SVGID_3_)"/><path d="m323.845 50h-12.277c-5.523 0-10-4.477-10-10s4.477-10 10-10h12.277c5.523 0 10 4.477 10 10s-4.477 10-10 10z" fill="#fff4de"/><path d="m396.376 79.462c-5.48-.688-9.06-6.161-8.092-11.599l3.106-17.857-30.2-.006c-5.523 0-10-4.477-10-10s4.477-10 10-10h29.25c3.353 0 11.204 0 16.607 6.292 3.785 4.407 5.121 10.458 3.97 17.984l-.04.242-3.001 16.852c-.864 4.845-5.061 8.914-11.6 8.092z" fill="#fff4de"/><path d="m423.621 158.304h-335.243c-15.775 0-28.563-12.788-28.563-28.563 0-15.775 12.788-28.563 28.563-28.563h335.243c15.775 0 28.563 12.788 28.563 28.563 0 15.775-12.788 28.563-28.563 28.563z" fill="url(#SVGID_4_)"/><path d="m435.427 457.443v-88.181c-12.876-12.482-30.532-17.489-47.241-14.724-14.217 2.352-28.733-3.269-36.995-15.076-10.2-14.578-27.111-24.112-46.255-24.112-10.467 0-20.266 2.852-28.665 7.819-12.449 7.363-28.095 7.363-40.544 0-8.399-4.968-18.198-7.819-28.665-7.819-19.143 0-36.053 9.533-46.254 24.109-8.286 11.841-22.846 17.391-37.109 15.061-16.593-2.711-34.183 2.211-47.128 14.745v88.178c0 30.131 24.426 54.557 54.557 54.557h249.742c30.132 0 54.557-24.426 54.557-54.557z" fill="url(#SVGID_5_)"/><ellipse cx="168.115" cy="445.177" fill="#ffc7de" rx="14.936" ry="12.003"/><ellipse cx="343.886" cy="445.177" fill="#ffc7de" rx="14.936" ry="12.003"/><path d="m223.339 415.559c0 16.358-13.26 29.618-29.618 29.618-16.357 0-29.618-13.26-29.618-29.618 0-16.357 13.26-19.618 29.618-19.618s29.618 3.261 29.618 19.618z" fill="#fff"/><circle cx="205.687" cy="415.559" fill="#383842" r="17.652"/><path d="m347.896 415.559c0 16.358-13.26 29.618-29.618 29.618-16.357 0-29.618-13.26-29.618-29.618 0-16.357 13.26-19.618 29.618-19.618s29.618 3.261 29.618 19.618z" fill="#fff"/><circle cx="330.182" cy="415.559" fill="#383842" r="17.652"/><path d="m164.141 414.073c.774-15.667 13.721-28.132 29.58-28.132s28.806 12.465 29.58 28.132z" fill="#d65b5b"/><path d="m288.736 414.073c.774-15.667 13.721-28.132 29.58-28.132s28.806 12.465 29.58 28.132z" fill="#d65b5b"/><path d="m265.68 444.446h-19.323c-4.142 0-7.5-3.358-7.5-7.5s3.358-7.5 7.5-7.5h19.323c4.142 0 7.5 3.358 7.5 7.5s-3.358 7.5-7.5 7.5z" fill="#383842"/></svg>