<svg id="Layer_1" enable-background="new 0 0 512 512" height="512" viewBox="0 0 512 512" width="512" xmlns="http://www.w3.org/2000/svg" xmlns:xlink="http://www.w3.org/1999/xlink"><linearGradient id="SVGID_1_" gradientUnits="userSpaceOnUse" x1="32.894" x2="479.106" y1="347.654" y2="347.654"><stop offset="0" stop-color="#3ccbde"/><stop offset="1" stop-color="#81d9e7"/></linearGradient><linearGradient id="SVGID_2_" gradientUnits="userSpaceOnUse" x1="70.869" x2="441.131" y1="62.343" y2="62.343"><stop offset="0" stop-color="#e7896e"/><stop offset="1" stop-color="#f2ad9a"/></linearGradient><linearGradient id="SVGID_3_" gradientUnits="userSpaceOnUse" x1="51.303" x2="460.697" y1="149.536" y2="149.536"><stop offset="0" stop-color="#81d9e7"/><stop offset="1" stop-color="#b5e9f1"/></linearGradient><linearGradient id="SVGID_4_" gradientUnits="userSpaceOnUse" x1="47.74" x2="457.471" y1="400.381" y2="400.381"><stop offset="0" stop-color="#ffde55"/><stop offset="1" stop-color="#ffefab"/></linearGradient><path d="m412.503 183.308h-313.006s-96.851 32.759-56.971 149.55c19.297 56.511 41.261 100.277 58.793 130.4 17.6 30.238 50.038 48.742 85.025 48.742h139.312c34.987 0 67.426-18.504 85.025-48.742 17.533-30.123 39.497-73.889 58.794-130.4 39.879-116.791-56.972-149.55-56.972-149.55z" fill="url(#SVGID_1_)"/><path d="m40.925 238.817h246.203c15.329 0 27.755-12.426 27.755-27.755 0-15.328-12.426-27.755-27.755-27.755h-187.631c0 .001-40.856 13.83-58.572 55.51z" fill="#00bfd7"/><path d="m72.952 62.625 18.618 62.061h328.859l18.618-62.061c9.364-31.212-14.008-62.625-46.595-62.625h-272.905c-32.586 0-55.958 31.413-46.595 62.625z" fill="url(#SVGID_2_)"/><path d="m424.693 185.54h-337.386c-19.885 0-36.005-16.12-36.005-36.005 0-19.885 16.12-36.004 36.005-36.004h337.386c19.885 0 36.004 16.12 36.004 36.004 0 19.885-16.119 36.005-36.004 36.005z" fill="url(#SVGID_3_)"/><path d="m186.344 512h139.312c34.987 0 67.426-18.504 85.025-48.742 13.978-24.015 30.776-56.712 46.79-97.615-71.798-5.412-83.459-28.066-192.573-64.437-134.945-44.982-217.158 46.448-217.158 46.448 17.959 49.401 37.608 88.165 53.579 115.604 17.6 30.238 50.038 48.742 85.025 48.742z" fill="url(#SVGID_4_)"/><ellipse cx="164.719" cy="427.27" fill="#ffb0d0" rx="14.936" ry="12.003"/><ellipse cx="340.49" cy="427.27" fill="#ffb0d0" rx="14.936" ry="12.003"/><circle cx="190.325" cy="397.652" fill="#fff" r="29.618"/><circle cx="314.883" cy="397.652" fill="#fff" r="29.618"/><g fill="#383842"><circle cx="190.325" cy="397.652" r="17.652"/><circle cx="314.883" cy="397.652" r="17.652"/><path d="m252.604 430.73c-5.851 0-11.702-2.213-16.476-6.638-3.037-2.816-3.217-7.562-.401-10.599 2.817-3.037 7.562-3.217 10.599-.401 3.755 3.481 8.8 3.481 12.555 0 3.038-2.817 7.783-2.637 10.599.401s2.637 7.783-.401 10.599c-4.773 4.425-10.624 6.638-16.475 6.638z"/></g><path d="m330.359 59.568h-67.095c-5.523 0-10-4.477-10-10s4.477-10 10-10h67.095c5.522 0 10 4.477 10 10s-4.477 10-10 10z" fill="#f8cfc5"/><path d="m385.38 59.568h-18.781c-5.522 0-10-4.477-10-10s4.478-10 10-10h18.781c5.522 0 10 4.477 10 10s-4.478 10-10 10z" fill="#f8cfc5"/></svg>