<svg id="Layer_1" enable-background="new 0 0 512 512" height="512" viewBox="0 0 512 512" width="512" xmlns="http://www.w3.org/2000/svg" xmlns:xlink="http://www.w3.org/1999/xlink"><linearGradient id="SVGID_1_" gradientUnits="userSpaceOnUse" x1="0" x2="512" y1="255.455" y2="255.455"><stop offset="0" stop-color="#ffb0d0"/><stop offset="1" stop-color="#ffc7de"/></linearGradient><linearGradient id="lg1"><stop offset="0" stop-color="#b18cd9"/><stop offset="1" stop-color="#c7aee4"/></linearGradient><linearGradient id="SVGID_2_" gradientUnits="userSpaceOnUse" x1="19.88" x2="492.12" xlink:href="#lg1" y1="139.404" y2="139.404"/><linearGradient id="SVGID_3_" gradientUnits="userSpaceOnUse" x1="19.88" x2="492.12" xlink:href="#lg1" y1="372.596" y2="372.596"/><path d="m459.291 308.164h-406.582c-29.11 0-52.709-23.598-52.709-52.709 0-29.11 23.599-52.709 52.709-52.709h406.582c29.111 0 52.709 23.599 52.709 52.709 0 29.111-23.599 52.709-52.709 52.709z" fill="url(#SVGID_1_)"/><path d="m10.221 224.256c3.511 14.471 14.012 29.589 40.705 29.589 8.121 0 15.606-2.24 21.489-6.806 5.419-4.206 12.88-4.133 18.308.062 5.5 4.25 12.396 6.779 19.885 6.779 7.475 0 14.36-2.52 19.855-6.756 5.469-4.216 12.978-4.216 18.447 0 5.495 4.236 12.38 6.756 19.855 6.756 7.476 0 14.361-2.52 19.855-6.756 5.469-4.216 12.978-4.216 18.447 0 5.495 4.236 12.379 6.756 19.855 6.756s14.36-2.52 19.855-6.756c5.469-4.216 12.978-4.216 18.446 0 5.495 4.236 12.379 6.756 19.855 6.756 19.855 0 19.855-20.911 19.855-20.911 0-11.347-9.306-20.296-20.653-20.275-6.751.013-13.571-2.306-17.731-9.949h-213.84c-17.438.001-32.893 8.463-42.488 21.511z" fill="#ff97bd"/><path d="m471.065 151.942c-6.964-2.632-12.188-8.468-14.263-15.618-8.011-27.614-30.741-72.497-93.869-72.497h-213.867c-63.128 0-85.858 44.883-93.869 72.497-2.074 7.15-7.298 12.986-14.263 15.618-12.947 4.893-21.958 17.795-20.983 32.666 1.075 16.382 14.574 29.591 30.974 30.339 8.216.375 15.796-2.297 21.712-6.981 5.291-4.189 12.772-3.86 18.117.26 5.494 4.235 12.379 6.755 19.854 6.755s14.36-2.52 19.855-6.756c5.469-4.216 12.978-4.216 18.447 0 5.495 4.236 12.379 6.756 19.855 6.756s14.36-2.52 19.855-6.756c5.469-4.216 12.978-4.216 18.447 0 5.495 4.236 12.38 6.756 19.855 6.756s14.36-2.52 19.855-6.756c5.469-4.216 12.978-4.216 18.447 0 5.495 4.236 12.379 6.756 19.855 6.756s14.36-2.52 19.855-6.756c5.469-4.216 12.978-4.216 18.447 0 5.495 4.236 12.38 6.756 19.855 6.756 7.476 0 14.36-2.52 19.855-6.756 5.469-4.216 12.978-4.216 18.447 0 5.495 4.236 12.38 6.756 19.855 6.756s14.359-2.52 19.854-6.755c5.345-4.12 12.826-4.449 18.116-.26 5.916 4.684 13.497 7.356 21.712 6.981 16.4-.749 29.899-13.958 30.973-30.34.975-14.87-8.036-27.773-20.983-32.665z" fill="url(#SVGID_2_)"/><path d="m471.065 360.058c-6.964 2.632-12.188 8.468-14.263 15.618-8.011 27.614-30.741 72.497-93.869 72.497h-213.867c-63.128 0-85.858-44.883-93.869-72.497-2.074-7.15-7.298-12.986-14.263-15.618-12.947-4.893-21.958-17.795-20.983-32.666 1.075-16.382 14.574-29.591 30.974-30.34 8.216-.375 15.796 2.297 21.712 6.981 5.291 4.189 12.772 3.86 18.117-.26 5.494-4.235 12.379-6.755 19.854-6.755s14.36 2.52 19.855 6.756c5.469 4.216 12.978 4.216 18.447 0 5.495-4.236 12.379-6.756 19.855-6.756s14.36 2.52 19.855 6.756c5.469 4.216 12.978 4.216 18.447 0 5.495-4.236 12.38-6.756 19.855-6.756s14.36 2.52 19.855 6.756c5.469 4.216 12.978 4.216 18.447 0 5.495-4.236 12.379-6.756 19.855-6.756s14.36 2.52 19.855 6.756c5.469 4.216 12.978 4.216 18.447 0 5.495-4.236 12.38-6.756 19.855-6.756 7.476 0 14.36 2.52 19.855 6.756 5.469 4.216 12.978 4.216 18.447 0 5.495-4.236 12.38-6.756 19.855-6.756s14.359 2.52 19.854 6.755c5.345 4.12 12.826 4.449 18.116.26 5.916-4.684 13.497-7.356 21.712-6.98 16.4.749 29.899 13.958 30.973 30.34.975 14.87-8.036 27.772-20.983 32.665z" fill="url(#SVGID_3_)"/><ellipse cx="168.115" cy="156.557" fill="#ffb0d0" rx="14.936" ry="12.003"/><ellipse cx="343.886" cy="156.557" fill="#ffb0d0" rx="14.936" ry="12.003"/><path d="m256 166.744c-6.447 0-12.894-2.155-18.274-6.465-4.989-3.997-5.794-11.282-1.797-16.271 3.997-4.99 11.282-5.793 16.271-1.797 2.237 1.792 5.361 1.792 7.598 0 4.988-3.997 12.273-3.193 16.271 1.797 3.997 4.989 3.193 12.274-1.797 16.271-5.378 4.31-11.825 6.465-18.272 6.465z" fill="#383842"/><path d="m193.721 130.905c6.756 0 13.023 1.406 18.192 3.806 5.277 2.451 11.371.249 11.371-9.581 0-14.846-12.956-26.887-27.777-27.757-17.168-1.008-31.404 12.616-31.404 29.566 0 9.003 5.962 10.498 10.454 8.242 5.348-2.685 11.979-4.276 19.164-4.276z" fill="#fff"/><path d="m193.721 130.905c5.926 0 11.473 1.082 16.237 2.967.911-2.129 1.415-4.47 1.415-6.933 0-9.749-7.903-17.652-17.652-17.652s-17.652 7.903-17.652 17.652c0 2.463.504 4.803 1.415 6.933 4.764-1.885 10.312-2.967 16.237-2.967z" fill="#383842"/><path d="m318.306 130.905c6.756 0 13.023 1.406 18.192 3.806 5.277 2.451 11.371.249 11.371-9.581 0-14.846-12.956-26.887-27.777-27.757-17.168-1.008-31.404 12.616-31.404 29.566 0 9.003 5.962 10.498 10.454 8.242 5.347-2.685 11.979-4.276 19.164-4.276z" fill="#fff"/><path d="m318.306 130.905c5.926 0 11.473 1.082 16.237 2.967.911-2.129 1.415-4.47 1.415-6.933 0-9.749-7.903-17.652-17.652-17.652s-17.652 7.903-17.652 17.652c0 2.463.504 4.803 1.415 6.933 4.763-1.885 10.311-2.967 16.237-2.967z" fill="#383842"/><path d="m256 152.445c-6.912 0-12.515 4.851-12.515 10.834 0 .207.022.41.036.614 3.956 1.886 8.214 2.85 12.479 2.85s8.523-.964 12.479-2.85c.013-.205.036-.407.036-.614 0-5.984-5.603-10.834-12.515-10.834z" fill="#ff737d"/><path d="m55.197 375.677c1.92 6.618 4.686 14.229 8.65 21.975h144.073c10.381 0 18.797-8.416 18.797-18.797 0-10.381-8.416-18.797-18.797-18.797h-166.985c6.964 2.632 12.188 8.469 14.262 15.619z" fill="#9d79cc"/></svg>