<svg id="Layer_1" enable-background="new 0 0 512 512" height="512" viewBox="0 0 512 512" width="512" xmlns="http://www.w3.org/2000/svg" xmlns:xlink="http://www.w3.org/1999/xlink"><linearGradient id="SVGID_1_" gradientTransform="matrix(.908 .419 -.419 .908 133.154 -76.114)" gradientUnits="userSpaceOnUse" x1="212.101" x2="209.944" y1="27.384" y2="316.392"><stop offset="0" stop-color="#81d9e7"/><stop offset="1" stop-color="#b5e9f1"/></linearGradient><linearGradient id="lg1"><stop offset="0" stop-color="#ff737d"/><stop offset="1" stop-color="#ff929f"/></linearGradient><linearGradient id="SVGID_2_" gradientTransform="matrix(.908 .419 -.419 .908 133.154 -76.114)" gradientUnits="userSpaceOnUse" x1="419.304" x2="273.711" xlink:href="#lg1" y1="294.349" y2="401.117"/><linearGradient id="SVGID_3_" gradientTransform="matrix(.908 .419 -.419 .908 133.154 -76.114)" gradientUnits="userSpaceOnUse" x1="396.644" x2="246.74" xlink:href="#lg1" y1="95.013" y2="167.269"/><linearGradient id="SVGID_4_" gradientTransform="matrix(.908 .419 -.419 .908 133.154 -76.114)" gradientUnits="userSpaceOnUse" x1="43.741" x2="166.693" y1="60.363" y2="147.723"><stop offset=".516" stop-color="#ff737d"/><stop offset="1" stop-color="#ff929f"/></linearGradient><path d="m202.525 506.703c-28.804-13.29-41.382-47.414-28.092-76.218l118.191-256.171c9.122-19.772.458-43.279-19.314-52.401s-43.279-.458-52.401 19.314l-10.427 22.6c-13.29 28.804-47.413 41.382-76.218 28.092s-41.382-47.413-28.092-76.218c0 0 60.201-169.64 215.264-98.098 77.288 35.659 111.157 127.548 75.498 204.837l-118.19 256.171c-13.291 28.804-47.415 41.381-76.219 28.092z" fill="url(#SVGID_1_)"/><path d="m202.928 368.723-28.495 61.761c-6.36 13.785-6.795 28.789-2.364 42.144l131.856-48.6 51.438-111.49z" fill="url(#SVGID_2_)"/><path d="m401.919 105.45-107.749 39.714c3.115 9.233 2.848 19.625-1.547 29.15l-35.551 77.054 149.168-54.981c7.936-30.655 5.999-62.312-4.321-90.937z" fill="url(#SVGID_3_)"/><path d="m220.908 141.227c6.942-15.047 22.21-23.661 37.828-22.898l-42.094-114.213c-32.161 8.477-56.555 28.86-74.131 49.921l48.906 132.688c8.001-5.627 14.672-13.377 19.065-22.898z" fill="url(#SVGID_4_)"/><path d="m358.663 135.418c-5.217-25.208-17.076-40.244-27.386-50.768-3.865-3.945-3.8-10.277.146-14.142 3.947-3.865 10.277-3.798 14.142.146 12.299 12.555 25.72 32.85 32.622 60.42 1.341 5.357-2.186 10.788-7.59 11.933-6.825 1.447-10.967-2.914-11.934-7.589z" fill="#e6fdff"/><g fill="#ffd2dc"><path d="m358.663 135.418c.968 4.675 5.109 9.035 11.934 7.589 5.404-1.145 8.931-6.576 7.59-11.933-1.333-5.326-2.908-10.375-4.673-15.155l-18.302 6.746c1.336 3.94 2.504 8.177 3.451 12.753z"/><path d="m366.079 192.897c-5.402-1.148-8.751-6.593-7.521-11.977.886-3.873 1.553-7.831 1.983-11.765.6-5.491 5.549-9.446 11.027-8.854 5.49.601 9.454 5.538 8.854 11.028-.514 4.698-1.31 9.424-2.366 14.047-1.059 4.635-4.709 9.066-11.977 7.521z"/></g></svg>