<svg id="Layer_1" enable-background="new 0 0 512 512" height="512" viewBox="0 0 512 512" width="512" xmlns="http://www.w3.org/2000/svg" xmlns:xlink="http://www.w3.org/1999/xlink"><linearGradient id="SVGID_1_" gradientUnits="userSpaceOnUse" x1="256" x2="256" y1="393.365" y2="486.376"><stop offset="0" stop-color="#ffc477"/><stop offset="1" stop-color="#ffd097"/></linearGradient><linearGradient id="SVGID_2_" gradientUnits="userSpaceOnUse" x1="112.547" x2="399.453" y1="191.464" y2="191.464"><stop offset="0" stop-color="#ff737d"/><stop offset="1" stop-color="#ff929f"/></linearGradient><linearGradient id="SVGID_3_" gradientUnits="userSpaceOnUse" x1="179.687" x2="343.233" y1="275.115" y2="275.115"><stop offset="0" stop-color="#f46262"/><stop offset="1" stop-color="#ff737d"/></linearGradient><path d="m256 512c-19.051 0-34.495-15.444-34.495-34.495v-160.909h68.99v160.909c0 19.051-15.444 34.495-34.495 34.495z" fill="url(#SVGID_1_)"/><path d="m256 0c-57.002 0-117.458 51.523-123.92 119.247l-19.273 201.983c-3.157 33.083 22.857 61.697 56.09 61.697h174.206c33.233 0 59.247-28.614 56.09-61.697l-19.273-201.983c-6.462-67.724-66.917-119.247-123.92-119.247z" fill="url(#SVGID_2_)"/><path d="m308.524 76.583c-14.883-16.397-35.009-26.583-52.524-26.583-5.523 0-10-4.477-10-10 0-5.522 4.477-10 10-10 23.327 0 48.498 12.39 67.333 33.142 3.712 4.09 3.351 10.354-.684 14.125-5.934 5.545-12.151 1.49-14.125-.684z" fill="#ffd2dc"/><path d="m329.167 117.106c-.777-4.109-1.911-8.22-3.369-12.218-1.893-5.188.779-10.929 5.968-12.821 5.189-1.89 10.929.779 12.821 5.968 1.83 5.016 3.253 10.182 4.232 15.354 1.026 5.427-2.492 10.957-7.967 11.685-7.752 1.03-10.778-3.169-11.685-7.968z" fill="#ffd2dc"/><path d="m237.055 382.927h-58.155v-186.546c0-16.059 13.018-29.077 29.077-29.077 16.059 0 29.077 13.018 29.077 29.077v186.546z" fill="url(#SVGID_3_)"/><path d="m333.1 382.927h-58.155v-186.546c0-16.059 13.018-29.077 29.078-29.077 16.059 0 29.078 13.018 29.078 29.077v186.546z" fill="url(#SVGID_3_)"/><ellipse cx="168.115" cy="315.16" fill="#ffb0d0" rx="14.936" ry="12.003"/><ellipse cx="343.886" cy="315.16" fill="#ffb0d0" rx="14.936" ry="12.003"/><circle cx="193.721" cy="285.58" fill="#d65b5b" r="29.58"/><path d="m164.141 287.029c.774 15.667 13.721 28.132 29.58 28.132s28.806-12.465 29.58-28.132z" fill="#fff"/><path d="m176.136 287.029c.755 9.053 8.337 16.166 17.585 16.166s16.83-7.113 17.585-16.166z" fill="#383842"/><circle cx="318.279" cy="285.58" fill="#d65b5b" r="29.58"/><path d="m288.698 287.029c.774 15.667 13.721 28.132 29.58 28.132s28.806-12.465 29.58-28.132z" fill="#fff"/><path d="m300.693 287.029c.755 9.053 8.337 16.166 17.585 16.166s16.83-7.113 17.586-16.166z" fill="#383842"/><path d="m262.277 316.606c-3.755-3.481-8.8-3.481-12.555 0-3.038 2.816-7.783 2.636-10.599-.401-2.816-3.038-2.637-7.783.401-10.599 9.547-8.851 23.404-8.851 32.951 0 3.038 2.816 3.316 7.657.401 10.599-4.313 4.353-9.155 1.739-10.599.401z" fill="#383842"/><path d="m248.785 418.207h-27.28v-35.28h27.28c9.742 0 17.64 7.898 17.64 17.64 0 9.742-7.898 17.64-17.64 17.64z" fill="#ffac48"/></svg>