<svg id="Layer_1" enable-background="new 0 0 512 512" height="512" viewBox="0 0 512 512" width="512" xmlns="http://www.w3.org/2000/svg" xmlns:xlink="http://www.w3.org/1999/xlink"><linearGradient id="SVGID_1_" gradientUnits="userSpaceOnUse" x1="263.419" x2="291.062" y1="29.349" y2="99.008"><stop offset="0" stop-color="#ff737d"/><stop offset="1" stop-color="#ff929f"/></linearGradient><linearGradient id="SVGID_2_" gradientUnits="userSpaceOnUse" x1="86.312" x2="387.471" y1="121.615" y2="121.615"><stop offset="0" stop-color="#00bfd7"/><stop offset="1" stop-color="#3ccbde"/></linearGradient><linearGradient id="SVGID_3_" gradientUnits="userSpaceOnUse" x1="72.909" x2="415.046" y1="208.138" y2="208.138"><stop offset="0" stop-color="#3ccbde"/><stop offset="1" stop-color="#81d9e7"/></linearGradient><linearGradient id="SVGID_4_" gradientUnits="userSpaceOnUse" x1="74.407" x2="428.42" y1="287.812" y2="287.812"><stop offset="0" stop-color="#81d9e7"/><stop offset="1" stop-color="#b5e9f1"/></linearGradient><linearGradient id="SVGID_5_" gradientUnits="userSpaceOnUse" x1="86.633" x2="425.368" y1="437.567" y2="437.567"><stop offset="0" stop-color="#ffc477"/><stop offset="1" stop-color="#ffd097"/></linearGradient><linearGradient id="SVGID_6_" gradientUnits="userSpaceOnUse" x1="53.579" x2="458.421" y1="355.661" y2="355.661"><stop offset="0" stop-color="#ffd097"/><stop offset="1" stop-color="#ffe6ae"/></linearGradient><circle cx="276.878" cy="63.267" fill="url(#SVGID_1_)" r="53.199"/><path d="m99.66 116.466s-27.179-38.834-3.97-90.924c7.784-17.47 30.993-21.193 43.894-7.072 18.258 19.985 51.985 44.114 111.83 52.665 108.814 15.548 157.401 78.711 127.277 162.28-.972-1.944-279.031 10.981-279.031-116.949z" fill="url(#SVGID_2_)"/><path d="m318.279 166.693c0-9.665-7.314-17.743-16.928-18.734-13.496-1.392-28.146-2.378-44.059-2.966-33.967-1.254-59.208-6.714-77.953-12.93-18.919-6.274-24.342 13.328-24.342 13.328-2.41 9.803 3.336 19.753 13.028 22.576 18.646 5.429 49.264 13.322 75.915 15.424 21.613 1.704 40.749 3.963 54.237 3.976 20.102.017 20.102-20.674 20.102-20.674z" fill="#00a8c3"/><path d="m99.66 229.162s-60.188-52.507 0-112.696c0 .955 27.641 58.75 156.34 63.503 157.86 5.83 165.297 51.383 156.701 119.074 0 0-263.406 13.206-313.041-69.881z" fill="url(#SVGID_3_)"/><path d="m236.363 243.738c0 10.26 8.484 18.487 18.739 18.171l56.922-1.75c9.818-.302 17.621-8.348 17.621-18.171 0 0 0-19.171-19.084-18.165-24.202 1.276-43.339 1.483-56.209 1.736-17.989.353-17.989 18.179-17.989 18.179z" fill="#00bfd7"/><path d="m92.218 338.92s-44.652-54.688 7.442-109.758c0 0 49.7 41.179 207.122 29.518 151.671-11.235 118.586 87.783 118.586 87.783z" fill="url(#SVGID_4_)"/><path d="m86.633 363.134 29.074 104.267c7.351 26.363 31.367 44.599 58.736 44.599h163.114c27.369 0 51.385-18.236 58.737-44.599l29.074-104.267z" fill="url(#SVGID_5_)"/><path d="m238.236 422.244h-135.121l-9.907-35.527h145.028c9.811 0 17.764 7.953 17.764 17.764 0 9.81-7.953 17.763-17.764 17.763z" fill="#ffac48"/><path d="m427.365 386.716h-342.73c-17.152 0-31.056-13.904-31.056-31.056 0-17.152 13.904-31.056 31.056-31.056h342.73c17.152 0 31.056 13.904 31.056 31.056 0 17.152-13.904 31.056-31.056 31.056z" fill="url(#SVGID_6_)"/><path d="m285.353 57.233c-6.059-2.461-9.066-9.31-6.676-15.397.529-1.346 13.392-33.061 52.651-41.566 6.396-1.38 12.696 2.675 14.08 9.066 1.385 6.391-2.674 12.695-9.066 14.08-26.521 5.745-35.297 26.298-35.658 27.17-1.827 4.656-8.07 9.597-15.331 6.647z" fill="#73727c"/><ellipse cx="168.115" cy="472.288" fill="#ff97bd" rx="14.936" ry="12.003"/><ellipse cx="343.886" cy="472.288" fill="#ff97bd" rx="14.936" ry="12.003"/><circle cx="193.721" cy="442.67" fill="#fff" r="29.618"/><circle cx="318.279" cy="442.67" fill="#fff" r="29.618"/><g fill="#383842"><path d="m180.332 452.171c-3.515-2.192-4.955-6.556-2.959-10.186 3.279-5.963 9.544-9.668 16.349-9.668h.001c6.806 0 13.07 3.705 16.348 9.669 1.996 3.629.67 8.19-2.96 10.185-3.628 1.996-8.19.67-10.185-2.96-.94-1.71-2.554-1.895-3.204-1.895s-2.264.185-3.205 1.895c-1.365 2.485-5.433 5.923-10.185 2.96z"/><path d="m321.483 449.212c-.94-1.711-2.554-1.895-3.205-1.895-.65 0-2.264.185-3.204 1.895-1.996 3.629-6.555 4.956-10.185 2.96-3.63-1.995-4.955-6.556-2.959-10.185 3.278-5.964 9.542-9.669 16.348-9.669s13.07 3.705 16.349 9.668c1.996 3.63.532 7.956-2.959 10.186-4.89 3.123-8.819-.476-10.185-2.96z"/><path d="m267.671 482.474h-23.342c-6.508 0-11.784-5.276-11.784-11.784 0-6.508 5.276-11.784 11.784-11.784h23.342c6.508 0 11.784 5.276 11.784 11.784 0 6.508-5.276 11.784-11.784 11.784z"/></g><path d="m244.329 482.474h23.342s.803-10.834-11.671-10.834-11.671 10.834-11.671 10.834z" fill="#ff737d"/><path d="m168.115 360.233h-51.499c-5.523 0-10-4.478-10-10s4.477-10 10-10h51.499c5.523 0 10 4.478 10 10 0 5.523-4.477 10-10 10z" fill="#fff4de"/><path d="m213.054 360.233h-7.074c-5.523 0-10-4.478-10-10s4.477-10 10-10h7.074c5.523 0 10 4.478 10 10 0 5.523-4.477 10-10 10z" fill="#fff4de"/></svg>