<svg id="Layer_1" enable-background="new 0 0 512 512" height="512" viewBox="0 0 512 512" width="512" xmlns="http://www.w3.org/2000/svg" xmlns:xlink="http://www.w3.org/1999/xlink"><linearGradient id="SVGID_1_" gradientUnits="userSpaceOnUse" x1="124.038" x2="386.415" y1="196.33" y2="314.97"><stop offset="0" stop-color="#ffc477"/><stop offset="1" stop-color="#ffd097"/></linearGradient><path d="m434.944 259.89c5.472-15.325 4.238-31.413-2.182-45.059-4.87-10.352-.844-22.844 9.522-27.686 14.528-6.787 26.307-19.442 31.481-36.141 9.121-29.435-6.337-61.397-35.062-72.555-15.478-6.012-31.849-5.077-45.779 1.217-10.215 4.615-22.06.101-27.096-9.914-6.589-13.101-18.03-23.787-32.932-29.108s-30.523-4.298-43.92 1.667c-10.24 4.56-22.265.551-27.247-9.49-6.793-13.694-18.871-24.786-34.656-29.937-29.296-9.56-61.502 5.384-73.087 33.939-6.572 16.2-5.473 33.453 1.471 47.907 4.954 10.312.158 22.529-10.167 27.455-13.611 6.494-24.756 18.162-30.228 33.487s-4.238 31.414 2.182 45.06c4.951 10.523.537 22.884-9.959 27.892-13.611 6.494-24.756 18.162-30.228 33.487s-4.238 31.413 2.182 45.059c4.87 10.352.843 22.844-9.522 27.686-14.527 6.787-26.306 19.442-31.481 36.14-9.121 29.435 6.336 61.398 35.061 72.555 15.478 6.012 31.85 5.078 45.78-1.216 10.215-4.616 22.06-.101 27.096 9.914 6.589 13.101 18.03 23.787 32.931 29.108 14.902 5.321 30.524 4.298 43.92-1.667 10.241-4.56 22.266-.551 27.247 9.491 6.793 13.694 18.871 24.786 34.656 29.937 29.296 9.56 61.502-5.384 73.087-33.939 6.572-16.2 5.473-33.453-1.471-47.906-4.954-10.312-.158-22.529 10.167-27.455 13.611-6.494 24.756-18.162 30.228-33.487s4.238-31.414-2.182-45.06c-4.951-10.523-.537-22.884 9.959-27.892 13.612-6.496 24.757-18.164 30.229-33.489z" fill="url(#SVGID_1_)"/><g fill="#e7896e"><circle cx="197.076" cy="232.678" r="20.159"/><circle cx="316.37" cy="275.273" r="20.159"/><circle cx="159.47" cy="337.997" r="20.159"/><circle cx="278.764" cy="380.592" r="20.159"/></g><ellipse cx="206.686" cy="145.812" fill="#ff85ab" rx="14.936" ry="12.003" transform="matrix(.943 .333 -.333 .943 60.436 -60.564)"/><ellipse cx="372.401" cy="204.412" fill="#ff85ab" rx="14.936" ry="12.003" transform="matrix(.943 .333 -.333 .943 89.454 -112.459)"/><circle cx="240.702" cy="126.426" fill="#fff" r="29.618"/><circle cx="251.983" cy="130.415" fill="#383842" r="17.652"/><circle cx="358.133" cy="167.952" fill="#fff" r="29.618"/><circle cx="369.356" cy="171.92" fill="#383842" r="17.652"/><ellipse cx="291.932" cy="168.357" fill="#383842" rx="13.252" ry="17.352" transform="matrix(.943 .333 -.333 .943 72.829 -87.694)"/></svg>