<svg id="Layer_1" enable-background="new 0 0 512 512" height="512" viewBox="0 0 512 512" width="512" xmlns="http://www.w3.org/2000/svg" xmlns:xlink="http://www.w3.org/1999/xlink"><linearGradient id="SVGID_1_" gradientUnits="userSpaceOnUse" x1="255.263" x2="256.777" y1="340.825" y2="449.817"><stop offset="0" stop-color="#ffc477"/><stop offset="1" stop-color="#ffd097"/></linearGradient><linearGradient id="SVGID_2_" gradientUnits="userSpaceOnUse" x1="70.149" x2="441.674" y1="192.423" y2="192.423"><stop offset="0" stop-color="#ff737d"/><stop offset="1" stop-color="#ff929f"/></linearGradient><linearGradient id="SVGID_3_" gradientUnits="userSpaceOnUse" x1="43.774" x2="468.226" y1="107.886" y2="107.886"><stop offset="0" stop-color="#b24e2f"/><stop offset="1" stop-color="#dd6642"/></linearGradient><circle cx="92.063" cy="31.08" fill="#ffb0d0" r="17.925"/><path d="m255.912 512c-16.26 0-29.441-13.181-29.441-29.441v-190.256h58.882v190.256c0 16.26-13.182 29.441-29.441 29.441z" fill="url(#SVGID_1_)"/><path d="m348.035 26.779c-23.852-3.036-47.347 4.973-67.903 21.118-14.983 11.768-36.074 11.745-51.408.438-19.836-14.627-42.224-21.751-64.936-18.861-62.19 7.916-103.242 87.89-91.693 178.628s71.326 157.879 133.515 149.964c12.779-1.626 24.663-6.298 35.382-13.479 9.817-6.577 22.51-7.156 32.558-.938 9.999 6.188 20.956 10.232 32.663 11.721 62.19 7.915 121.967-59.226 133.515-149.964 11.549-90.737-29.503-170.712-91.693-178.627z" fill="url(#SVGID_2_)"/><path d="m264.41 192.423h-193.801c.322 5.183.815 10.412 1.486 15.68 1.684 13.23 4.391 25.95 7.983 38.017 6.253 2.428 13.047 3.753 20.15 3.69 14.506-.129 27.689-5.782 37.556-14.956 7.918-7.362 20.102-7.413 28.011-.043 9.987 9.306 23.381 15 38.11 15 14.734 0 28.131-5.698 38.119-15.009 7.885-7.351 20.062-7.351 27.947 0 4.314 4.021 9.264 7.369 14.682 9.874 10.942 5.059 23.436-3.052 23.436-15.107 0 0 0-13.798-12.554-16.563-8.433-1.858-19.824-7.604-31.125-20.583z" fill="#f46262"/><path d="m468.226 159.822c0-122.538-78.066-159.822-116.782-159.822s-65.145 8.565-87.987 26.668c-9.054 7.176-15.901 2.013-18.711-.061-21.97-16.199-46.737-23.911-84.367-23.911-37.457 0-115.882 38.646-116.603 155.499-.194 31.366 25.088 57.854 56.453 57.575 14.507-.129 27.689-5.782 37.556-14.955 7.859-7.306 20.152-7.37 28.001-.053 9.988 9.312 23.386 15.01 38.121 15.01 14.734 0 28.131-5.698 38.119-15.009 7.828-7.297 20.12-7.297 27.947 0 9.988 9.311 23.385 15.009 38.119 15.009s28.131-5.698 38.119-15.009c7.828-7.297 20.12-7.297 27.947 0 9.988 9.311 23.385 15.009 38.119 15.009 30.899 0 55.949-25.05 55.949-55.95z" fill="url(#SVGID_3_)"/><path d="m413.592 117.069c-2.36-9.874-5.639-18.924-9.744-26.899-2.528-4.91-.597-10.94 4.313-13.468 4.909-2.527 10.941-.597 13.468 4.314 4.841 9.403 8.682 19.969 11.414 31.403 1.284 5.372-1.953 11.145-7.4 12.051-6.755 1.122-10.954-2.811-12.051-7.401z" fill="#f8cfc5"/><path d="m428.226 169.822c-5.523 0-10-4.478-10-10 0-2.213-.032-4.429-.096-6.588-.161-5.521 4.183-10.127 9.703-10.289 5.497-.173 10.127 4.182 10.289 9.703.068 2.354.104 4.767.104 7.174 0 5.522-4.478 10-10 10z" fill="#f8cfc5"/><circle cx="415.781" cy="31.08" fill="#9ad880" r="17.925"/><circle cx="188.318" cy="75.403" fill="#ffefab" r="17.925"/><circle cx="336.363" cy="54.254" fill="#b5e9f1" r="17.925"/><ellipse cx="168.115" cy="303.059" fill="#ffc7de" rx="14.936" ry="12.003"/><ellipse cx="343.886" cy="303.059" fill="#ffc7de" rx="14.936" ry="12.003"/><circle cx="193.721" cy="273.441" fill="#fff" r="29.618"/><circle cx="181.756" cy="273.441" fill="#383842" r="17.652"/><circle cx="318.279" cy="273.441" fill="#fff" r="29.618"/><circle cx="306.313" cy="273.441" fill="#383842" r="17.652"/><path d="m263.59 280.635h-15.18c-3.007 0-5.658 1.976-6.506 4.862-2.672 9.09-5.742 27.748 14.097 27.748 19.838 0 16.769-18.659 14.096-27.748-.849-2.885-3.499-4.862-6.507-4.862z" fill="#383842"/><path d="m243.793 309.045c2.462 2.549 6.32 4.2 12.207 4.2 5.888 0 9.746-1.651 12.207-4.2-1.247-4.845-6.234-8.47-12.207-8.47s-10.96 3.625-12.207 8.47z" fill="#ffe6f1"/></svg>