<svg id="Layer_1" enable-background="new 0 0 512 512" height="512" viewBox="0 0 512 512" width="512" xmlns="http://www.w3.org/2000/svg" xmlns:xlink="http://www.w3.org/1999/xlink"><linearGradient id="lg1"><stop offset="0" stop-color="#5ed3bd"/><stop offset="1" stop-color="#77e8d2"/></linearGradient><linearGradient id="SVGID_1_" gradientUnits="userSpaceOnUse" x1="149.617" x2="15.804" xlink:href="#lg1" y1="240.053" y2="188.863"/><linearGradient id="SVGID_2_" gradientUnits="userSpaceOnUse" x1="362.299" x2="474.557" xlink:href="#lg1" y1="281.717" y2="311.353"/><linearGradient id="SVGID_3_" gradientUnits="userSpaceOnUse" x1="253.317" x2="257.807" y1="106.35" y2="360.504"><stop offset="0" stop-color="#77e8d2"/><stop offset="1" stop-color="#97f7e5"/></linearGradient><linearGradient id="SVGID_4_" gradientUnits="userSpaceOnUse" x1="253.893" x2="257.486" y1="123.719" y2="353.636"><stop offset="0" stop-color="#ff929f"/><stop offset="1" stop-color="#ffa5b5"/></linearGradient><path d="m168.217 233.915c12.862-1.888-44.041-103.694-53.427-119.389-9.385-15.695-29.717-20.811-45.412-11.425-9.549 5.71-15.179 15.473-16.01 25.778-.44 5.457-4.763 9.682-10.178 10.488-12.833 1.91-23.883 11.311-27.246 24.678-2.325 9.24-.516 18.549 4.259 25.979 2.761 4.297 1.318 10.035-3.148 12.514-7.722 4.285-13.721 11.63-16.046 20.87-3.363 13.367 1.923 26.879 12.324 34.634 4.389 3.273 6.198 9.04 4.003 14.056-4.144 9.471-3.805 20.735 1.906 30.285 9.385 15.695 29.717 20.81 45.413 11.425 15.694-9.386 114-72.143 103.562-79.893z" fill="url(#SVGID_1_)"/><path d="m343.783 278.085c-10.437-7.749 87.868-70.507 103.563-79.893 15.695-9.385 36.027-4.27 45.413 11.425 5.71 9.55 6.05 20.813 1.906 30.285-2.195 5.016-.386 10.784 4.003 14.056 10.401 7.755 15.687 21.267 12.324 34.634-2.325 9.241-8.324 16.585-16.046 20.87-4.466 2.478-5.91 8.217-3.148 12.514 4.775 7.429 6.584 16.738 4.259 25.979-3.363 13.367-14.414 22.769-27.246 24.678-5.415.806-9.738 5.031-10.178 10.488-.831 10.305-6.461 20.067-16.01 25.777-15.695 9.385-36.027 4.27-45.413-11.425-9.386-15.694-66.289-117.5-53.427-119.388z" fill="url(#SVGID_2_)"/><path d="m85.288 172.222c-13.873 12.485-8.797 25.267-2.352 33.586 3.377 4.359 1.956 10.651-2.999 13.07-9.727 4.75-20.51 14.051-13.99 30.217 5.11 12.669 18.905 19.419 31.732 14.721 11.903-4.359 39.299-24.547 39.441-37.685 6.092-11.641-8.489-42.39-16.912-51.862-9.077-10.207-24.766-11.185-34.92-2.047z" fill="#40c1a8"/><path d="m445.954 262.961c6.313 17.564-4.207 26.421-13.822 30.701-5.038 2.242-6.763 8.457-3.543 12.933 6.321 8.788 11.42 22.084-1.975 33.24-10.497 8.743-25.843 8.161-34.921-2.048-8.423-9.472-23.004-40.222-16.912-51.862.142-13.138 27.538-33.326 39.441-37.685 12.828-4.698 27.111 1.865 31.732 14.721z" fill="#40c1a8"/><circle cx="255.961" cy="255.99" fill="url(#SVGID_3_)" r="139.11"/><path d="m340.654 145.589c-14.624-11.231-31.734-19.72-50.753-24.505-19.02-4.785-38.109-5.403-56.307-2.43l10.472 84.373c1.986 16.001-15.979 26.743-29.135 17.422l-69.371-49.153c-11.231 14.624-19.72 31.734-24.506 50.754-4.785 19.02-5.403 38.111-2.43 56.309l84.373-10.474c16.001-1.986 26.743 15.979 17.422 29.135l-49.151 69.373c14.624 11.231 31.732 19.719 50.752 24.504s38.107 5.403 56.305 2.43l-10.471-84.373c-1.986-16.001 15.979-26.743 29.135-17.422l69.372 49.152c11.231-14.624 19.72-31.733 24.505-50.753s5.402-38.118 2.429-56.315l-84.371 10.481c-16.001 1.986-26.743-15.979-17.422-29.135z" fill="url(#SVGID_4_)"/><ellipse cx="167.733" cy="243.594" fill="#ffc7de" rx="14.936" ry="12.003" transform="matrix(.97 .243 -.243 .97 64.335 -33.5)"/><ellipse cx="338.218" cy="286.376" fill="#ffc7de" rx="14.936" ry="12.003" transform="matrix(.97 .243 -.243 .97 79.874 -73.708)"/><circle cx="199.778" cy="221.1" fill="#fff" r="29.618"/><circle cx="211.384" cy="224.012" fill="#383842" r="17.652"/><circle cx="320.59" cy="251.416" fill="#fff" r="29.618"/><circle cx="332.135" cy="254.314" fill="#383842" r="17.652"/><path d="m171.449 212.458c4.564-15.007 20.156-23.946 35.538-20.086s24.906 19.101 21.843 34.485z" fill="#40c1a8"/><path d="m292.297 242.784c4.564-15.007 20.156-23.946 35.538-20.086s24.906 19.101 21.844 34.485z" fill="#40c1a8"/><path d="m262.542 266.632-18.742-4.703c-4.018-1.008-6.457-5.082-5.449-9.1s5.082-6.457 9.1-5.449l18.742 4.703c4.018 1.008 6.457 5.082 5.449 9.1s-5.082 6.458-9.1 5.449z" fill="#383842"/><path d="m256.063 365.133c-5.522 0-10-4.478-10-10s4.477-10 10-10c15.197 0 30.211-3.907 43.418-11.299 4.819-2.694 10.913-.977 13.61 3.843 2.697 4.819.977 10.913-3.843 13.61-16.184 9.058-34.574 13.846-53.185 13.846z" fill="#dcfff8"/><g fill="#ffd2dc"><path d="m272.161 343.665c-5.295.973-10.683 1.468-16.098 1.468-5.522 0-10 4.478-10 10s4.477 10 10 10c6.239 0 12.451-.538 18.565-1.594z"/><path d="m215.876 357.478c-3.079-1.117-6.072-2.556-8.993-4.026-4.933-2.483-6.918-8.496-4.435-13.429 2.483-4.934 8.499-6.917 13.429-4.435 2.381 1.199 4.849 2.304 7.333 3.282 5.138 2.025 7.661 7.832 5.637 12.971-1.551 3.934-5.385 8.39-12.971 5.637z"/></g></svg>