<svg id="Layer_1" enable-background="new 0 0 512 512" height="512" viewBox="0 0 512 512" width="512" xmlns="http://www.w3.org/2000/svg" xmlns:xlink="http://www.w3.org/1999/xlink"><linearGradient id="SVGID_1_" gradientUnits="userSpaceOnUse" x1="255.52" x2="256.674" y1="333.726" y2="495.258"><stop offset="0" stop-color="#81d9e7"/><stop offset="1" stop-color="#b5e9f1"/></linearGradient><linearGradient id="SVGID_2_" gradientUnits="userSpaceOnUse" x1="103.532" x2="408.468" y1="181.592" y2="181.592"><stop offset="0" stop-color="#ffd097"/><stop offset="1" stop-color="#ffe6ae"/></linearGradient><linearGradient id="SVGID_3_" gradientUnits="userSpaceOnUse" x1="87.313" x2="424.688" y1="154.342" y2="154.342"><stop offset="0" stop-color="#dd6642"/><stop offset="1" stop-color="#e7896e"/></linearGradient><circle cx="178.55" cy="18.565" fill="#81d9e7" r="18.565"/><path d="m256 512c-14.99 0-27.141-12.152-27.141-27.141v-168.002h54.283v168.001c0 14.99-12.152 27.142-27.142 27.142z" fill="url(#SVGID_1_)"/><circle cx="256" cy="181.592" fill="url(#SVGID_2_)" r="152.468"/><path d="m103.534 180.83c-.103 21.123 4.087 41.249 11.752 59.567 19.632 10.79 40.488 19.155 62.382 25.011 10.212 2.731 20.608-3.743 22.65-14.114 0 0 3.137-15.834-12.707-21.025-20.272-6.642-84.077-49.439-84.077-49.439z" fill="#ffac48"/><path d="m421.812 123.625c-21.296-71.412-87.571-123.625-165.812-123.625s-144.516 52.213-165.812 123.625c-8.998 30.172 3.663 62.654 30.372 79.327 23.269 14.525 57.217 29.999 101.453 35.486 8.758 1.086 14.551 9.587 12.606 18.195-2.538 11.229-4.011 21.614-4.011 26.66 0 14.023 11.368 25.391 25.392 25.391 14.023 0 25.391-11.368 25.391-25.391 0-5.101-1.505-15.658-4.094-27.028-1.926-8.457 2.492-16.406 12.779-17.841 9.572-1.335 17.703 7.052 16.294 16.613-.527 3.577-.81 6.557-.81 8.512 0 10.955 8.881 19.836 19.836 19.836s19.836-8.881 19.836-19.836c0-3.09-.707-8.741-1.967-15.264-2.261-11.705 4.015-23.421 14.985-28.085 12.769-5.43 23.843-11.414 33.189-17.248 26.709-16.673 39.371-49.155 30.373-79.327z" fill="url(#SVGID_3_)"/><path d="m361.124 100.157c-6.21-8.93-13.503-17.039-21.675-24.103-4.178-3.611-4.638-9.927-1.026-14.104 3.611-4.179 9.926-4.637 14.105-1.026 9.435 8.155 17.852 17.514 25.015 27.814 3.154 4.534 2.099 10.862-2.5 13.92-6.236 4.144-11.977.293-13.919-2.501z" fill="#f8cfc5"/><path d="m378.689 136.486c-.659-2.207-1.39-4.429-2.173-6.601-1.873-5.196.82-10.926 6.016-12.799 5.195-1.873 10.926.82 12.798 6.016.91 2.523 1.759 5.103 2.523 7.667 1.579 5.292-1.362 11.114-6.724 12.441-6.972 1.727-11.146-2.385-12.44-6.724z" fill="#f8cfc5"/><circle cx="333.45" cy="18.565" fill="#ffc7de" r="18.565"/><circle cx="256" cy="37.13" fill="#b2e59c" r="18.565"/><circle cx="173.113" cy="71.276" fill="#ffefab" r="18.565"/><ellipse cx="168.115" cy="186.995" fill="#ffb0d0" rx="14.936" ry="12.003"/><ellipse cx="343.886" cy="186.995" fill="#ffb0d0" rx="14.936" ry="12.003"/><circle cx="193.721" cy="157.377" fill="#fff" r="29.618"/><circle cx="318.279" cy="157.377" fill="#fff" r="29.618"/><g fill="#383842"><circle cx="193.721" cy="157.377" r="17.652"/><circle cx="318.279" cy="157.377" r="17.652"/><path d="m256 190.455c-5.851 0-11.702-2.213-16.476-6.638-3.038-2.816-3.217-7.562-.401-10.599 2.817-3.037 7.562-3.217 10.599-.401 3.755 3.481 8.8 3.481 12.555 0 3.038-2.817 7.783-2.637 10.599.401s2.637 7.783-.401 10.599c-4.773 4.425-10.624 6.638-16.475 6.638z"/></g></svg>