<svg id="Layer_1" enable-background="new 0 0 512 512" height="512" viewBox="0 0 512 512" width="512" xmlns="http://www.w3.org/2000/svg" xmlns:xlink="http://www.w3.org/1999/xlink"><linearGradient id="lg1"><stop offset="0" stop-color="#3ccbde"/><stop offset="1" stop-color="#81d9e7"/></linearGradient><linearGradient id="SVGID_1_" gradientUnits="userSpaceOnUse" x1="117.496" x2="-2.699" xlink:href="#lg1" y1="289.541" y2="329.606"/><linearGradient id="SVGID_2_" gradientUnits="userSpaceOnUse" x1="386.904" x2="494.579" xlink:href="#lg1" y1="222.919" y2="191.619"/><linearGradient id="SVGID_3_" gradientUnits="userSpaceOnUse" x1="103.981" x2="408.018" y1="256" y2="256"><stop offset="0" stop-color="#81d9e7"/><stop offset="1" stop-color="#b5e9f1"/></linearGradient><linearGradient id="SVGID_4_" gradientUnits="userSpaceOnUse" x1="131.635" x2="380.365" y1="256" y2="256"><stop offset="0" stop-color="#b18cd9"/><stop offset="1" stop-color="#c7aee4"/></linearGradient><path d="m35.995 235.753c-4.622 7.921-5.344 17.039-2.754 25.136 1.956 6.115-1.534 12.534-7.543 14.794-8.865 3.335-16.604 9.845-21.341 19.041-9.236 17.929-3.352 40.299 13.509 51.364 8.648 5.675 18.588 7.535 27.947 6.077 6.344-.988 12.539 2.883 13.845 9.169 1.729 8.323 6.843 15.907 14.764 20.529 14.828 8.653 33.864 3.647 42.517-11.182 8.653-14.828 26.132-76.65 24.083-84.441-2.049-7.792-47.681-53.016-62.51-61.669s-33.864-3.647-42.517 11.182z" fill="url(#SVGID_1_)"/><path d="m59.388 279.587c-2.356 7.87.283 16.034 6.076 21.12 2.872 2.521 3.918 6.501 2.658 10.108-2.542 7.278-.822 15.684 5.101 21.377 8.106 7.79 20.993 7.535 28.783-.571 6.826-7.102 17.777-28.593 14.934-39.048-2.669-10.501-22.776-23.824-32.213-26.649-10.769-3.225-22.114 2.893-25.339 13.663z" fill="#00a8c3"/><path d="m437.578 130.137c7.921 4.622 13.035 12.206 14.764 20.528 1.305 6.286 7.501 10.158 13.845 9.17 9.359-1.458 19.299.402 27.947 6.078 16.861 11.066 22.744 33.436 13.508 51.364-4.737 9.195-12.476 15.705-21.341 19.04-6.009 2.261-9.498 8.679-7.542 14.794 2.59 8.096 1.868 17.215-2.754 25.136-8.653 14.828-27.688 19.835-42.517 11.182s-60.46-53.876-62.51-61.668c-2.049-7.792 15.43-69.614 24.083-84.443 8.653-14.828 27.689-19.834 42.517-11.181z" fill="url(#SVGID_2_)"/><path d="m438.777 179.808c5.923 5.692 7.642 14.099 5.1 21.377-1.26 3.607-.213 7.587 2.659 10.108 5.793 5.086 8.432 13.25 6.076 21.12-3.225 10.77-14.57 16.887-25.34 13.663-9.436-2.825-29.544-16.148-32.212-26.649-2.843-10.455 8.109-31.946 14.934-39.048 7.79-8.106 20.677-8.361 28.783-.571z" fill="#00a8c3"/><path d="m312.749 142.036-162.222 42.664c-15.486 4.073-28.586 14.575-35.575 28.982-8.717 17.967-15.937 45.577-6.583 81.144s29.223 56.053 45.651 67.408c13.173 9.104 29.745 11.804 45.231 7.731l162.222-42.665c15.486-4.073 28.586-14.576 35.576-28.983 8.717-17.968 15.936-45.578 6.582-81.145s-29.223-56.053-45.651-67.407c-13.174-9.103-29.746-11.802-45.231-7.729z" fill="url(#SVGID_3_)"/><path d="m342.366 304.253-137.819 36.246c-17.237 4.533-35.752-.37-48.042-13.278-20.957-22.011-29.444-53.442-22.483-82.974 4.2-17.819 17.926-31.849 35.631-36.505 45.933-12.08 91.866-24.161 137.799-36.241 17.237-4.533 35.752.37 48.042 13.278 21.266 22.336 29.691 54.371 22.165 84.279-4.348 17.284-18.056 30.662-35.293 35.195z" fill="url(#SVGID_4_)"/><ellipse cx="173.963" cy="287.336" fill="#ffb0d0" rx="14.936" ry="12.003" transform="matrix(.969 -.247 .247 .969 -65.456 51.744)"/><ellipse cx="344.311" cy="244.011" fill="#ffb0d0" rx="14.936" ry="12.003" transform="matrix(.969 -.247 .247 .969 -49.522 92.396)"/><path d="m261.648 275.546c-6.248 1.589-13.027 1.09-19.303-1.761-5.821-2.644-8.396-9.506-5.752-15.326 2.644-5.821 9.506-8.395 15.326-5.752 2.609 1.186 5.638.415 7.363-1.873 3.849-5.103 11.107-6.12 16.212-2.27 5.104 3.85 6.119 11.108 2.269 16.212-4.15 5.503-9.867 9.181-16.115 10.77z" fill="#383842"/><path d="m192.457 256.164c6.548-1.665 12.968-1.847 18.569-.795 5.718 1.074 11.082-2.562 8.659-12.088-3.659-14.388-19.184-22.864-33.762-20.054-16.886 3.255-27.326 19.968-23.148 36.394 2.219 8.725 8.365 8.704 12.163 5.41 4.521-3.92 10.556-7.096 17.519-8.867z" fill="#fff"/><path d="m192.457 256.164c5.743-1.461 11.386-1.779 16.468-1.127.358-2.288.27-4.681-.337-7.068-2.403-9.448-12.01-15.16-21.459-12.757-9.448 2.403-15.16 12.01-12.757 21.459.607 2.387 1.673 4.531 3.08 6.37 4.153-3 9.263-5.416 15.005-6.877z" fill="#383842"/><path d="m313.198 225.456c6.548-1.665 12.967-1.847 18.569-.795 5.718 1.074 11.082-2.562 8.659-12.088-3.659-14.388-19.184-22.864-33.762-20.054-16.886 3.255-27.326 19.968-23.148 36.394 2.219 8.725 8.365 8.705 12.163 5.41 4.52-3.92 10.555-7.096 17.519-8.867z" fill="#fff"/><path d="m313.198 225.456c5.743-1.461 11.386-1.779 16.467-1.127.358-2.288.27-4.681-.337-7.068-2.403-9.448-12.01-15.16-21.459-12.757-9.448 2.403-15.16 12.01-12.757 21.459.607 2.387 1.673 4.531 3.08 6.37 4.153-3 9.263-5.416 15.006-6.877z" fill="#383842"/><path d="m258.124 261.688c-6.699 1.704-10.934 7.786-9.459 13.585.051.201.123.391.186.586 4.299.853 8.663.738 12.797-.314 4.134-1.051 8.023-3.035 11.392-5.839-.037-.202-.065-.403-.117-.604-1.475-5.797-8.101-9.117-14.799-7.414z" fill="#ff737d"/><g fill="#e8ddf5"><path d="m276.81 296.662c-1.405-5.342 1.786-10.811 7.127-12.215l3.735-.983c5.34-1.406 10.81 1.786 12.214 7.127 1.405 5.342-1.786 10.81-7.127 12.215l-3.735.982c-7.052 1.463-11.034-2.638-12.214-7.126z"/><path d="m203.877 315.843c-1.405-5.342 1.786-10.81 7.127-12.215l36.266-9.538c5.338-1.406 10.81 1.786 12.214 7.127 1.405 5.342-1.786 10.81-7.127 12.215l-36.266 9.538c-6.955 1.365-11.034-2.639-12.214-7.127z"/></g></svg>