<svg id="Layer_1" enable-background="new 0 0 512 512" height="512" viewBox="0 0 512 512" width="512" xmlns="http://www.w3.org/2000/svg" xmlns:xlink="http://www.w3.org/1999/xlink"><linearGradient id="SVGID_1_" gradientUnits="userSpaceOnUse" x1="36.289" x2="475.711" y1="202" y2="202"><stop offset="0" stop-color="#ff737d"/><stop offset="1" stop-color="#ff929f"/></linearGradient><linearGradient id="SVGID_2_" gradientUnits="userSpaceOnUse" x1="8.187" x2="503.813" y1="393.852" y2="393.852"><stop offset="0" stop-color="#9ad880"/><stop offset="1" stop-color="#b2e59c"/></linearGradient><path d="m256 404c119.848 0 199.379-91.91 217.773-115.435 2.473-3.163 2.59-7.564.288-10.853l-180.829-258.327c-18.093-25.847-56.372-25.847-74.465 0l-180.828 258.326c-2.303 3.29-2.186 7.69.288 10.853 18.394 23.526 97.925 115.436 217.773 115.436z" fill="url(#SVGID_1_)"/><path d="m236.714 360.109c-91.734-8.273-146.399-74.49-173.137-119.023l-27.301 39.002c58.344 96.763 152.474 117.956 196.112 122.497 12.619 1.313 23.612-8.542 23.612-21.229 0-10.992-8.339-20.26-19.286-21.247z" fill="#f46262"/><path d="m19.738 387.855c30.961 51.764 98.825 124.145 236.262 124.145s205.301-72.381 236.262-124.145c16.53-27.636 15.209-62.414-3.257-88.796l-16.349-23.355s-71.209 125.262-216.656 125.262-216.656-125.262-216.656-125.262l-16.349 23.355c-18.466 26.382-19.786 61.16-3.257 88.796z" fill="url(#SVGID_2_)"/><path d="m411.757 421.829c-3.725-4.077-3.441-10.402.636-14.128 3.041-2.778 6.037-5.699 8.906-8.68 3.829-3.978 10.16-4.1 14.14-.269 3.978 3.83 4.099 10.16.268 14.14-3.163 3.286-6.405 6.577-9.822 9.572-5.247 4.599-12.155 1.523-14.128-.635z" fill="#d7f7c9"/><path d="m322.475 465.013c-1.466-5.324 1.663-10.829 6.988-12.295 19.199-5.284 37.079-12.917 53.141-22.685 4.718-2.871 10.87-1.372 13.74 3.348 2.87 4.719 1.371 10.87-3.348 13.74-17.647 10.732-37.142 19.46-58.227 24.881-6.185 1.59-11.073-2.551-12.294-6.989z" fill="#d7f7c9"/><ellipse cx="168.115" cy="284.913" fill="#ffc7de" rx="14.936" ry="12.003"/><ellipse cx="343.886" cy="284.913" fill="#ffc7de" rx="14.936" ry="12.003"/><path d="m262.277 286.358c-3.755-3.481-8.8-3.481-12.555 0-3.038 2.816-7.783 2.636-10.599-.401-2.816-3.038-2.637-7.783.401-10.599 9.547-8.85 23.404-8.85 32.951 0 3.038 2.816 3.316 7.657.401 10.599-4.313 4.353-9.155 1.739-10.599.401z" fill="#383842"/><g fill="#73727c"><ellipse cx="256" cy="86.795" rx="16.23" ry="25.726"/><ellipse cx="193.721" cy="162.608" rx="16.23" ry="25.726" transform="matrix(.955 .296 -.296 .955 56.766 -50.024)"/><ellipse cx="318.279" cy="162.608" rx="16.23" ry="25.726" transform="matrix(-.955 .296 -.296 -.955 670.413 223.798)"/></g><path d="m164.141 255.332c0-16.337 13.243-19.58 29.58-19.58s29.58 3.243 29.58 19.58-13.243 29.58-29.58 29.58-29.58-13.243-29.58-29.58z" fill="#fff"/><circle cx="193.721" cy="255.332" fill="#383842" r="18"/><path d="m223.302 255.332c0-16.337-13.243-29.58-29.58-29.58s-29.58 13.244-29.58 29.58c0 .486.013.969.037 1.449h59.087c.022-.48.036-.963.036-1.449z" fill="#f46262"/><path d="m288.699 255.332c0-16.337 13.243-19.58 29.58-19.58s29.58 3.243 29.58 19.58-13.243 29.58-29.58 29.58-29.58-13.243-29.58-29.58z" fill="#fff"/><circle cx="318.279" cy="255.332" fill="#383842" r="18"/><path d="m347.859 255.332c0-16.337-13.243-29.58-29.58-29.58s-29.58 13.244-29.58 29.58c0 .486.013.969.037 1.449h59.087c.022-.48.036-.963.036-1.449z" fill="#f46262"/></svg>