<svg id="Layer_1" enable-background="new 0 0 512 512" height="512" viewBox="0 0 512 512" width="512" xmlns="http://www.w3.org/2000/svg" xmlns:xlink="http://www.w3.org/1999/xlink"><linearGradient id="SVGID_1_" gradientUnits="userSpaceOnUse" x1="361.369" x2="475.129" y1="260.67" y2="260.67"><stop offset="0" stop-color="#894f49"/><stop offset="1" stop-color="#ad695e"/></linearGradient><linearGradient id="SVGID_2_" gradientUnits="userSpaceOnUse" x1="127.26" x2="402.261" y1="256" y2="256"><stop offset="0" stop-color="#ffc477"/><stop offset="1" stop-color="#ffd097"/></linearGradient><linearGradient id="SVGID_3_" gradientUnits="userSpaceOnUse" x1="58.692" x2="346.271" y1="260.67" y2="260.67"><stop offset="0" stop-color="#ad695e"/><stop offset="1" stop-color="#cc7e6e"/></linearGradient><path d="m388.554 489.396h-158.072c-35.762 0-64.754-28.991-64.754-64.754v-327.944c0-35.762 28.991-64.754 64.754-64.754h158.072c35.762 0 64.754 28.991 64.754 64.754v327.944c0 35.762-28.992 64.754-64.754 64.754z" fill="url(#SVGID_1_)"/><path d="m319.556 0h-109.591c-76.977 0-82.704 64.682-82.704 82.704v346.592c0 18.023 5.728 82.704 82.704 82.704h109.592c79.946 0 82.704-64.681 82.704-82.704v-346.592c0-18.022-2.758-82.704-82.705-82.704z" fill="url(#SVGID_2_)"/><path d="m281.518 489.396h-158.072c-35.762 0-64.754-28.991-64.754-64.754v-327.944c0-35.762 28.991-64.754 64.754-64.754h158.072c35.762 0 64.754 28.991 64.754 64.754v327.944c-.001 35.762-28.992 64.754-64.754 64.754z" fill="url(#SVGID_3_)"/><ellipse cx="114.596" cy="146.031" fill="#ffb0d0" rx="14.936" ry="12.003"/><ellipse cx="290.367" cy="146.031" fill="#ffb0d0" rx="14.936" ry="12.003"/><circle cx="140.203" cy="116.413" fill="#fff" r="29.618"/><circle cx="264.76" cy="116.413" fill="#fff" r="29.618"/><path d="m126.813 125.914c-3.515-2.192-4.955-6.556-2.959-10.186 3.279-5.963 9.543-9.668 16.349-9.668h.001c6.806 0 13.07 3.705 16.348 9.669 1.996 3.629.67 8.19-2.96 10.185-3.628 1.996-8.19.671-10.185-2.959-.94-1.71-2.554-1.895-3.204-1.895s-2.264.185-3.205 1.895c-1.364 2.484-5.432 5.923-10.185 2.959z" fill="#383842"/><path d="m267.965 122.956c-.94-1.71-2.554-1.895-3.205-1.895-.65 0-2.264.185-3.204 1.895-1.996 3.629-6.555 4.956-10.185 2.959-3.63-1.995-4.955-6.556-2.959-10.185 3.278-5.964 9.542-9.669 16.348-9.669s13.07 3.705 16.349 9.668c1.996 3.63.532 7.956-2.959 10.186-4.89 3.123-8.819-.476-10.185-2.959z" fill="#383842"/><path d="m214.153 156.217h-23.342c-6.508 0-11.784-5.276-11.784-11.784 0-6.508 5.276-11.784 11.784-11.784h23.342c6.508 0 11.784 5.276 11.784 11.784 0 6.508-5.276 11.784-11.784 11.784z" fill="#383842"/><path d="m190.811 156.217h23.342s.803-10.834-11.671-10.834c-12.475 0-11.671 10.834-11.671 10.834z" fill="#ff737d"/><g fill="#894f49"><circle cx="118.533" cy="238.988" r="14.425"/><circle cx="160.508" cy="316.42" r="14.425"/><circle cx="244.456" cy="316.42" r="14.425"/><circle cx="286.431" cy="238.988" r="14.425"/><circle cx="118.533" cy="393.852" r="14.425"/><circle cx="202.482" cy="238.988" r="14.425"/><circle cx="202.482" cy="393.852" r="14.425"/><circle cx="286.431" cy="393.852" r="14.425"/></g></svg>