<svg id="Layer_1" enable-background="new 0 0 512 512" height="512" viewBox="0 0 512 512" width="512" xmlns="http://www.w3.org/2000/svg" xmlns:xlink="http://www.w3.org/1999/xlink"><linearGradient id="SVGID_1_" gradientUnits="userSpaceOnUse" x1="0" x2="512" y1="256" y2="256"><stop offset="0" stop-color="#ffc477"/><stop offset="1" stop-color="#ffd097"/></linearGradient><linearGradient id="SVGID_2_" gradientUnits="userSpaceOnUse" x1=".197" x2="511.797" y1="197.712" y2="197.712"><stop offset="0" stop-color="#b24e2f"/><stop offset="1" stop-color="#dd6642"/></linearGradient><path d="m381.754 128.501c-11.14 0-240.369 0-251.508 0-139.502 0-130.114 130.114-130.114 130.114v40.499c0 46.605 37.781 84.386 84.386 84.386h342.963c46.605 0 84.387-37.781 84.387-84.386v-40.499c0-.001 9.388-130.114-130.114-130.114z" fill="url(#SVGID_1_)"/><path d="m.203 287.716c13.705 12.739 32.068 20.535 52.256 20.535 18.911 0 36.219-6.84 49.596-18.179 10.574-8.964 25.933-8.963 36.507 0 13.376 11.339 30.685 18.178 49.595 18.178 14.752 0 28.554-4.123 40.226-11.376 10.098-6.276 9.369-16.672 9.369-16.672 0-13.064-12.631-22.572-25.103-18.684-6.422 2.002-14.125 3.429-23.162 3.565-33.067.499-59.82-27.583-59.82-27.583h-128.737c-1.409 12.626-.798 21.114-.798 21.114v29.082c.023.006.048.014.071.02z" fill="#ffac48"/><path d="m381.759 128.501c-11.14 0-240.369 0-251.508 0-113.097 0-128.338 85.509-130.054 117.883 13.705 12.739 32.074 20.54 52.262 20.54 18.91 0 36.219-6.84 49.595-18.179 10.606-8.99 25.901-8.99 36.507 0 13.376 11.339 30.685 18.179 49.595 18.179 18.911 0 36.219-6.84 49.595-18.179 10.606-8.99 25.901-8.99 36.507 0 13.376 11.339 30.685 18.179 49.595 18.179s36.219-6.84 49.595-18.179c10.499-8.9 25.768-9.192 36.223-.242 14.25 12.198 33.017 19.265 53.451 18.339 18.757-.85 35.772-8.572 48.674-20.63-1.76-32.503-17.14-117.711-130.037-117.711z" fill="url(#SVGID_2_)"/><path d="m450.382 199.381c-9.255-11.857-22.336-19.44-39.993-23.184-5.402-1.145-8.854-6.453-7.708-11.856 1.146-5.402 6.45-8.855 11.856-7.708 22.144 4.693 39.508 14.937 51.61 30.443 3.398 4.354 2.644 10.664-1.73 14.035-6.097 4.699-12.063.798-14.035-1.73z" fill="#f8cfc5"/><ellipse cx="260.121" cy="337.869" fill="#ffb0d0" rx="14.936" ry="12.003"/><ellipse cx="435.892" cy="337.869" fill="#ffb0d0" rx="14.936" ry="12.003"/><circle cx="285.728" cy="308.251" fill="#fff" r="29.618"/><circle cx="297.694" cy="308.251" fill="#383842" r="17.652"/><circle cx="410.285" cy="308.251" fill="#fff" r="29.618"/><circle cx="422.189" cy="308.251" fill="#383842" r="17.652"/><ellipse cx="348.007" cy="330.704" fill="#383842" rx="13.252" ry="17.352"/><g fill="#a34325"><path d="m109.198 170.71c-4.795 11.209 1.681 24.935 13.181 27.245s19.658-2.289 23.593-11.435c13.083-30.41 35.955-49.091 49.432-58.019h-59.916c-9.772 11.461-19.118 25.443-26.29 42.209z"/><path d="m202.913 170.838c-4.795 11.209 1.681 24.935 13.181 27.245s19.658-2.289 23.593-11.435c13.146-30.556 36.175-49.271 49.627-58.148h-60c-9.812 11.486-19.202 25.509-26.401 42.338z"/><path d="m292.85 170.838c-4.795 11.209 1.681 24.935 13.181 27.245s19.658-2.289 23.593-11.435c13.146-30.556 36.176-49.271 49.627-58.148h-59.999c-9.812 11.486-19.203 25.509-26.402 42.338z"/></g><circle cx="471.85" cy="226.625" fill="#f8cfc5" r="10"/></svg>