<svg id="Layer_1" enable-background="new 0 0 512 512" height="512" viewBox="0 0 512 512" width="512" xmlns="http://www.w3.org/2000/svg" xmlns:xlink="http://www.w3.org/1999/xlink"><linearGradient id="SVGID_1_" gradientUnits="userSpaceOnUse" x1="251.991" x2="437.88" y1="116.603" y2="307.928"><stop offset="0" stop-color="#b18cd9"/><stop offset="1" stop-color="#c7aee4"/></linearGradient><linearGradient id="SVGID_2_" gradientUnits="userSpaceOnUse" x1="78.703" x2="259.157" y1="423.615" y2="249.683"><stop offset="0" stop-color="#9ad880"/><stop offset="1" stop-color="#b2e59c"/></linearGradient><path d="m256.209 288.264c38.965 37.119 89.943 61.628 146.481 67.381 54.536 5.549 103.244-34.161 108.792-88.697 5.55-54.536-34.163-103.244-88.697-108.793-22.882-2.329-41.261-19.838-44.697-42.58-8.186-54.204-58.763-91.506-112.966-83.318-54.202 8.186-91.505 58.762-83.318 112.965 8.489 56.193 35.44 105.923 74.405 143.042z" fill="url(#SVGID_1_)"/><path d="m350.475 344.608c9.216-21.948 15.686-44.968 19.271-68.705 8.927-59.105-20.876-115.28-70.335-142.679-12.677-7.022-28.5.355-31.075 14.616 0 0-2.715 15.143 9.891 21.804 17.078 9.025 44.098 31.152 48.282 65.038 0 .234-16.258 60.981-23.652 88.596 14.956 8.691 30.896 15.867 47.618 21.33z" fill="#996acc"/><path d="m255.791 412.971c-38.965 37.119-89.943 61.628-146.481 67.381-54.536 5.55-103.244-34.161-108.792-88.697-5.55-54.536 34.162-103.244 88.697-108.793 22.882-2.329 41.261-19.838 44.697-42.58 8.186-54.204 58.763-91.506 112.966-83.318 54.202 8.186 91.505 58.762 83.318 112.965-8.489 56.193-35.44 105.923-74.405 143.042z" fill="url(#SVGID_2_)"/><path d="m244.07 375.142c-4.284-3.485-4.932-9.784-1.447-14.068 1.635-2.011 3.256-4.084 4.818-6.162 3.317-4.416 9.585-5.307 14.001-1.988 4.415 3.317 5.306 9.587 1.988 14.002-1.715 2.283-3.487 4.568-5.293 6.77-5.228 6.373-12.212 2.955-14.067 1.446z" fill="#d7f7c9"/><path d="m171.759 428.239c-2.495-4.928-.522-10.944 4.405-13.439 14.662-7.423 28.483-16.707 41.079-27.596 4.177-3.611 10.492-3.151 14.105 1.025 3.611 4.179 3.152 10.493-1.026 14.105-13.827 11.953-28.998 22.174-45.125 30.309-5.966 3.011-11.676-.924-13.438-4.404z" fill="#d7f7c9"/><ellipse cx="121.267" cy="402.625" fill="#ffb0d0" rx="14.936" ry="12.003" transform="matrix(.757 -.653 .653 .757 -233.607 177.065)"/><ellipse cx="254.328" cy="287.777" fill="#ffb0d0" rx="14.936" ry="12.003" transform="matrix(.757 -.653 .653 .757 -126.235 236.102)"/><circle cx="121.299" cy="363.472" fill="#fff" r="29.618"/><circle cx="112.241" cy="371.291" fill="#383842" r="17.652"/><circle cx="215.591" cy="282.087" fill="#fff" r="29.618"/><circle cx="206.533" cy="289.906" fill="#383842" r="17.652"/><path d="m178.892 323.266-11.492 9.919c-2.277 1.965-2.992 5.193-1.749 7.931 3.916 8.627 13.784 24.758 28.802 11.795 15.018-12.962.503-25.082-7.459-30.217-2.528-1.628-5.825-1.393-8.102.572z" fill="#383842"/><path d="m182.468 357.709c3.529.321 7.528-.95 11.985-4.797s6.299-7.618 6.497-11.156c-4.11-2.853-10.254-2.339-14.776 1.564-4.521 3.903-5.928 9.906-3.706 14.389z" fill="#ff737d"/></svg>