<svg id="Layer_1" enable-background="new 0 0 512 512" height="512" viewBox="0 0 512 512" width="512" xmlns="http://www.w3.org/2000/svg" xmlns:xlink="http://www.w3.org/1999/xlink"><linearGradient id="SVGID_1_" gradientUnits="userSpaceOnUse" x1="65.739" x2="446.261" y1="117.2" y2="117.2"><stop offset="0" stop-color="#ffac48"/><stop offset="1" stop-color="#ffc477"/></linearGradient><linearGradient id="SVGID_2_" gradientUnits="userSpaceOnUse" x1="144.928" x2="367.072" y1="95.979" y2="95.979"><stop offset="0" stop-color="#b24e2f"/><stop offset="1" stop-color="#dd6642"/></linearGradient><linearGradient id="SVGID_3_" gradientUnits="userSpaceOnUse" x1="294.001" x2="380.157" y1="92.242" y2="92.242"><stop offset="0" stop-color="#ff737d"/><stop offset="1" stop-color="#ff929f"/></linearGradient><linearGradient id="SVGID_4_" gradientUnits="userSpaceOnUse" x1="298.565" x2="355.014" y1="42.883" y2="42.883"><stop offset="0" stop-color="#8dc971"/><stop offset="1" stop-color="#9ad880"/></linearGradient><linearGradient id="SVGID_5_" gradientUnits="userSpaceOnUse" x1="177.835" x2="458.878" y1="162.514" y2="162.514"><stop offset="0" stop-color="#ffc477"/><stop offset="1" stop-color="#ffd097"/></linearGradient><linearGradient id="SVGID_6_" gradientUnits="userSpaceOnUse" x1="53.122" x2="334.165" y1="162.514" y2="162.514"><stop offset="0" stop-color="#ffd097"/><stop offset="1" stop-color="#ffe6ae"/></linearGradient><linearGradient id="SVGID_7_" gradientUnits="userSpaceOnUse" x1="99.002" x2="412.998" y1="357.467" y2="357.467"><stop offset="0" stop-color="#81d9e7"/><stop offset="1" stop-color="#b5e9f1"/></linearGradient><path d="m65.739 81.311s54.366-81.311 190.261-81.311 190.261 81.311 190.261 81.311l-190.261 153.089z" fill="url(#SVGID_1_)"/><path d="m332.494 65.656c-5.895-.447-11.527.469-16.617 2.466-7.63 2.993-16.206.514-21.025-6.116-8.726-12.005-22.874-19.811-38.852-19.811s-30.126 7.806-38.852 19.811c-4.819 6.63-13.395 9.108-21.025 6.116-5.09-1.996-10.723-2.913-16.617-2.466-18.402 1.397-33.237 16.318-34.533 34.727-1.547 21.972 36.845 49.379 111.027 49.379s112.574-27.407 111.027-49.379c-1.295-18.409-16.131-33.33-34.533-34.727z" fill="url(#SVGID_2_)"/><path d="m378.425 68.464c5.947 22.979-3.552 63.072-26.532 69.019-22.979 5.947-50.737-24.503-56.684-47.482s10.807-35.042 33.786-40.989c22.98-5.948 43.483-3.528 49.43 19.452z" fill="url(#SVGID_3_)"/><path d="m352.599 23.578c-4.285-3.09-13.588 2.022-20.018 7.325-3.487 2.876-8.077 4.064-12.521 3.241-8.195-1.518-18.81-1.474-21.058 3.306-3.105 6.603 11.081 19.452 17.54 22.848 11.374 5.98 25.453 2.104 31.803-8.231 3.821-6.217 10.173-24.221 4.254-28.489z" fill="url(#SVGID_4_)"/><path d="m396.968 260.02 57.386-125.897c17.411-38.198-18.27-78.958-58.507-66.989-76.066 22.627-175.874 74.446-218.012 192.886z" fill="url(#SVGID_5_)"/><path d="m342.128 195.146c2.651-11.399-4.592-22.721-16.04-25.151-20.503-4.353-43.809-7.061-70.087-7.061-116.24 0-163.885 46.809-163.885 46.809l22.917 50.278h62.803 63.079v-53.868c34.878-1.155 61 1.9 77.21 4.804 10.937 1.958 21.486-4.989 24.003-15.811z" fill="#ffac48"/><path d="m115.032 260.02-57.386-125.897c-17.411-38.198 18.27-78.958 58.507-66.989 76.066 22.627 175.875 74.446 218.012 192.886z" fill="url(#SVGID_6_)"/><path d="m310.801 209.751c-10.097-17.185-21.564-32.531-33.963-46.228-6.73-.382-13.67-.59-20.838-.59-116.24 0-163.885 46.809-163.885 46.809l22.917 50.278h62.803 63.079v-53.868c30.035-.994 53.577 1.134 69.887 3.599z" fill="#ffc477"/><path d="m104.219 297.453c-10.653-19.961-4.54-44.786 14.24-57.404 26.096-17.535 70.293-37.115 137.542-37.115s111.445 19.581 137.542 37.115c18.78 12.619 24.892 37.444 14.24 57.404l-96.95 181.658c-23.403 43.851-86.26 43.851-109.663 0z" fill="url(#SVGID_7_)"/><ellipse cx="168.115" cy="313.768" fill="#ffb0d0" rx="14.936" ry="12.003"/><ellipse cx="343.886" cy="313.768" fill="#ffb0d0" rx="14.936" ry="12.003"/><circle cx="193.721" cy="284.15" fill="#fff" r="29.618"/><circle cx="205.687" cy="284.15" fill="#383842" r="17.652"/><circle cx="318.279" cy="284.15" fill="#fff" r="29.618"/><circle cx="330.182" cy="284.15" fill="#383842" r="17.652"/><path d="m164.141 282.664c.774-15.667 13.721-28.132 29.58-28.132s28.806 12.465 29.58 28.132z" fill="#3ccbde"/><path d="m288.736 282.664c.774-15.667 13.721-28.132 29.58-28.132s28.806 12.465 29.58 28.132z" fill="#3ccbde"/><path d="m265.68 313.037h-19.323c-4.142 0-7.5-3.358-7.5-7.5s3.358-7.5 7.5-7.5h19.323c4.142 0 7.5 3.358 7.5 7.5 0 4.143-3.358 7.5-7.5 7.5z" fill="#383842"/></svg>