<svg id="Layer_1" enable-background="new 0 0 512 512" height="512" viewBox="0 0 512 512" width="512" xmlns="http://www.w3.org/2000/svg" xmlns:xlink="http://www.w3.org/1999/xlink"><linearGradient id="SVGID_1_" gradientUnits="userSpaceOnUse" x1="87.789" x2="424.212" y1="261.745" y2="261.745"><stop offset="0" stop-color="#ffc477"/><stop offset="1" stop-color="#ffd097"/></linearGradient><linearGradient id="SVGID_2_" gradientUnits="userSpaceOnUse" x1="15.905" x2="496.095" y1="261.745" y2="261.745"><stop offset="0" stop-color="#ffd097"/><stop offset="1" stop-color="#ffe6ae"/></linearGradient><linearGradient id="SVGID_3_" gradientUnits="userSpaceOnUse" x1="5.865" x2="506.135" y1="141.655" y2="141.655"><stop offset="0" stop-color="#dd6642"/><stop offset="1" stop-color="#e7896e"/></linearGradient><path d="m362.99 96.432h-213.979l-61.222 57.651v215.323l61.222 57.651h213.979l61.222-57.651v-215.323z" fill="url(#SVGID_1_)"/><path d="m360.905 239.75c-15.143.808-36.141.572-55.771-4.287l-75.134-71.205h-142.211v74.913c41.174-.301 113.57 3.598 180.453 29.427 31.634 12.216 64.519 15.316 94.759 13.819 11.719-.58 20.787-10.481 20.311-22.204-.482-11.864-10.55-21.095-22.407-20.463z" fill="#ffac48"/><path d="m472.052 226.478c13.279 0 24.044-10.764 24.044-24.043 0-13.279-10.765-24.043-24.044-24.043h-14.213v-20.594c0-12.947-9.949-24.086-22.882-24.695-13.807-.65-25.205 10.352-25.205 24.016v21.273h-47.974c-12.385 0-22.425-10.04-22.425-22.425v-48.107h24.268c12.946 0 24.086-9.949 24.696-22.881.651-13.807-10.351-25.206-24.016-25.206h-24.948v-24.24c0-13.279-10.765-24.043-24.043-24.043-13.279 0-24.043 10.765-24.043 24.043v24.24h-70.532v-21.605c0-12.946-9.949-24.086-22.881-24.695-13.807-.65-25.206 10.352-25.206 24.016v22.284h-24.268c-12.946 0-24.086 9.949-24.695 22.881-.65 13.807 10.352 25.206 24.016 25.206h24.947v48.107c0 12.385-10.04 22.425-22.425 22.425h-48.107v-20.593c0-12.946-9.949-24.086-22.881-24.695-13.807-.65-25.206 10.352-25.206 24.016v21.273h-14.081c-13.279 0-24.043 10.765-24.043 24.043 0 13.279 10.765 24.043 24.043 24.043 0 0 14.079-.814 14.079 14.079v42.374c0 7.776-6.304 14.079-14.079 14.079 0 0-24.043 2.362-24.043 24.043 0 13.279 10.765 24.043 24.043 24.043h14.079v20.594c0 12.946 9.949 24.086 22.881 24.695 13.807.65 25.206-10.352 25.206-24.016 0 0-.854-21.273 20.594-21.273h27.514c12.385 0 22.425 10.04 22.425 22.425v23.84c0 25.926-24.268 24.268-24.268 24.268-12.946 0-24.086 9.949-24.695 22.881-.65 13.807 10.352 25.206 24.016 25.206h24.947v22.667c0 12.921 10.573 23.821 23.493 23.628 25.201-.376 24.594-24.011 24.594-24.011 0-12.307 9.977-22.284 22.284-22.284h25.964c24.295 0 22.284 24.24 22.284 24.24 0 13.279 10.765 24.043 24.043 24.043 13.279 0 24.043-10.764 24.043-24.043v-24.24h24.269c12.946 0 24.086-9.949 24.695-22.881.65-13.807-10.352-25.206-24.016-25.206 0 0-24.948 1.658-24.948-24.268v-23.84c0-12.385 10.04-22.425 22.425-22.425h27.38c20.532 0 20.594 20.594 20.594 20.594 0 12.946 9.949 24.086 22.881 24.695 13.807.65 25.206-10.352 25.206-24.016v-21.273h14.213c13.279 0 24.044-10.764 24.044-24.043 0-13.279-10.765-24.043-24.044-24.043 0 0-14.213-.189-14.213-14.079v-42.374c.001-13.622 14.214-14.08 14.214-14.08zm-228.893-118.619h25.682c12.385 0 22.425 10.04 22.425 22.425v25.682c0 12.385-10.04 22.425-22.425 22.425h-25.682c-12.385 0-22.425-10.04-22.425-22.425v-25.682c0-12.384 10.04-22.425 22.425-22.425zm48.107 141.044v25.682c0 12.385-10.04 22.425-22.425 22.425h-25.682c-12.385 0-22.425-10.04-22.425-22.425v-25.682c0-12.385 10.04-22.425 22.425-22.425h25.682c12.385 0 22.425 10.04 22.425 22.425zm-189.151 25.683v-25.682c0-12.385 10.04-22.425 22.425-22.425h25.682c12.385 0 22.425 10.04 22.425 22.425v25.682c0 12.385-10.04 22.425-22.425 22.425h-25.682c-12.385 0-22.425-10.04-22.425-22.425zm166.726 141.044h-25.682c-12.385 0-22.425-10.04-22.425-22.425v-25.682c0-12.385 10.04-22.425 22.425-22.425h25.682c12.385 0 22.425 10.04 22.425 22.425v25.682c0 12.385-10.04 22.425-22.425 22.425zm118.486-118.619h-25.549c-12.385 0-22.425-10.04-22.425-22.425v-25.682c0-12.385 10.04-22.425 22.425-22.425h25.549c12.385 0 22.425 10.04 22.425 22.425v25.682c0 12.385-10.04 22.425-22.425 22.425z" fill="url(#SVGID_2_)"/><path d="m339.353 274.586v-25.682c0-3.16.657-6.166 1.837-8.893-11.419-.325-23.993-1.561-36.055-4.547l-60.221-57.072h-1.755c-9.455 0-17.537-5.855-20.835-14.134h-51.267c-3.298 8.279-11.38 14.134-20.835 14.134h-48.107v-14.134h-48.087v14.134h-14.08c-13.279 0-24.043 10.765-24.043 24.043 0 13.279 10.765 24.043 24.043 24.043 0 0 14.079-.814 14.079 14.079s19.821-1.904 50.25-1.276c3.601-7.571 11.32-12.803 20.262-12.803h25.682c10.917 0 20.011 7.796 22.014 18.128 15.622 2.174 31.963 5.154 48.498 9.203v-4.906c0-12.385 10.04-22.425 22.425-22.425h25.682c12.385 0 22.425 10.04 22.425 22.425 0 0-.013 26.56-.037 26.988 16.638 4.207 33.354 6.246 49.615 6.749-.96-2.497-1.49-5.218-1.49-8.054z" fill="#ffc477"/><path d="m298.348 0h-84.696c-36.924 0-72.428 14.227-99.134 39.724l-100.157 95.62c-8.496 7.948-8.496 19.856-8.496 19.856 0 15.824 13.33 28.38 29.123 27.399 6.19-.385 13.242-.685 21.034-.802 16.48-.247 28.928 14.802 25.809 30.986-2.959 15.355-4.65 28.912-4.65 35.284 0 19.464 15.779 35.243 35.243 35.243s35.243-15.779 35.243-35.243c0-4.804-.962-13.693-2.702-24.358-2.979-18.25 14.171-33.777 31.779-28.13 15.208 4.877 21.137 16.497 18.421 29.521-2.818 13.512-4.46 25.961-4.46 31.434 0 14.789 11.988 26.777 26.777 26.777 14.788 0 26.777-11.988 26.777-26.777 0-2.256-.279-5.696-.804-9.908-1.611-12.919 10.928-23.141 23.217-18.845 102.353 35.787 182.767-3.04 218.812-26.692 12.868-8.443 20.651-22.755 20.651-38.146 0 0 0-21.288-14.096-32.946l-94.556-90.273c-26.708-25.497-62.211-39.724-99.135-39.724z" fill="url(#SVGID_3_)"/><path d="m349.815 217.28c-5.522 0-10.006-4.478-10.006-10 0-5.523 4.473-10 9.995-10 17.7 0 35.539-2.505 53.03-7.444 5.313-1.505 10.84 1.59 12.342 6.905 1.501 5.314-1.591 10.84-6.906 12.342-19.259 5.439-38.926 8.197-58.455 8.197z" fill="#f8cfc5"/><path d="m431.369 190.625c-2.371-4.988-.25-10.954 4.737-13.325 2.139-1.017 4.294-2.086 6.405-3.177 4.906-2.533 10.938-.613 13.475 4.295 2.534 4.906.612 10.939-4.295 13.475-2.306 1.191-4.587 2.527-6.997 3.47-7.643 2.99-11.612-1.137-13.325-4.738z" fill="#f8cfc5"/><ellipse cx="168.115" cy="140.816" fill="#ffb0d0" rx="14.936" ry="12.003"/><ellipse cx="343.886" cy="140.816" fill="#ffb0d0" rx="14.936" ry="12.003"/><circle cx="193.721" cy="111.199" fill="#fff" r="29.618"/><circle cx="318.279" cy="111.199" fill="#fff" r="29.618"/><g fill="#383842"><circle cx="193.721" cy="111.199" r="17.652"/><circle cx="318.279" cy="111.199" r="17.652"/><path d="m256 144.276c-5.851 0-11.702-2.213-16.476-6.638-3.038-2.816-3.217-7.562-.401-10.599 2.817-3.037 7.562-3.217 10.599-.401 3.755 3.481 8.8 3.481 12.555 0 3.038-2.817 7.783-2.637 10.599.401s2.637 7.783-.401 10.599c-4.773 4.425-10.624 6.638-16.475 6.638z"/></g></svg>