<svg id="Layer_1" enable-background="new 0 0 512 512" height="512" viewBox="0 0 512 512" width="512" xmlns="http://www.w3.org/2000/svg" xmlns:xlink="http://www.w3.org/1999/xlink"><linearGradient id="lg1"><stop offset="0" stop-color="#81d9e7"/><stop offset="1" stop-color="#b5e9f1"/></linearGradient><linearGradient id="SVGID_1_" gradientUnits="userSpaceOnUse" x1="86.097" x2="425.903" xlink:href="#lg1" y1="342.097" y2="342.097"/><linearGradient id="SVGID_2_" gradientUnits="userSpaceOnUse" x1="86.097" x2="425.903" xlink:href="#lg1" y1="77.444" y2="77.444"/><linearGradient id="SVGID_3_" gradientUnits="userSpaceOnUse" x1="50.232" x2="461.768" y1="172.194" y2="172.194"><stop offset="0" stop-color="#b5e9f1"/><stop offset="1" stop-color="#d7f6f9"/></linearGradient><linearGradient id="SVGID_4_" gradientUnits="userSpaceOnUse" x1="220.203" x2="116.962" y1="425.277" y2="430.056"><stop offset="0" stop-color="#a34325"/><stop offset="1" stop-color="#dd6642"/></linearGradient><linearGradient id="SVGID_5_" gradientUnits="userSpaceOnUse" x1="295.097" x2="168.913" y1="425.576" y2="430.356"><stop offset="0" stop-color="#dd6642"/><stop offset="1" stop-color="#e7896e"/></linearGradient><linearGradient id="SVGID_6_" gradientUnits="userSpaceOnUse" x1="359.347" x2="239.855" y1="427.911" y2="425.043"><stop offset="0" stop-color="#e7896e"/><stop offset="1" stop-color="#f2ad9a"/></linearGradient><path d="m350.044 512h-188.088c-41.896 0-75.859-33.963-75.859-75.859v-263.947h339.806v263.948c0 41.895-33.963 75.858-75.859 75.858z" fill="url(#SVGID_1_)"/><path d="m347.083 87.227h-35.48c-13.306 0-23.037-12.671-19.469-25.489 2.307-8.288 3.592-16.112 3.592-22.011 0-21.941-17.786-39.727-39.726-39.727s-39.726 17.786-39.726 39.726c0 5.899 1.286 13.723 3.592 22.011 3.567 12.818-6.164 25.489-19.469 25.489h-35.48c-82.73 0-78.79 67.661-78.79 67.661h339.747c-.001.001 3.939-67.66-78.791-67.66z" fill="url(#SVGID_2_)"/><path d="m430.76 203.202h-349.52c-17.125 0-31.008-13.883-31.008-31.008 0-17.125 13.883-31.008 31.008-31.008h349.52c17.125 0 31.008 13.883 31.008 31.008 0 17.125-13.883 31.008-31.008 31.008z" fill="url(#SVGID_3_)"/><path d="m147.348 465.31c26.483 23.811 63.35 25.987 82.345 4.86s12.926-57.556-13.557-81.367-63.35-25.987-82.345-4.86-12.926 57.556 13.557 81.367z" fill="url(#SVGID_4_)"/><path d="m290.394 465.31c-26.483 23.811-63.35 25.987-82.345 4.86s-12.926-57.556 13.557-81.367 63.35-25.987 82.345-4.86c18.996 21.127 12.926 57.556-13.557 81.367z" fill="url(#SVGID_5_)"/><path d="m358.17 465.31c-26.483 23.811-63.35 25.987-82.345 4.86s-12.926-57.556 13.557-81.367 63.35-25.987 82.345-4.86 12.925 57.556-13.557 81.367z" fill="url(#SVGID_6_)"/><ellipse cx="168.115" cy="324.107" fill="#ffb0d0" rx="14.936" ry="12.003"/><ellipse cx="343.886" cy="324.107" fill="#ffb0d0" rx="14.936" ry="12.003"/><path d="m256 334.294c-6.447 0-12.894-2.155-18.274-6.465-4.989-3.997-5.794-11.282-1.797-16.271 3.997-4.99 11.282-5.793 16.271-1.797 2.237 1.792 5.361 1.792 7.598 0 4.988-3.997 12.273-3.193 16.271 1.797 3.997 4.989 3.193 12.274-1.797 16.271-5.378 4.31-11.825 6.465-18.272 6.465z" fill="#383842"/><path d="m193.721 298.456c6.756 0 13.023 1.406 18.192 3.806 5.277 2.451 11.371.248 11.371-9.581 0-14.846-12.956-26.887-27.777-27.757-17.168-1.008-31.404 12.616-31.404 29.565 0 9.003 5.962 10.498 10.454 8.242 5.348-2.685 11.979-4.275 19.164-4.275z" fill="#fff"/><path d="m193.721 298.456c5.926 0 11.473 1.082 16.237 2.967.911-2.129 1.415-4.47 1.415-6.933 0-9.749-7.903-17.652-17.652-17.652s-17.652 7.903-17.652 17.652c0 2.463.504 4.803 1.415 6.933 4.764-1.885 10.312-2.967 16.237-2.967z" fill="#383842"/><path d="m318.306 298.456c6.756 0 13.023 1.406 18.192 3.806 5.277 2.451 11.371.248 11.371-9.581 0-14.846-12.956-26.887-27.777-27.757-17.168-1.008-31.404 12.616-31.404 29.565 0 9.003 5.962 10.498 10.454 8.242 5.347-2.685 11.979-4.275 19.164-4.275z" fill="#fff"/><path d="m318.306 298.456c5.926 0 11.473 1.082 16.237 2.967.911-2.129 1.415-4.47 1.415-6.933 0-9.749-7.903-17.652-17.652-17.652s-17.652 7.903-17.652 17.652c0 2.463.504 4.803 1.415 6.933 4.763-1.885 10.311-2.967 16.237-2.967z" fill="#383842"/><path d="m256 319.995c-6.912 0-12.515 4.851-12.515 10.834 0 .207.022.41.036.614 3.956 1.886 8.214 2.85 12.479 2.85s8.523-.964 12.479-2.85c.013-.205.036-.407.036-.614 0-5.983-5.603-10.834-12.515-10.834z" fill="#ff737d"/><path d="m290.435 240.19h-204.338v-36.988h204.339c10.214 0 18.494 8.28 18.494 18.494 0 10.214-8.28 18.494-18.495 18.494z" fill="#3ccbde"/><g fill="#f5ffff"><path d="m358.822 187.093h-49.892c-5.522 0-10-4.478-10-10 0-5.523 4.478-10 10-10h49.893c5.522 0 10 4.477 10 10-.001 5.522-4.478 10-10.001 10z"/><path d="m405.755 187.093h-8.72c-5.522 0-10-4.478-10-10 0-5.523 4.478-10 10-10h8.72c5.522 0 10 4.477 10 10 0 5.522-4.478 10-10 10z"/></g></svg>