<svg id="Layer_1" enable-background="new 0 0 512 512" height="512" viewBox="0 0 512 512" width="512" xmlns="http://www.w3.org/2000/svg" xmlns:xlink="http://www.w3.org/1999/xlink"><linearGradient id="lg1"><stop offset="0" stop-color="#894f49"/><stop offset="1" stop-color="#ad695e"/></linearGradient><linearGradient id="SVGID_1_" gradientUnits="userSpaceOnUse" x1="111.163" x2="512" xlink:href="#lg1" y1="256" y2="256"/><linearGradient id="SVGID_2_" gradientUnits="userSpaceOnUse" x1="337.864" x2="506.64" y1="255.576" y2="252.854"><stop offset="0" stop-color="#ffde55"/><stop offset="1" stop-color="#ffefab"/></linearGradient><linearGradient id="SVGID_3_" gradientUnits="userSpaceOnUse" x1="0" x2="400.837" y1="256" y2="256"><stop offset="0" stop-color="#ad695e"/><stop offset="1" stop-color="#cc7e6e"/></linearGradient><linearGradient id="SVGID_4_" gradientUnits="userSpaceOnUse" x1="75.181" x2="325.656" xlink:href="#lg1" y1="256" y2="256"/><circle cx="311.581" cy="256" fill="url(#SVGID_1_)" r="200.419"/><path d="m165.5 118.785v68.932h221.797c7.408 16.908 10.182 37.267 11.207 51.331.697 9.566 7.661 16.952 18.287 16.952s19.116-9.153 18.284-19.84c-10.186-130.877-119.264-180.579-123.493-180.579-57.604 0-109.523 24.293-146.082 63.204z" fill="#77423f"/><circle cx="311.581" cy="256" fill="url(#SVGID_2_)" r="154.924"/><path d="m435.076 236.16c-3.618-46.478-19.704-82.715-39.141-110.128-24.272-15.785-53.243-24.956-84.353-24.956-61.054 0-113.862 35.323-139.104 86.642l214.82-.001c7.408 16.908 10.182 37.267 11.208 51.331.697 9.566 7.661 16.952 18.287 16.952 10.625 0 19.115-9.153 18.283-19.84z" fill="#ffcd00"/><circle cx="200.419" cy="256" fill="url(#SVGID_3_)" r="200.419"/><circle cx="200.419" cy="256" fill="url(#SVGID_4_)" r="125.238"/><circle cx="200.419" cy="94.239" fill="#894f49" r="16.037"/><circle cx="200.419" cy="417.761" fill="#894f49" r="16.037"/><ellipse cx="112.533" cy="279.579" fill="#ffb0d0" rx="14.936" ry="12.003"/><ellipse cx="288.304" cy="279.579" fill="#ffb0d0" rx="14.936" ry="12.003"/><path d="m206.696 281.024c-3.755-3.482-8.8-3.482-12.555 0-3.038 2.816-7.783 2.636-10.599-.401-2.816-3.038-2.637-7.783.401-10.599 9.547-8.851 23.404-8.851 32.951 0 3.038 2.816 3.316 7.657.401 10.599-4.313 4.353-9.156 1.739-10.599.401z" fill="#383842"/><g fill="#894f49"><circle cx="86.036" cy="141.618" r="16.037"/><circle cx="314.801" cy="370.382" r="16.037"/><circle cx="38.658" cy="256" r="16.037"/><circle cx="362.18" cy="256" r="16.037"/><circle cx="86.036" cy="370.382" r="16.037"/><circle cx="314.801" cy="141.618" r="16.037"/></g><path d="m233.117 249.998c0-16.337 13.243-19.58 29.58-19.58s29.58 3.243 29.58 19.58-13.243 29.58-29.58 29.58-29.58-13.243-29.58-29.58z" fill="#fff"/><circle cx="262.697" cy="249.998" fill="#383842" r="18"/><path d="m292.278 249.998c0-16.337-13.243-29.58-29.58-29.58s-29.58 13.244-29.58 29.58c0 .486.013.969.037 1.449h59.087c.022-.48.036-.963.036-1.449z" fill="#77423f"/><path d="m108.56 249.998c0-16.337 13.243-19.58 29.58-19.58s29.58 3.243 29.58 19.58-13.243 29.58-29.58 29.58-29.58-13.243-29.58-29.58z" fill="#fff"/><circle cx="138.14" cy="249.998" fill="#383842" r="18"/><path d="m167.72 249.998c0-16.337-13.243-29.58-29.58-29.58s-29.58 13.244-29.58 29.58c0 .486.013.969.037 1.449h59.087c.023-.48.036-.963.036-1.449z" fill="#77423f"/></svg>