<svg id="Layer_1" enable-background="new 0 0 512 512" height="512" viewBox="0 0 512 512" width="512" xmlns="http://www.w3.org/2000/svg" xmlns:xlink="http://www.w3.org/1999/xlink"><linearGradient id="SVGID_1_" gradientUnits="userSpaceOnUse" x1="142.067" x2="440.738" y1="274.007" y2="266.188"><stop offset="0" stop-color="#f46262"/><stop offset="1" stop-color="#ff737d"/></linearGradient><linearGradient id="SVGID_2_" gradientUnits="userSpaceOnUse" x1="22.383" x2="489.617" y1="234.304" y2="234.304"><stop offset="0" stop-color="#a34325"/><stop offset="1" stop-color="#b24e2f"/></linearGradient><path d="m488.853 207.863c0 120.697-97.844 304.137-218.542 304.137s-218.541-183.44-218.541-304.137 97.844-178.476 218.541-178.476 218.542 57.778 218.542 178.476z" fill="url(#SVGID_1_)"/><path d="m442.132 229.961c-1.628-16.016-18.187-25.912-33.099-19.846-21.376 8.695-52.388 18.348-86.532 19.423 1.502 2.27-180.683 1.108-269.714.406 3.714 41.683 17.448 88.527 38.564 131.89l33.454 1.095s28.153-72.515 154.823-77.095c85.586-3.094 129.895-21.964 150.393-32.468 12.111-6.206 12.111-23.405 12.111-23.405z" fill="#d65b5b"/><path d="m442.427 49.817c-43.645-32.591-103.161-49.817-172.116-49.817s-128.47 17.226-172.115 49.817c-49.597 37.036-75.813 91.688-75.813 158.046 0 27.475 4.544 57.616 12.879 88.15 3.186 11.67 3.428 23.94.532 35.685-8.351 33.868-13.41 68.682-13.41 82.388 0 30.112 24.41 54.522 54.522 54.522s54.522-24.41 54.522-54.522c0-14.146-5.388-50.778-14.223-85.647-6.742-26.609 7.458-53.98 33.011-64.006 37.993-14.906 85.049-26.517 141.95-29.252 76.945-3.699 128.68-23.627 162.99-45.987 38.91-25.359 46.187-79.642 15.074-114.125-8.246-9.14-17.522-17.575-27.803-25.252z" fill="url(#SVGID_2_)"/><path d="m71.057 150.335c-5.202-1.856-7.459-8.025-5.304-13.11 6.546-15.441 15.584-29.59 26.861-42.054 3.706-4.093 10.03-4.409 14.125-.705 4.095 3.706 4.411 10.029.705 14.125-9.774 10.802-17.606 23.062-23.277 36.44-1.615 3.811-6.061 7.819-13.11 5.304z" fill="#f2ad9a"/><path d="m120.843 82.468c-3.087-4.58-1.849-10.799 2.739-13.874 2.663-1.785 5.44-3.541 8.252-5.219 4.743-2.831 10.882-1.278 13.711 3.465 2.83 4.743 1.278 10.882-3.465 13.711-2.513 1.499-4.99 3.065-7.364 4.656-1.708 1.146-8.949 4.567-13.873-2.739z" fill="#f2ad9a"/><g fill="#54545e"><circle cx="372.647" cy="323.856" r="26.023"/><circle cx="279.627" cy="323.856" r="26.023"/><circle cx="326.137" cy="419.366" r="26.023"/><circle cx="233.116" cy="419.366" r="26.023"/><circle cx="186.606" cy="323.856" r="26.023"/></g><ellipse cx="182.426" cy="175.007" fill="#ffb0d0" rx="14.936" ry="12.003"/><ellipse cx="358.197" cy="175.007" fill="#ffb0d0" rx="14.936" ry="12.003"/><circle cx="208.033" cy="145.389" fill="#fff" r="29.618"/><circle cx="332.59" cy="145.389" fill="#fff" r="29.618"/><path d="m194.643 154.89c-3.515-2.192-4.955-6.556-2.959-10.186 3.279-5.963 9.544-9.669 16.349-9.669h.001c6.806 0 13.07 3.705 16.348 9.669 1.996 3.629.67 8.19-2.96 10.185-3.628 1.996-8.19.67-10.185-2.959-.94-1.71-2.554-1.895-3.204-1.895s-2.264.185-3.205 1.895c-1.365 2.485-5.433 5.924-10.185 2.96z" fill="#383842"/><path d="m335.794 151.931c-.94-1.71-2.554-1.895-3.205-1.895-.65 0-2.264.185-3.204 1.895-1.996 3.629-6.555 4.956-10.185 2.959-3.63-1.995-4.955-6.556-2.959-10.185 3.278-5.964 9.542-9.669 16.348-9.669s13.07 3.705 16.349 9.669c1.996 3.63.532 7.956-2.959 10.186-4.89 3.123-8.819-.476-10.185-2.96z" fill="#383842"/><path d="m281.982 185.193h-23.342c-6.508 0-11.784-5.276-11.784-11.784 0-6.508 5.276-11.784 11.784-11.784h23.342c6.508 0 11.784 5.276 11.784 11.784.001 6.508-5.275 11.784-11.784 11.784z" fill="#383842"/><path d="m258.641 185.193h23.341s.803-10.834-11.671-10.834-11.67 10.834-11.67 10.834z" fill="#ff737d"/></svg>