<svg id="Layer_1" enable-background="new 0 0 512 512" height="512" viewBox="0 0 512 512" width="512" xmlns="http://www.w3.org/2000/svg" xmlns:xlink="http://www.w3.org/1999/xlink"><linearGradient id="lg1"><stop offset="0" stop-color="#81d9e7"/><stop offset="1" stop-color="#b5e9f1"/></linearGradient><linearGradient id="SVGID_1_" gradientUnits="userSpaceOnUse" x1="43.272" x2="468.728" xlink:href="#lg1" y1="344.872" y2="344.872"/><linearGradient id="SVGID_2_" gradientUnits="userSpaceOnUse" x1="88.608" x2="423.392" xlink:href="#lg1" y1="97.658" y2="97.658"/><linearGradient id="SVGID_3_" gradientUnits="userSpaceOnUse" x1="48.422" x2="463.578" y1="192.038" y2="192.038"><stop offset="0" stop-color="#b5e9f1"/><stop offset="1" stop-color="#d7f6f9"/></linearGradient><path d="m423.392 217.931-167.392-40.186-167.392 40.186s-63.518 44.13-40.186 119.632c15.88 51.387 62.56 113.629 90.758 148.146 13.611 16.661 34.015 26.29 55.53 26.29h122.58c21.514 0 41.919-9.629 55.53-26.29 28.198-34.517 74.878-96.759 90.758-148.146 23.332-75.502-40.186-119.632-40.186-119.632z" fill="url(#SVGID_1_)"/><path d="m50.291 268.003h231.15c10.916 0 19.766-8.849 19.766-19.766 0-10.916-8.849-19.766-19.766-19.766h-204.909c-8.379 8.438-19.249 21.796-26.241 39.532z" fill="#3ccbde"/><path d="m338.731 66.185h-31.151c-9.77 0-17.691-7.921-17.691-17.691v-14.605c0-18.717-15.173-33.889-33.889-33.889-18.716 0-33.888 15.172-33.888 33.888v14.605c0 9.77-7.92 17.691-17.691 17.691h-31.151c-75.839 0-84.661 85.667-84.661 85.667l167.391 43.464 167.392-43.464s-8.822-85.666-84.661-85.666z" fill="url(#SVGID_2_)"/><path d="m338.731 111.185h-31.151c-5.523 0-10-4.478-10-10s4.477-10 10-10h31.151c5.523 0 10 4.478 10 10s-4.477 10-10 10z" fill="#e6fdff"/><path d="m423.392 232.224h-334.784c-22.194 0-40.186-17.992-40.186-40.186 0-22.194 17.992-40.186 40.186-40.186h334.784c22.194 0 40.186 17.992 40.186 40.186 0 22.194-17.992 40.186-40.186 40.186z" fill="url(#SVGID_3_)"/><ellipse cx="168.114" cy="341.948" fill="#ffb0d0" rx="14.936" ry="12.003"/><ellipse cx="343.886" cy="341.948" fill="#ffb0d0" rx="14.936" ry="12.003"/><circle cx="193.721" cy="312.33" fill="#fff" r="29.618"/><circle cx="205.687" cy="312.33" fill="#383842" r="17.652"/><circle cx="318.279" cy="312.33" fill="#fff" r="29.618"/><circle cx="330.182" cy="312.33" fill="#383842" r="17.652"/><ellipse cx="256" cy="334.783" fill="#383842" rx="13.252" ry="17.352"/><circle cx="216.475" cy="409.295" fill="#ffefab" r="25.797"/><circle cx="256" cy="409.295" fill="#8dc971" r="25.797"/><circle cx="295.525" cy="409.295" fill="#b18cd9" r="25.797"/><circle cx="197.772" cy="450.113" fill="#b18cd9" r="25.797"/><circle cx="236.591" cy="450.113" fill="#ff737d" r="25.797"/><circle cx="275.409" cy="450.113" fill="#ffefab" r="25.797"/><circle cx="314.228" cy="450.113" fill="#8dc971" r="25.797"/><circle cx="371.812" cy="115.474" fill="#e6fdff" r="10"/></svg>