<svg id="Layer_1" enable-background="new 0 0 512 512" height="512" viewBox="0 0 512 512" width="512" xmlns="http://www.w3.org/2000/svg" xmlns:xlink="http://www.w3.org/1999/xlink"><linearGradient id="SVGID_1_" gradientUnits="userSpaceOnUse" x1="274.424" x2="460.322" y1="339.51" y2="339.51"><stop offset="0" stop-color="#ffc477"/><stop offset="1" stop-color="#ffd097"/></linearGradient><linearGradient id="SVGID_2_" gradientUnits="userSpaceOnUse" x1="51.678" x2="374.547" y1="355.289" y2="355.289"><stop offset="0" stop-color="#ffd097"/><stop offset="1" stop-color="#ffefab"/></linearGradient><linearGradient id="SVGID_3_" gradientUnits="userSpaceOnUse" x1="130.005" x2="302.847" y1="270.513" y2="270.513"><stop offset="0" stop-color="#dd6642"/><stop offset="1" stop-color="#e7896e"/></linearGradient><path d="m293.518 413.365c-15.826-15.826-22.251-39.577-17.627-65.161 4.16-23.02 16.755-46.002 35.466-64.712 18.709-18.709 41.691-31.305 64.711-35.465 25.584-4.624 49.335 1.801 65.161 17.627s22.251 39.577 17.627 65.161c-4.16 23.02-16.755 46.002-35.465 64.711-18.71 18.71-41.692 31.306-64.712 35.465-25.584 4.625-49.335-1.8-65.161-17.626zm107.216-107.216c-9.185-9.186-33.121-5.719-52.78 13.94-19.66 19.66-23.126 43.595-13.941 52.781 9.185 9.185 33.121 5.719 52.781-13.941 19.659-19.659 23.125-43.594 13.94-52.78z" fill="url(#SVGID_1_)"/><path d="m305.178 198.579h-184.131c-19.416 0-37.182 10.827-46.153 28.047-12.703 24.384-26.978 62.058-22.312 102.424 9.297 80.421 42.608 134.44 64.139 161.837 10.475 13.327 26.474 21.113 43.425 21.113h105.933c16.951 0 32.95-7.786 43.425-21.114 21.531-27.397 54.842-81.416 64.139-161.837 4.667-40.366-9.608-78.04-22.312-102.424-8.972-17.219-26.737-28.046-46.153-28.046z" fill="url(#SVGID_2_)"/><path d="m339.32 330.241c-7.323 0-10.36-5.165-9.987-10.676.964-14.229-1.288-29.669-6.692-45.892-1.746-5.239 1.087-10.902 6.327-12.648 5.238-1.747 10.901 1.087 12.647 6.327 6.231 18.704 8.813 36.725 7.673 53.564-.357 5.282-4.753 9.325-9.968 9.325z" fill="#fff9e1"/><path d="m328.354 377.752c-5.384-1.231-8.553-6.848-7.164-12.193.767-2.951 1.502-5.974 2.186-8.985 1.223-5.387 6.579-8.764 11.966-7.538 5.386 1.223 8.761 6.58 7.538 11.966-.729 3.212-1.514 6.438-2.332 9.587-1.171 4.501-4.71 8.875-12.194 7.163z" fill="#fff9e1"/><path d="m121.047 198.579c-2.427 0-4.829.169-7.191.499v11.519c0 11.148-1.282 22.251-3.822 33.105-5.51 23.539-15.03 66.182-15.03 79.81 0 42.683 34.725 77.407 77.408 77.407 8.148 0 16.004-1.267 23.384-3.613 11.018-3.502 15.235-16.737 10.173-26.417-4.287-8.197-13.237-10.948-21.475-8.32-6.089 1.943-14.265 2.729-24.252-.448-.162 0-.126-91.931-.074-163.544h-39.121z" fill="#ffc477"/><path d="m288.651 230.95v-26.92c0-15.974-12.95-28.924-28.924-28.924h-81.947c-15.974 0-28.924 12.95-28.924 28.924v23.669c0 7.774-1.321 15.481-3.832 22.839-9.187 26.915-15.02 59.994-15.02 72.975 0 23.421 18.987 42.408 42.408 42.408s42.408-18.987 42.408-42.408c0-9.738-3.283-30.789-8.802-52.062-3.272-12.614 6.869-24.919 19.888-24.06 12.378.817 20.181 12.023 17.316 24.093-3.404 14.346-5.387 27.806-5.387 34.432 0 17.952 14.553 32.506 32.506 32.506s32.506-14.553 32.506-32.506c0-9.566-4.133-33.376-10.711-53.533-2.26-6.927-3.485-14.148-3.485-21.433z" fill="url(#SVGID_3_)"/><path d="m238.884 149.565c-8.44-6.101-9.22-18.49-2.612-26.539 14.531-17.703 2.964-29.27-1.391-33.624-29.968-29.968-20.536-63.437-3.353-82.991 6.874-7.824 18.791-8.592 26.612-1.718 7.823 6.874 8.592 18.789 1.717 26.612-13.909 15.829-2.576 27.162 1.69 31.429 19.365 19.365 20.903 39.117 18.783 52.275-2.405 14.921-10.372 26.418-14.907 31.944-3.728 4.542-14.629 11.221-26.539 2.612z" fill="#f8cfc5"/><path d="m154.702 149.565c-8.412-6.139-9.221-18.488-2.614-26.538 14.529-17.705 2.964-29.271-1.391-33.626-7.363-7.363-7.363-19.304.001-26.667 7.364-7.365 19.303-7.365 26.668 0 19.364 19.365 20.902 39.116 18.782 52.275-2.404 14.918-10.371 26.417-14.906 31.942-3.729 4.542-14.386 11.484-26.54 2.614z" fill="#f8cfc5"/><ellipse cx="125.227" cy="446.414" fill="#ffb0d0" rx="14.936" ry="12.003"/><ellipse cx="300.998" cy="446.414" fill="#ffb0d0" rx="14.936" ry="12.003"/><circle cx="150.834" cy="416.796" fill="#fff" r="29.618"/><circle cx="138.868" cy="416.796" fill="#383842" r="17.652"/><circle cx="275.391" cy="416.796" fill="#fff" r="29.618"/><circle cx="263.426" cy="416.796" fill="#383842" r="17.652"/><path d="m220.703 423.99h-15.181c-3.007 0-5.658 1.976-6.506 4.862-2.672 9.09-5.742 27.748 14.097 27.748 19.838 0 16.769-18.659 14.097-27.748-.849-2.886-3.5-4.862-6.507-4.862z" fill="#383842"/><path d="m200.905 452.4c2.461 2.549 6.32 4.2 12.207 4.2 5.888 0 9.746-1.651 12.208-4.2-1.247-4.845-6.234-8.47-12.208-8.47-5.973 0-10.96 3.625-12.207 8.47z" fill="#ff737d"/></svg>