<svg id="Layer_1" enable-background="new 0 0 512 512" height="512" viewBox="0 0 512 512" width="512" xmlns="http://www.w3.org/2000/svg" xmlns:xlink="http://www.w3.org/1999/xlink"><linearGradient id="SVGID_1_" gradientUnits="userSpaceOnUse" x1="42.703" x2="225.843" y1="149.939" y2="149.939"><stop offset="0" stop-color="#ff8103"/><stop offset="1" stop-color="#ff9827"/></linearGradient><linearGradient id="SVGID_2_" gradientUnits="userSpaceOnUse" x1="88.585" x2="216.17" y1="168.044" y2="168.044"><stop offset="0" stop-color="#ffc477"/><stop offset="1" stop-color="#ffd097"/></linearGradient><linearGradient id="SVGID_3_" gradientUnits="userSpaceOnUse" x1="309.397" x2="469.297" y1="91.259" y2="91.259"><stop offset="0" stop-color="#ffde55"/><stop offset="1" stop-color="#ffefab"/></linearGradient><linearGradient id="SVGID_4_" gradientUnits="userSpaceOnUse" x1="124.222" x2="435.176" y1="327.452" y2="327.452"><stop offset="0" stop-color="#81d9e7"/><stop offset="1" stop-color="#b5e9f1"/></linearGradient><linearGradient id="SVGID_5_" gradientUnits="userSpaceOnUse" x1="124.222" x2="435.176" y1="288.657" y2="288.657"><stop offset="0" stop-color="#ff9827"/><stop offset="1" stop-color="#ffac48"/></linearGradient><path d="m77.257 92.924c-34.743 34.743-43.286 85.764-25.63 128.513 8.903 21.557 37.067 26.892 53.559 10.4l110.984-110.985c16.492-16.492 11.156-44.655-10.4-53.559-42.749-17.656-93.77-9.112-128.513 25.631z" fill="url(#SVGID_1_)"/><path d="m105.185 231.837s-41.112-57.748 6.062-104.923c47.175-47.175 104.923-6.062 104.923-6.062z" fill="url(#SVGID_2_)"/><path d="m309.397 170.929 19.618-90.867c4.67-21.624 19.463-40.032 39.573-49.244l61.809-28.318c13.789-6.313 30.083-.259 36.399 13.526 6.316 13.786.26 30.083-13.526 36.399l-61.81 28.317c-4.455 2.041-7.732 6.119-8.766 10.909l-19.618 90.866z" fill="url(#SVGID_3_)"/><path d="m124.891 191.888 49.827 276.854c4.506 25.039 26.297 43.258 51.738 43.258h106.486c25.441 0 47.232-18.219 51.738-43.258l49.827-276.854c4.593-25.523-15.023-48.985-40.956-48.985h-227.704c-25.933 0-45.549 23.463-40.956 48.985z" fill="url(#SVGID_4_)"/><path d="m159.835 386.05 14.389 79.951c9.91 4.139 20.756 6.408 32.064 6.408h70.747c10.894 0 19.725-8.831 19.725-19.725 0-10.894-8.831-19.725-19.725-19.725h-60.856z" fill="#3ccbde"/><path d="m393.55 142.903h-227.703c-25.933 0-45.549 23.462-40.956 48.985l32.087 178.286 4.874 27.083c3.87 21.505 22.585 37.153 44.436 37.153h146.82c21.851 0 40.566-15.647 44.436-37.153l4.874-27.083 32.087-178.286c4.595-25.523-15.022-48.985-40.955-48.985z" fill="url(#SVGID_5_)"/><path d="m343.786 409.409h-10.24c-5.522 0-10-4.478-10-10 0-5.523 4.478-10 10-10h10.24c5.174 0 9.603-3.693 10.53-8.782l2.862-15.684c.991-5.434 6.201-9.032 11.634-8.042 5.433.992 9.033 6.2 8.042 11.634l-2.862 15.683c-2.664 14.597-15.367 25.191-30.206 25.191z" fill="#ffe6ae"/><path d="m295.595 409.409h-8.344c-5.523 0-10-4.478-10-10 0-5.523 4.477-10 10-10h8.344c5.522 0 10 4.477 10 10s-4.478 10-10 10z" fill="#ffe6ae"/><ellipse cx="191.813" cy="309.49" fill="#ffc7de" rx="14.936" ry="12.003"/><ellipse cx="367.584" cy="309.49" fill="#ffc7de" rx="14.936" ry="12.003"/><circle cx="217.42" cy="279.872" fill="#fff" r="29.618"/><circle cx="229.386" cy="279.872" fill="#383842" r="17.652"/><circle cx="341.977" cy="279.872" fill="#fff" r="29.618"/><circle cx="353.881" cy="279.872" fill="#383842" r="17.652"/><path d="m187.84 278.386c.774-15.667 13.721-28.132 29.58-28.132s28.806 12.465 29.58 28.132z" fill="#ff5f06"/><path d="m312.435 278.386c.774-15.667 13.721-28.132 29.58-28.132s28.806 12.465 29.58 28.132z" fill="#ff5f06"/><path d="m289.379 308.759h-19.323c-4.142 0-7.5-3.358-7.5-7.5s3.358-7.5 7.5-7.5h19.323c4.142 0 7.5 3.358 7.5 7.5s-3.358 7.5-7.5 7.5z" fill="#383842"/></svg>