<svg id="Layer_1" enable-background="new 0 0 512 512" height="512" viewBox="0 0 512 512" width="512" xmlns="http://www.w3.org/2000/svg" xmlns:xlink="http://www.w3.org/1999/xlink"><linearGradient id="SVGID_1_" gradientUnits="userSpaceOnUse" x1="148.884" x2="512" y1="179.649" y2="179.649"><stop offset="0" stop-color="#9ad880"/><stop offset="1" stop-color="#b2e59c"/></linearGradient><linearGradient id="SVGID_2_" gradientUnits="userSpaceOnUse" x1="0" x2="363.116" y1="342.379" y2="342.379"><stop offset="0" stop-color="#ff737d"/><stop offset="1" stop-color="#ff929f"/></linearGradient><circle cx="181.711" cy="116.218" fill="#d0f2c0" r="19.04"/><circle cx="479.174" cy="116.218" fill="#d0f2c0" r="19.04"/><path d="m330.442 22.393c-165.967 0-181.558 188.224-181.558 235.091 0 0 0 79.421 79.421 79.421h204.273c79.489 0 79.421-79.421 79.421-79.421.001-46.867-15.59-235.091-181.557-235.091z" fill="url(#SVGID_1_)"/><path d="m458.948 217.464c-1.828-13.052-4.404-25.699-7.655-37.589-1.457-5.327 1.681-10.826 7.008-12.283 5.33-1.462 10.827 1.682 12.283 7.008 3.476 12.709 6.225 26.197 8.171 40.091.767 5.469-3.026 10.688-8.517 11.29-6.972.764-10.59-3.517-11.29-8.517z" fill="#f2ffeb"/><path d="m324.477 272.499v64.406h69.172c-4.803-21.763-12.004-45.486-22.815-68.699-13.417-28.811-30.632-52.958-51.317-72.03-8.304-7.656-21.657-9.692-31.507 3.525-6.817 9.147-8.164 17.895 0 25.657 10.67 10.146 27.868 26.748 36.467 47.141z" fill="#8dc971"/><circle cx="330.442" cy="31.404" fill="#d0f2c0" r="19.04"/><circle cx="242.932" cy="50.347" fill="#d0f2c0" r="18.943"/><circle cx="417.952" cy="50.347" fill="#d0f2c0" r="18.943"/><circle cx="379.97" cy="129.371" fill="#d0f2c0" r="19.04"/><circle cx="292.127" cy="116.218" fill="#d0f2c0" r="19.04"/><circle cx="32.826" cy="278.949" fill="#ffd7d7" r="19.04"/><circle cx="330.289" cy="278.949" fill="#ffd7d7" r="19.04"/><path d="m181.558 185.123c-165.967 0-181.558 188.225-181.558 235.091 0 0 0 79.421 79.421 79.421h204.273c79.489 0 79.421-79.421 79.421-79.421.001-46.866-15.59-235.091-181.557-235.091z" fill="url(#SVGID_2_)"/><g fill="#ffd7d7"><circle cx="181.558" cy="194.134" r="19.04"/><circle cx="94.048" cy="213.077" r="18.943"/><circle cx="269.068" cy="213.077" r="18.943"/><circle cx="82.056" cy="320.804" r="19.04"/><circle cx="281.06" cy="326.877" r="19.04"/><circle cx="143.242" cy="278.949" r="19.04"/><circle cx="219.873" cy="278.949" r="19.04"/></g><ellipse cx="93.672" cy="432.012" fill="#ffb0d0" rx="14.936" ry="12.003"/><ellipse cx="269.443" cy="432.012" fill="#ffb0d0" rx="14.936" ry="12.003"/><circle cx="119.279" cy="402.394" fill="#fff" r="29.618"/><circle cx="243.837" cy="402.394" fill="#fff" r="29.618"/><circle cx="119.279" cy="402.394" fill="#383842" r="17.652"/><circle cx="243.837" cy="402.394" fill="#383842" r="17.652"/><path d="m181.558 435.472c-5.851 0-11.702-2.213-16.476-6.638-3.038-2.816-3.217-7.561-.401-10.599 2.817-3.037 7.562-3.217 10.599-.401 3.755 3.482 8.8 3.482 12.555 0 3.038-2.817 7.783-2.637 10.599.401s2.637 7.783-.401 10.599c-4.773 4.425-10.624 6.638-16.475 6.638z" fill="#383842"/><circle cx="471.703" cy="254.505" fill="#f2ffeb" r="10"/></svg>