<svg id="Layer_1" enable-background="new 0 0 512 512" height="512" viewBox="0 0 512 512" width="512" xmlns="http://www.w3.org/2000/svg" xmlns:xlink="http://www.w3.org/1999/xlink"><linearGradient id="SVGID_1_" gradientUnits="userSpaceOnUse" x1="147.483" x2="364.518" y1="92.739" y2="92.739"><stop offset="0" stop-color="#ffc477"/><stop offset="1" stop-color="#ffd097"/></linearGradient><linearGradient id="SVGID_2_" gradientUnits="userSpaceOnUse" x1="28.945" x2="483.055" y1="229.729" y2="229.729"><stop offset="0" stop-color="#dd6642"/><stop offset="1" stop-color="#e7896e"/></linearGradient><linearGradient id="SVGID_3_" gradientUnits="userSpaceOnUse" x1="0" x2="512" y1="358.094" y2="358.094"><stop offset="0" stop-color="#81d9e7"/><stop offset="1" stop-color="#b5e9f1"/></linearGradient><path d="m364.517 127.219h-217.035v-12.34c0-31.27 25.349-56.619 56.62-56.619h103.796c31.27 0 56.619 25.349 56.619 56.619z" fill="url(#SVGID_1_)"/><path d="m359.062 101.364h-206.124c-27.33 0-52.924 13.867-67.431 37.029-54.316 86.719-56.563 169.085-56.563 169.085l227.056 50.616 227.055-50.617s-2.246-82.366-56.563-169.085c-14.506-23.161-40.101-37.028-67.43-37.028z" fill="url(#SVGID_2_)"/><path d="m389.92 174.566c-9.841-19.105-20.645-23.203-30.858-23.203-5.523 0-10-4.478-10-10 0-5.523 4.477-10 10-10 17.043 0 35.374 8.635 48.167 33.184 2.553 4.898 1.109 10.853-3.645 13.664-7.353 4.348-11.97-.355-13.664-3.645z" fill="#f8cfc5"/><path d="m411.308 218.809c-1.629-4.11-3.356-8.233-5.133-12.252-2.233-5.051.051-10.956 5.103-13.189 5.054-2.232 10.957.052 13.19 5.104 1.881 4.255 3.709 8.618 5.434 12.969 2.035 5.134-.341 11.331-5.612 12.98-6.327 1.979-11.426-1.686-12.982-5.612z" fill="#f8cfc5"/><path d="m321.461 253.171c-4.376-14.988-22.616-20.669-34.729-10.816l-11.225 9.13c-11.363 9.243-27.652 9.243-39.015 0l-36.736-29.882c-17.2-13.991-41.883-13.904-58.983.209l-31.462 25.966c-11.556 9.537-27.052 12.803-41.474 8.74l-29.229-8.235c-9.013 35.428-9.664 59.194-9.664 59.194l68.781 15.333h170.79l47.533-48.193c10.084-9.524 5.413-21.446 5.413-21.446z" fill="#b24e2f"/><path d="m402.689 299.058-31.462-25.966c-17.1-14.113-41.783-14.201-58.983-.21l-36.736 29.883c-11.363 9.243-27.652 9.243-39.015 0l-36.736-29.883c-17.2-13.991-41.883-13.903-58.983.21l-31.462 25.966c-11.556 9.537-27.052 12.803-41.474 8.74l-36.418-10.258c-19.329-5.445-36.724 13.24-29.915 32.131l27.637 76.669c10.253 28.442 37.24 47.401 67.474 47.401h318.765c30.234 0 57.221-18.959 67.474-47.401l27.638-76.669c6.81-18.891-10.586-37.575-29.915-32.131l-36.417 10.258c-14.42 4.062-29.917.797-41.472-8.74z" fill="url(#SVGID_3_)"/><ellipse cx="168.114" cy="390.458" fill="#ffb0d0" rx="14.936" ry="12.003"/><ellipse cx="343.886" cy="390.458" fill="#ffb0d0" rx="14.936" ry="12.003"/><path d="m256 400.644c-6.447 0-12.894-2.155-18.273-6.465-4.989-3.997-5.794-11.282-1.797-16.271 3.997-4.99 11.282-5.793 16.271-1.797 2.237 1.792 5.361 1.792 7.598 0 4.988-3.997 12.273-3.193 16.271 1.797 3.997 4.989 3.193 12.274-1.797 16.271-5.379 4.311-11.826 6.465-18.273 6.465z" fill="#383842"/><path d="m193.721 364.806c6.756 0 13.023 1.406 18.192 3.806 5.277 2.451 11.371.248 11.371-9.581 0-14.846-12.956-26.887-27.777-27.757-17.167-1.008-31.404 12.616-31.404 29.565 0 9.003 5.962 10.498 10.454 8.241 5.348-2.684 11.979-4.274 19.164-4.274z" fill="#fff"/><path d="m193.721 364.806c5.926 0 11.473 1.082 16.237 2.967.911-2.129 1.415-4.47 1.415-6.933 0-9.749-7.903-17.652-17.652-17.652s-17.652 7.903-17.652 17.652c0 2.463.504 4.803 1.415 6.933 4.764-1.885 10.312-2.967 16.237-2.967z" fill="#383842"/><path d="m318.306 364.806c6.756 0 13.023 1.406 18.192 3.806 5.277 2.451 11.371.248 11.371-9.581 0-14.846-12.956-26.887-27.777-27.757-17.168-1.008-31.404 12.616-31.404 29.565 0 9.003 5.962 10.498 10.454 8.241 5.347-2.684 11.979-4.274 19.164-4.274z" fill="#fff"/><path d="m318.306 364.806c5.926 0 11.473 1.082 16.237 2.967.911-2.129 1.415-4.47 1.415-6.933 0-9.749-7.903-17.652-17.652-17.652s-17.652 7.903-17.652 17.652c0 2.463.504 4.803 1.415 6.933 4.763-1.885 10.311-2.967 16.237-2.967z" fill="#383842"/><path d="m256 386.346c-6.912 0-12.515 4.851-12.515 10.834 0 .207.022.41.036.614 3.956 1.886 8.214 2.85 12.479 2.85s8.523-.964 12.479-2.85c.013-.205.036-.407.036-.614 0-5.984-5.603-10.834-12.515-10.834z" fill="#ff737d"/></svg>