<svg id="Layer_1" enable-background="new 0 0 512 512" height="512" viewBox="0 0 512 512" width="512" xmlns="http://www.w3.org/2000/svg" xmlns:xlink="http://www.w3.org/1999/xlink"><linearGradient id="SVGID_1_" gradientUnits="userSpaceOnUse" x1="262.599" x2="206.755" y1="332.333" y2="479.919"><stop offset="0" stop-color="#ffac48"/><stop offset="1" stop-color="#ffc477"/></linearGradient><linearGradient id="SVGID_2_" gradientUnits="userSpaceOnUse" x1="245.098" x2="384.777" y1="150.272" y2="199.418"><stop offset="0" stop-color="#b24e2f"/><stop offset="1" stop-color="#dd6642"/></linearGradient><linearGradient id="SVGID_3_" gradientUnits="userSpaceOnUse" x1="155.604" x2="27.961" y1="258.649" y2="306.515"><stop offset="0" stop-color="#ffc477"/><stop offset="1" stop-color="#ffd097"/></linearGradient><linearGradient id="SVGID_4_" gradientUnits="userSpaceOnUse" x1="273.61" x2="388.716" y1="132.217" y2="244.737"><stop offset="0" stop-color="#dd6642"/><stop offset="1" stop-color="#e7896e"/></linearGradient><path d="m196.351 510.804c-10.089-3.702-15.266-14.882-11.564-24.971l68.98-187.98 36.535 13.407-68.98 187.979c-3.702 10.089-14.882 15.267-24.971 11.565z" fill="url(#SVGID_1_)"/><path d="m255.346 350.037c-21.759-7.984-32.925-32.096-24.941-53.855l98.586-268.66c7.984-21.759 32.096-32.925 53.855-24.941 21.759 7.984 32.925 32.096 24.941 53.855l-98.586 268.66c-7.985 21.759-32.096 32.925-53.855 24.941z" fill="url(#SVGID_2_)"/><path d="m227.996 314.408 60.779-22.302c10.545-3.073 12.091-15.526 12.091-15.526 1.435-13.719-12.039-24.171-24.971-19.371l-36.107 13.403-9.383 25.569c-2.212 6.026-2.954 12.233-2.409 18.227z" fill="#a34325"/><path d="m1.196 315.649c3.702 10.089 14.882 15.266 24.971 11.564l187.979-68.98-13.407-36.535-187.979 68.98c-10.088 3.702-15.266 14.882-11.564 24.971z" fill="url(#SVGID_3_)"/><path d="m161.963 256.654c7.985 21.759 32.096 32.925 53.855 24.941l268.66-98.586c21.759-7.984 32.925-32.096 24.941-53.855-7.984-21.759-32.096-32.925-53.855-24.941l-268.66 98.586c-21.759 7.985-32.925 32.096-24.941 53.855z" fill="url(#SVGID_4_)"/><g fill="#f8cfc5"><path d="m330.375 203.952c-1.903-5.186.758-10.931 5.943-12.833l39.835-14.617c5.184-1.902 10.93.758 12.833 5.942 1.903 5.186-.758 10.931-5.943 12.833l-39.835 14.617c-6.962 1.893-11.348-1.894-12.833-5.942z"/><circle cx="413.357" cy="173.985" r="10"/></g></svg>