<svg id="Layer_1" enable-background="new 0 0 512 512" height="512" viewBox="0 0 512 512" width="512" xmlns="http://www.w3.org/2000/svg" xmlns:xlink="http://www.w3.org/1999/xlink"><linearGradient id="SVGID_1_" gradientUnits="userSpaceOnUse" x1="350.645" x2="-99.536" y1="232.168" y2="245.353"><stop offset="0" stop-color="#ffc477"/><stop offset="1" stop-color="#ffd097"/></linearGradient><linearGradient id="SVGID_2_" gradientUnits="userSpaceOnUse" x1="579.516" x2="163.243" y1="232.554" y2="232.554"><stop offset="0" stop-color="#ffd097"/><stop offset="1" stop-color="#ffe6ae"/></linearGradient><linearGradient id="SVGID_3_" gradientUnits="userSpaceOnUse" x1="432.643" x2="345.004" y1="184.659" y2="449.403"><stop offset="0" stop-color="#dd6642"/><stop offset="1" stop-color="#e7896e"/></linearGradient><path d="m388.304 39.734s-388.304-33.053-388.304 192.82 388.304 192.82 388.304 192.82z" fill="url(#SVGID_1_)"/><path d="m388.304 39.734s-37.925-3.228-90.07-.773c-20.011 20.808-47.358 58.11-62.459 111.422-3.401 12.006 4.101 24.126 17.146 25.766s19.753-5.195 22.32-15.136c4.751-18.403 14.094-47.384 29.426-66.889h83.637z" fill="#ffac48"/><ellipse cx="388.304" cy="232.554" fill="url(#SVGID_2_)" rx="123.696" ry="192.82"/><path d="m451.672 232.554c0-48.961-28.371-88.651-63.369-88.651s-63.369 39.69-63.369 88.651c0 26.347 8.221 49.998 21.266 66.229 8.427 10.484 10.455 24.653 5.395 37.116-11.467 28.248-18.625 61.7-18.625 78.711 0 32.778 26.572 59.351 59.351 59.351 32.778 0 59.351-26.572 59.351-59.351 0-17.446-7.528-52.184-19.513-80.866-5.872-14.054-4.225-29.958 3.854-42.871 9.749-15.583 15.659-35.981 15.659-58.319z" fill="url(#SVGID_3_)"/><path d="m408.804 393.625c-1.827-8.863-6.018-26.426-13.553-44.46-2.129-5.097.276-10.953 5.372-13.083 5.095-2.126 10.953.276 13.082 5.372 8.184 19.585 12.714 38.564 14.686 48.134 1.115 5.409-2.329 10.894-7.775 11.813-7.673 1.293-10.838-3.048-11.812-7.776z" fill="#f8cfc5"/><ellipse cx="50.983" cy="266.404" fill="#ff85ab" rx="14.936" ry="12.003"/><ellipse cx="226.754" cy="266.404" fill="#ff85ab" rx="14.936" ry="12.003"/><circle cx="76.59" cy="236.786" fill="#fff" r="29.618"/><circle cx="201.147" cy="236.786" fill="#fff" r="29.618"/><g fill="#383842"><path d="m63.2 246.288c-3.515-2.192-4.955-6.556-2.959-10.186 3.279-5.963 9.543-9.668 16.349-9.668h.001c6.806 0 13.07 3.705 16.348 9.669 1.996 3.629.67 8.19-2.959 10.185-3.628 1.996-8.19.67-10.185-2.96-.94-1.71-2.554-1.895-3.204-1.895s-2.264.184-3.205 1.895c-1.366 2.484-5.434 5.923-10.186 2.96z"/><path d="m204.351 243.329c-.94-1.711-2.554-1.895-3.205-1.895-.65 0-2.264.184-3.204 1.895-1.996 3.629-6.555 4.956-10.185 2.96-3.63-1.995-4.955-6.556-2.959-10.185 3.278-5.964 9.542-9.669 16.348-9.669s13.07 3.705 16.349 9.668c1.996 3.63.532 7.956-2.959 10.186-4.89 3.122-8.819-.476-10.185-2.96z"/><path d="m150.539 276.59h-23.342c-6.508 0-11.784-5.276-11.784-11.784 0-6.508 5.276-11.784 11.784-11.784h23.342c6.508 0 11.784 5.276 11.784 11.784 0 6.508-5.276 11.784-11.784 11.784z"/></g><path d="m127.198 276.59h23.342s.803-10.834-11.671-10.834c-12.475 0-11.671 10.834-11.671 10.834z" fill="#ff737d"/><circle cx="418.598" cy="428.823" fill="#f8cfc5" r="10"/></svg>