<svg id="Layer_1" enable-background="new 0 0 512 512" height="512" viewBox="0 0 512 512" width="512" xmlns="http://www.w3.org/2000/svg" xmlns:xlink="http://www.w3.org/1999/xlink"><linearGradient id="SVGID_1_" gradientUnits="userSpaceOnUse" x1="257.907" x2="254.576" y1="298.575" y2="456.803"><stop offset="0" stop-color="#ffd097"/><stop offset="1" stop-color="#ffe6ae"/></linearGradient><linearGradient id="SVGID_2_" gradientUnits="userSpaceOnUse" x1="94.449" x2="417.551" y1="161.552" y2="161.552"><stop offset="0" stop-color="#b5e9f1"/><stop offset="1" stop-color="#d7f6f9"/></linearGradient><linearGradient id="SVGID_3_" gradientUnits="userSpaceOnUse" x1="150.574" x2="375.547" y1="194.77" y2="194.77"><stop offset="0" stop-color="#ffb0d0"/><stop offset="1" stop-color="#ffc7de"/></linearGradient><path d="m256 512c-14.084 0-25.501-11.417-25.501-25.501v-194.948h51.001v194.948c.001 14.084-11.416 25.501-25.5 25.501z" fill="url(#SVGID_1_)"/><circle cx="256" cy="161.551" fill="url(#SVGID_2_)" r="161.551"/><path d="m162.867 75.378c-3.747-4.058-3.495-10.385.561-14.132 15.382-14.205 34.061-24.823 54.019-30.705 5.299-1.563 10.857 1.467 12.419 6.765s-1.467 10.857-6.765 12.419c-17.025 5.019-32.79 14.278-46.103 26.215-6.126 5.493-12.159 1.572-14.131-.562z" fill="#e6fdff"/><path d="m252.589 66.436c-56.251 0-102.015 45.764-102.015 102.014 0 47.013 38.247 85.26 85.26 85.26 39.621 0 71.856-32.235 71.856-71.856 0-9.902-2.367-19.263-6.564-27.544-5.872-11.585-22.368-12.483-29.919-2.986-4.961 6.239-4.792 13.259-2.467 19.777 8.444 23.67-10.627 46.131-32.905 46.131-26.898 0-48.781-21.883-48.781-48.781 0-36.136 29.399-65.535 65.536-65.535 47.685 0 86.479 38.794 86.479 86.479 0 62.121-50.538 112.659-112.659 112.659-26.462 0-59.291-10.611-72.517-15.305 27.827 22.716 63.386 36.355 102.109 36.355 17.752 0 34.8-2.852 50.778-8.142 41.311-26.544 68.768-72.92 68.768-125.568-.001-67.8-55.16-122.958-122.959-122.958z" fill="url(#SVGID_3_)"/><ellipse cx="168.115" cy="245.915" fill="#ff85ab" rx="14.936" ry="12.003"/><ellipse cx="343.885" cy="245.915" fill="#ff85ab" rx="14.936" ry="12.003"/><circle cx="193.721" cy="216.297" fill="#fff" r="29.618"/><circle cx="181.756" cy="216.297" fill="#383842" r="17.652"/><circle cx="318.279" cy="216.297" fill="#fff" r="29.618"/><circle cx="306.313" cy="216.297" fill="#383842" r="17.652"/><path d="m263.59 223.491h-15.18c-3.007 0-5.658 1.976-6.506 4.862-2.672 9.09-5.742 27.748 14.097 27.748s16.769-18.659 14.097-27.748c-.85-2.885-3.5-4.862-6.508-4.862z" fill="#383842"/><path d="m243.793 251.901c2.462 2.549 6.32 4.2 12.207 4.2 5.888 0 9.746-1.651 12.208-4.2-1.247-4.845-6.234-8.47-12.208-8.47-5.973 0-10.96 3.625-12.207 8.47z" fill="#ff737d"/><circle cx="144.438" cy="96.763" fill="#e6fdff" r="10"/></svg>