<svg id="Layer_1" enable-background="new 0 0 512 512" height="512" viewBox="0 0 512 512" width="512" xmlns="http://www.w3.org/2000/svg" xmlns:xlink="http://www.w3.org/1999/xlink"><linearGradient id="SVGID_1_" gradientUnits="userSpaceOnUse" x1="0" x2="185.357" y1="419.322" y2="419.322"><stop offset="0" stop-color="#ffd097"/><stop offset="1" stop-color="#ffe6ae"/></linearGradient><linearGradient id="SVGID_2_" gradientUnits="userSpaceOnUse" x1="313.298" x2="152.761" y1="197.219" y2="364.587"><stop offset="0" stop-color="#f46262"/><stop offset="1" stop-color="#ff737d"/></linearGradient><linearGradient id="SVGID_3_" gradientUnits="userSpaceOnUse" x1="347.879" x2="456.013" y1="97.128" y2="204.289"><stop offset="0" stop-color="#ff929f"/><stop offset="1" stop-color="#ffa5b5"/></linearGradient><linearGradient id="SVGID_4_" gradientUnits="userSpaceOnUse" x1="294.033" x2="434.315" y1="86.938" y2="235.989"><stop offset="0" stop-color="#ff737d"/><stop offset="1" stop-color="#ff929f"/></linearGradient><linearGradient id="lg1"><stop offset="0" stop-color="#ffa5b5"/><stop offset="1" stop-color="#ffcfd3"/></linearGradient><linearGradient id="SVGID_5_" gradientUnits="userSpaceOnUse" x1="251.054" x2="361.451" xlink:href="#lg1" y1="55.198" y2="55.198"/><linearGradient id="SVGID_6_" gradientUnits="userSpaceOnUse" x1="515.233" x2="407.989" xlink:href="#lg1" y1="256.403" y2="162.291"/><linearGradient id="SVGID_7_" gradientUnits="userSpaceOnUse" x1="268.09" x2="173.59" y1="244.081" y2="337.444"><stop offset="0" stop-color="#81d9e7"/><stop offset="1" stop-color="#b5e9f1"/></linearGradient><path d="m40.831 504.995 144.526-144.526-33.825-33.825-144.527 144.525c-9.34 9.341-9.34 24.485 0 33.825 9.341 9.341 24.485 9.341 33.826.001z" fill="url(#SVGID_1_)"/><path d="m488.836 220.363-223.29 223.29c-15.95 15.95-41.81 15.95-57.76 0l-139.439-139.439c-15.95-15.95-15.95-41.81 0-57.76l223.29-223.29z" fill="url(#SVGID_2_)"/><path d="m291.637 23.164-77.922 77.922c3.494 13.47 10.487 26.211 21.018 36.742l59.134 59.134c8.115 8.115 21.271 8.115 29.386 0 8.069-8.069 8.121-21.136.116-29.269l-30.659-31.147 57.454-54.856z" fill="#d65b5b"/><path d="m500.037 209.162-39.822 39.822c-15.95 15.95-41.81 15.95-57.76 0l-139.439-139.439c-15.95-15.95-15.95-41.81 0-57.76l39.822-39.822c15.95-15.95 41.81-15.95 57.76 0l139.439 139.439c15.95 15.949 15.95 41.81 0 57.76z" fill="url(#SVGID_3_)"/><path d="m282.927 31.874-19.911 19.911c-15.95 15.95-15.95 41.81 0 57.76l139.439 139.439c15.95 15.95 41.81 15.95 57.76 0l19.911-19.911z" fill="url(#SVGID_4_)"/><path d="m302.838 11.963-39.822 39.822c-15.95 15.95-15.95 41.81 0 57.76l67.354.849c17.253.217 31.295-13.825 31.078-31.078l-.849-67.354c-15.95-15.95-41.811-15.949-57.761.001z" fill="url(#SVGID_5_)"/><path d="m500.037 209.162-39.822 39.822c-15.95 15.95-41.81 15.95-57.76 0l-.849-67.354c-.217-17.253 13.825-31.295 31.078-31.078l67.354.849c15.95 15.95 15.949 41.811-.001 57.761z" fill="url(#SVGID_6_)"/><path d="m354.085 307.597-149.682-149.682c-13.122-13.122-13.122-34.396 0-47.517l-98.235 98.235c-13.122 13.122-13.122 34.396 0 47.517l149.681 149.681c13.122 13.122 34.396 13.122 47.517 0l98.235-98.235c-13.121 13.123-34.395 13.123-47.516.001z" fill="url(#SVGID_7_)"/><ellipse cx="156.554" cy="231.157" fill="#ffb0d0" rx="14.936" ry="12.003" transform="matrix(.707 .707 -.707 .707 209.306 -42.996)"/><ellipse cx="280.843" cy="355.446" fill="#ffb0d0" rx="14.936" ry="12.003" transform="matrix(.707 .707 -.707 .707 333.595 -94.479)"/><circle cx="195.604" cy="228.321" fill="#fff" r="29.618"/><circle cx="204.065" cy="236.781" fill="#383842" r="17.652"/><circle cx="283.679" cy="316.396" fill="#fff" r="29.618"/><g fill="#383842"><circle cx="292.096" cy="324.813" r="17.652"/><ellipse cx="223.766" cy="288.234" rx="13.252" ry="17.352" transform="matrix(.707 .707 -.707 .707 269.351 -73.805)"/></g></svg>